#N canvas 45 412 493 203 10;
#X obj 847 -113 tabwrite;
#X msg 868 -85 40;
#X obj 844 -57 coll;
#C restore;
#N canvas 824 145 450 300 presets 0;
#X obj 4 4 bng 15 250 50 0 empty empty empty 17 7 0 10 -262144 -1 -1
;
#X msg 98 29 3;
#X msg 98 54 \; mn\$1 60 \; hp1\$1 1000 \; algo\$1 4 \;;
#X msg 14 54 \; mn\$1 18 \; hp\$1 600 \; algo\$1 2 \;;
#X msg 14 28 2;
#X connect 0 0 4 0;
#X connect 0 0 1 0;
#X connect 1 0 2 0;
#X connect 4 0 3 0;
#X restore 4 -106 pd presets;
#X obj 127 -50 pm_op 1;
#X obj 187 -50 pm_op 2;
#N canvas 43 23 493 575 processing 1;
#X obj 85 137 sendOSC;
#X msg 19 188 connect localhost 8000;
#X floatatom 85 160 5 0 0 0 - - -, f 5;
#X obj 19 160 loadbang;
#X floatatom 65 40 5 0 0 0 - - -, f 5;
#X floatatom 48 276 5 0 0 0 - - -, f 5;
#X obj 48 302 t b f;
#X obj 27 335 pack;
#X msg 52 107 ];
#X msg 196 106 [;
#X obj 65 10 r noob;
#X obj 65 65 t b f b;
#X obj 309 136 sendOSC;
#X msg 243 187 connect localhost 8000;
#X floatatom 309 159 5 0 0 0 - - -, f 5;
#X obj 243 159 loadbang;
#X floatatom 289 39 5 0 0 0 - - -, f 5;
#X msg 276 106 ];
#X msg 416 105 [;
#X obj 289 64 t b f b;
#X obj 289 9 r dink;
#X obj 533 136 sendOSC;
#X msg 467 187 connect localhost 8000;
#X floatatom 533 159 5 0 0 0 - - -, f 5;
#X obj 467 159 loadbang;
#X floatatom 513 39 5 0 0 0 - - -, f 5;
#X msg 500 106 ];
#X msg 640 105 [;
#X obj 513 64 t b f b;
#X obj 513 9 r rasp;
#X msg 532 105 send /env3 \$1;
#X msg 308 105 send /env2 \$1;
#X msg 84 106 send /env1 \$1;
#X connect 0 0 2 0;
#X connect 1 0 0 0;
#X connect 3 0 1 0;
#X connect 4 0 11 0;
#X connect 5 0 6 0;
#X connect 6 0 7 0;
#X connect 6 1 7 1;
#X connect 8 0 0 0;
#X connect 9 0 0 0;
#X connect 10 0 4 0;
#X connect 11 0 8 0;
#X connect 11 1 32 0;
#X connect 11 2 9 0;
#X connect 12 0 14 0;
#X connect 13 0 12 0;
#X connect 15 0 13 0;
#X connect 16 0 19 0;
#X connect 17 0 12 0;
#X connect 18 0 12 0;
#X connect 19 0 17 0;
#X connect 19 1 31 0;
#X connect 19 2 18 0;
#X connect 20 0 16 0;
#X connect 21 0 23 0;
#X connect 22 0 21 0;
#X connect 24 0 22 0;
#X connect 25 0 28 0;
#X connect 26 0 21 0;
#X connect 27 0 21 0;
#X connect 28 0 26 0;
#X connect 28 1 30 0;
#X connect 28 2 27 0;
#X connect 29 0 25 0;
#X connect 30 0 21 0;
#X connect 31 0 12 0;
#X connect 32 0 0 0;
#X restore 4 -83 pd processing;
#X obj 127 -26 s noob;
#X obj 187 -27 s dink;
#X obj 7 80 s m;
#X obj 6 -25 hsl 100 15 20000 400 0 0 empty empty empty -2 -8 0 10
-262144 -1 -1 9500 1;
#X floatatom 35 0 5 0 0 0 - - -, f 5;
#N canvas 715 193 450 323 boot 0;
#X obj 7 9 loadbang;
#X obj 7 32 s L;
#X connect 0 0 1 0;
#X restore 4 -60 pd boot;
#X obj 7 30 r L;
#X obj 7 53 metro 4000;
#X obj 251 -27 s rasp;
#X obj 251 -50 pm_op 3;
#X obj 127 -76 bng 15 250 50 0 empty empty empty 17 7 0 10 -262144
-1 -1;
#X obj 127 -102 r L;
#X text 313 -52 <-- open these for envelopes;
#X connect 4 0 7 0;
#X connect 5 0 8 0;
#X connect 10 0 11 0;
#X connect 11 0 14 1;
#X connect 13 0 14 0;
#X connect 14 0 9 0;
#X connect 16 0 15 0;
#X connect 17 0 16 2;
#X connect 17 0 4 0;
#X connect 17 0 5 1;
#X connect 18 0 17 0;
