#N canvas 556 69 684 636 12;
#X obj 150 462 vsl 15 128 0 16 0 0 \$0_op1c \$0_op1c empty 0 -9 0 10
-262144 -1 -1 0 1;
#X obj 166 456 vradio 8 1 1 17 \$0_opbox3inv \$0_opbox1 empty 0 -8
0 10 -262144 -1 -1 15;
#X obj 279 462 vsl 15 128 0 4000 0 0 \$0_env1a \$0_e1a empty 0 -9 0
10 -262144 -1 -1 3175 1;
#X obj 303 462 vsl 15 128 0 4000 0 0 \$0_env1d \$0_e1d empty 0 -9 0
10 -262144 -1 -1 3175 1;
#X obj 328 462 vsl 15 128 0 127 0 0 \$0_env1s \$0_e1s empty 0 -9 0
10 -262144 -1 -1 70 1;
#X obj 352 462 vsl 15 128 0 4000 0 0 \$0_env1r \$0_e1r empty 0 -9 0
10 -262144 -1 -1 6350 1;
#X obj 424 570 tgl 15 0 \$0_fixed1tog \$0_fixed1tog empty 17 7 0 10
-262144 -1 -1 1 1;
#X obj 424 550 bng 15 250 50 0 \$0_fixed1 empty empty 17 7 0 10 -262144
-1 -1;
#X text 419 524 Env;
#X text 413 465 Level;
#X text 514 461 Feedback;
#X text 523 505 Index;
#X text 519 548 Detune;
#X obj 424 410 tgl 15 0 \$0_fixed2tog \$0_fixed2tog empty 17 7 0 10
-262144 -1 -1 1 1;
#X obj 424 390 bng 15 250 50 0 \$0_fixed2 empty empty 17 7 0 10 -262144
-1 -1;
#X text 419 364 Env;
#X text 413 305 Level;
#X obj 424 250 tgl 15 0 \$0_fixed3tog \$0_fixed3tog empty 17 7 0 10
-262144 -1 -1 1 1;
#X obj 424 230 bng 15 250 50 0 \$0_fixed3 empty empty 17 7 0 10 -262144
-1 -1;
#X text 419 204 Env;
#X text 413 145 Level;
#X obj 150 302 vsl 15 128 0 16 0 0 \$0_op2c \$0_op2c empty 0 -9 0 10
-262144 -1 -1 0 1;
#X obj 166 297 vradio 8 1 1 17 \$0_opbox3inv \$0_opbox2 empty 0 -8
0 10 -262144 -1 -1 12;
#X obj 279 302 vsl 15 128 0 4000 0 0 \$0_env2a empty empty 0 -9 0 10
-262144 -1 -1 0 1;
#X obj 303 302 vsl 15 128 0 4000 0 0 \$0_env2d empty empty 0 -9 0 10
-262144 -1 -1 0 1;
#X obj 328 302 vsl 15 128 0 127 0 0 \$0_env2s empty empty 0 -9 0 10
-262144 -1 -1 0 1;
#X obj 352 302 vsl 15 128 0 4000 0 0 \$0_env2r empty empty 0 -9 0 10
-262144 -1 -1 0 1;
#X obj 150 142 vsl 15 128 0 16 0 0 \$0_op3c \$0_op3c empty 0 -9 0 10
-262144 -1 -1 0 1;
#X obj 166 137 vradio 8 1 1 17 \$0_opbox3inv \$0_opbox3 empty 0 -8
0 10 -262144 -1 -1 8;
#X obj 279 142 vsl 15 128 0 4000 0 0 \$0_env3a empty empty 0 -9 0 10
-262144 -1 -1 0 1;
#X obj 303 142 vsl 15 128 0 4000 0 0 \$0_env3d empty empty 0 -9 0 10
-262144 -1 -1 0 1;
#X obj 328 142 vsl 15 128 0 127 0 0 \$0_env3s empty empty 0 -9 0 10
-262144 -1 -1 0 1;
#X obj 352 142 vsl 15 128 0 4000 0 0 \$0_env3r empty empty 0 -9 0 10
-262144 -1 -1 0 1;
#X text 694 459 Matrix;
#X obj 377 518 vradio 15 1 0 5 \$0_scl1 \$0_scl1 empty 0 -8 0 10 -262144
-1 -1 0;
#X obj 377 358 vradio 15 1 0 5 scl2 scl2 empty 0 -8 0 10 -262144 -1
-1 0;
#X obj 377 198 vradio 15 1 0 5 \$0_scl3 \$0_scl3 empty 0 -8 0 10 -262144
-1 -1 0;
#X text 7 290 LFO;
#X obj 9 108 vsl 15 128 0 127 0 0 \$0_midi_note \$0_mn empty 0 -9 0
10 -262144 -1 -1 1200 1;
#X floatatom 9 251 5 0 0 0 - - -, f 5;
#X obj 43 108 vsl 15 128 0 3000 0 0 \$0_hip \$0_hp empty 0 -9 0 10
-262144 -1 -1 2540 1;
#X floatatom 216 531 5 0 0 0 - - -, f 5;
#X floatatom 216 371 5 0 0 0 - - -, f 5;
#X floatatom 216 211 5 0 0 0 - - -, f 5;
#X obj 424 88 tgl 15 0 \$0_fixed4tog \$0_fixed4tog empty 17 7 0 10
-262144 -1 -1 1 1;
#X obj 424 68 bng 15 250 50 0 \$0_fixed4 empty empty 17 7 0 10 -262144
-1 -1;
#X text 419 42 Env;
#X text 413 -17 Level;
#X obj 150 -20 vsl 15 128 0 16 0 0 \$0_op4c \$0_op4c empty 0 -9 0 10
-262144 -1 -1 0 1;
#X obj 166 -25 vradio 8 1 1 17 \$0_opbox4inv \$0_opbox4 empty 0 -8
0 10 -262144 -1 -1 13;
#X obj 279 -20 vsl 15 128 0 4000 0 0 \$0_env4a empty empty 0 -9 0 10
-262144 -1 -1 0 1;
#X obj 303 -20 vsl 15 128 0 4000 0 0 \$0_env4d empty empty 0 -9 0 10
-262144 -1 -1 0 1;
#X obj 328 -20 vsl 15 128 0 127 0 0 \$0_env4s empty empty 0 -9 0 10
-262144 -1 -1 0 1;
#X obj 352 -20 vsl 15 128 0 4000 0 0 \$0_env4r empty empty 0 -9 0 10
-262144 -1 -1 0 1;
#X obj 377 36 vradio 15 1 0 5 \$0_scl4 \$0_scl4 empty 0 -8 0 10 -262144
-1 -1 0;
#X floatatom 216 49 5 0 0 0 - - -, f 5;
#X obj 76 113 vradio 15 0 0 8 \$0_algoselect \$0_algo empty 0 -8 0
10 -262144 -1 -1 0;
#X obj 216 73 s \$0_4f;
#X obj 216 235 s \$0_3f;
#X obj 216 395 s \$0_2f;
#X obj 216 555 s \$0_1f;
#N canvas 812 322 609 751 wires 0;
#X obj 165 235 phasor~;
#X floatatom 165 211 5 0 0 0 - - -, f 5;
#X floatatom 264 211 5 0 0 0 - - -, f 5;
#X obj 264 235 osc~;
#X obj 165 364 *~ 0.5;
#X obj 165 519 dac~;
#X obj 190 484 delay~ \$1;
#X floatatom 250 456 5 0 0 0 - - -, f 5;
#X floatatom 366 212 5 0 0 0 - - -, f 5;
#X obj 366 236 osc~;
#X obj 191 26 vsl 15 128 0 16 0 0 \$0_op1c \$0_op1c empty 0 -9 0 10
-262144 -1 -1 0 1;
#X obj 215 26 vsl 15 128 0 2 0 0 empty empty empty 0 -9 0 10 -262144
-1 -1 0 1;
#X obj 261 25 vsl 15 128 0 16 0 0 \$0_op2c \$0_op2c empty 0 -9 0 10
-262144 -1 -1 0 1;
#X obj 285 25 vsl 15 128 0 2 0 0 empty empty empty 0 -9 0 10 -262144
-1 -1 0 1;
#X obj 331 25 vsl 15 128 0 16 0 0 \$0_op3c \$0_op3c empty 0 -9 0 10
-262144 -1 -1 0 1;
#X obj 355 25 vsl 15 128 0 2 0 0 empty empty empty 0 -9 0 10 -262144
-1 -1 0 1;
#X obj 9 61 snapshot~;
#X floatatom 9 88 5 0 0 0 - - -, f 5;
#X obj 19 12 loadbang;
#X obj 347 20 vradio 8 1 1 17 \$0_opbox3inv \$0_opbox3 empty 0 -8 0
10 -262144 -1 -1 8;
#X obj 277 20 vradio 8 1 1 17 \$0_opbox3inv \$0_opbox2 empty 0 -8 0
10 -262144 -1 -1 12;
#X obj 207 20 vradio 8 1 1 17 \$0_opbox3inv \$0_opbox1 empty 0 -8 0
10 -262144 -1 -1 15;
#X obj 165 392 clip~ -0.5 0.5;
#X obj 165 448 hip~;
#N canvas 1 77 977 518 reverb2 0;
#X obj 25 29 inlet~;
#X obj 6 365 outlet~;
#X obj 97 366 outlet~;
#X obj 105 113 hsl 80 10 1 0 0 1 empty empty lv 2 5 0 10 -262144 -1
-1 2200 1;
#X obj 107 195 *;
#X obj 114 228 *;
#X obj 84 164 t b f f;
#X obj 98 253 -;
#X msg 82 231 1;
#X obj 117 285 * 100;
#X obj 76 321 rev2~ 100 90 3000 20;
#X obj 105 126 hsl 80 10 1 0 0 1 empty empty dp 2 5 0 10 -262144 -1
-1 4300 1;
#X obj 180 215 *;
#X obj 184 239 *;
#X obj 171 188 t f f;
#X obj 186 271 * 100;
#X obj 105 138 hsl 80 10 1 0 0 1 empty empty co 2 5 0 10 -262144 -1
-1 5200 1;
#X obj 167 294 * 6000;
#X connect 0 0 10 0;
#X connect 3 0 6 0;
#X connect 4 0 5 1;
#X connect 4 0 5 0;
#X connect 5 0 7 1;
#X connect 6 0 8 0;
#X connect 6 1 4 0;
#X connect 6 2 4 1;
#X connect 7 0 9 0;
#X connect 8 0 7 0;
#X connect 9 0 10 2;
#X connect 10 0 1 0;
#X connect 10 1 2 0;
#X connect 11 0 14 0;
#X connect 12 0 13 1;
#X connect 12 0 13 0;
#X connect 13 0 15 0;
#X connect 14 0 12 0;
#X connect 14 1 12 1;
#X connect 15 0 10 4;
#X connect 16 0 17 0;
#X connect 17 0 10 3;
#X coords 0 -1 1 1 90 50 1 100 100;
#X restore 471 629 pd reverb2;
#N canvas 274 249 553 464 resample 0;
#X obj 59 243 samphold~;
#X obj 133 212 phasor~;
#X obj 27 33 inlet~;
#X obj 2 384 outlet~;
#X obj 20 354 +~;
#X obj 58 334 *~;
#X obj -8 327 *~;
#X obj 15 268 * -1;
#X obj 13 292 + 1;
#X obj 108 129 hsl 70 8 0 1 0 1 empty empty dry/wet -2 5 0 10 -262144
-1 -1 6900 1;
#X obj 238 21 inlet;
#X obj 235 49 / 128;
#X obj 108 118 hsl 70 8 0.005 0.5 1 1 empty empty rate -2 5 0 10 -262144
-1 -1 0 1;
#X obj 191 22 inlet;
#X obj 139 179 * 44100;
#X obj 177 48 / 256;
#X connect 0 0 5 1;
#X connect 1 0 0 1;
#X connect 2 0 0 0;
#X connect 2 0 6 0;
#X connect 4 0 3 0;
#X connect 5 0 4 1;
#X connect 6 0 4 0;
#X connect 7 0 8 0;
#X connect 8 0 6 1;
#X connect 9 0 7 0;
#X connect 9 0 5 0;
#X connect 10 0 11 0;
#X connect 11 0 9 0;
#X connect 12 0 14 0;
#X connect 13 0 15 0;
#X connect 14 0 1 0;
#X connect 15 0 12 0;
#X coords 0 -1 1 1 85 40 1 100 100;
#X restore 472 577 pd resample;
#X floatatom 465 212 5 0 0 0 - - -, f 5;
#X obj 465 236 osc~;
#X obj 165 184 r \$0_op1;
#X obj 264 184 r \$0_op2;
#X obj 366 185 r \$0_op3;
#X obj 465 185 r \$0_op4;
#X obj 165 264 s~ \$0_algos1;
#X obj 264 264 s~ \$0_algos2;
#X obj 366 264 s~ \$0_algos3;
#X obj 465 264 s~ \$0_algos4;
#X obj 165 335 r~ \$0_signal;
#X obj 190 421 r \$0_hip;
#X obj 9 -17 r~ \$0_env1;
#N canvas 346 23 806 739 algos 0;
#X obj 19 68 +~;
#X obj 19 93 cos~;
#X obj 19 150 *~;
#X obj 119 121 *~;
#X obj 119 69 +~;
#X obj 220 122 *~;
#X obj 220 69 +~;
#X obj 319 122 *~;
#X obj 319 69 +~;
#X obj 19 248 +~;
#X obj 19 273 cos~;
#X obj 19 330 *~;
#X obj 119 301 *~;
#X obj 119 249 +~;
#X obj 220 302 *~;
#X obj 220 249 +~;
#X obj 319 302 *~;
#X obj 319 249 +~;
#X obj 19 426 +~;
#X obj 19 451 cos~;
#X obj 19 508 *~;
#X obj 119 479 *~;
#X obj 119 427 +~;
#X obj 220 480 *~;
#X obj 220 427 +~;
#X obj 319 480 *~;
#X obj 319 427 +~;
#X obj 19 602 +~;
#X obj 19 627 cos~;
#X obj 19 684 *~;
#X obj 119 655 *~;
#X obj 119 603 +~;
#X obj 220 656 *~;
#X obj 220 603 +~;
#X obj 319 656 *~;
#X obj 319 603 +~;
#X obj 433 128 *~;
#X obj 523 128 *~;
#X obj 613 128 *~;
#X obj 703 128 *~;
#X floatatom 433 49 5 0 0 0 - - -, f 5;
#X obj 626 24 sel 0 1 2 3;
#X obj 433 73 == 0;
#X obj 470 73 == 1;
#X obj 507 73 == 2;
#X obj 544 73 == 3;
#X obj 19 16 r~ \$0_algos1;
#X obj 19 196 r~ \$0_algos1;
#X obj 19 374 r~ \$0_algos1;
#X obj 19 550 r~ \$0_algos1;
#X obj 119 16 r~ \$0_algos2;
#X obj 119 196 r~ \$0_algos2;
#X obj 119 374 r~ \$0_algos2;
#X obj 119 550 r~ \$0_algos2;
#X obj 220 16 r~ \$0_algos3;
#X obj 220 196 r~ \$0_algos3;
#X obj 220 374 r~ \$0_algos3;
#X obj 220 550 r~ \$0_algos3;
#X obj 319 16 r~ \$0_algos4;
#X obj 319 196 r~ \$0_algos4;
#X obj 319 374 r~ \$0_algos4;
#X obj 319 550 r~ \$0_algos4;
#X obj 37 41 r~ \$0_fb1;
#X obj 37 221 r~ \$0_fb1;
#X obj 37 399 r~ \$0_fb1;
#X obj 37 575 r~ \$0_fb1;
#X obj 137 42 r~ \$0_fb2;
#X obj 137 222 r~ \$0_fb2;
#X obj 137 400 r~ \$0_fb2;
#X obj 137 576 r~ \$0_fb2;
#X obj 238 42 r~ \$0_fb3;
#X obj 238 222 r~ \$0_fb3;
#X obj 238 400 r~ \$0_fb3;
#X obj 238 576 r~ \$0_fb3;
#X obj 337 42 r~ \$0_fb4;
#X obj 337 222 r~ \$0_fb4;
#X obj 337 400 r~ \$0_fb4;
#X obj 337 576 r~ \$0_fb4;
#X obj 37 122 r~ \$0_env1;
#X obj 37 302 r~ \$0_env1;
#X obj 37 480 r~ \$0_env1;
#X obj 37 656 r~ \$0_env1;
#X obj 137 94 r~ \$0_env2;
#X obj 137 274 r~ \$0_env2;
#X obj 137 452 r~ \$0_env2;
#X obj 137 628 r~ \$0_env2;
#X obj 238 95 r~ \$0_env3;
#X obj 238 275 r~ \$0_env3;
#X obj 238 453 r~ \$0_env3;
#X obj 238 629 r~ \$0_env3;
#X obj 337 95 r~ \$0_env4;
#X obj 337 275 r~ \$0_env4;
#X obj 337 453 r~ \$0_env4;
#X obj 337 629 r~ \$0_env4;
#X obj 53 150 s~ \$0_algor1;
#X obj 53 330 s~ \$0_algor2;
#X obj 53 508 s~ \$0_algor3;
#X obj 53 684 s~ \$0_algor4;
#X obj 433 100 r~ \$0_algor1;
#X obj 523 100 r~ \$0_algor2;
#X obj 613 100 r~ \$0_algor3;
#X obj 703 100 r~ \$0_algor4;
#X obj 433 190 s~ \$0_signal;
#X obj 433 16 r \$0_algoselect;
#X connect 0 0 1 0;
#X connect 1 0 2 0;
#X connect 2 0 94 0;
#X connect 3 0 0 1;
#X connect 4 0 3 0;
#X connect 5 0 4 1;
#X connect 6 0 5 0;
#X connect 7 0 6 1;
#X connect 8 0 7 0;
#X connect 9 0 10 0;
#X connect 10 0 11 0;
#X connect 11 0 95 0;
#X connect 12 0 9 1;
#X connect 13 0 12 0;
#X connect 14 0 13 1;
#X connect 15 0 14 0;
#X connect 16 0 13 1;
#X connect 17 0 16 0;
#X connect 18 0 19 0;
#X connect 19 0 20 0;
#X connect 20 0 96 0;
#X connect 21 0 18 1;
#X connect 22 0 21 0;
#X connect 23 0 22 1;
#X connect 24 0 23 0;
#X connect 25 0 18 1;
#X connect 26 0 25 0;
#X connect 27 0 28 0;
#X connect 28 0 29 0;
#X connect 29 0 97 0;
#X connect 30 0 27 1;
#X connect 31 0 30 0;
#X connect 32 0 27 1;
#X connect 33 0 32 0;
#X connect 34 0 33 1;
#X connect 35 0 34 0;
#X connect 36 0 102 0;
#X connect 37 0 102 0;
#X connect 38 0 102 0;
#X connect 39 0 102 0;
#X connect 40 0 42 0;
#X connect 40 0 43 0;
#X connect 40 0 44 0;
#X connect 40 0 45 0;
#X connect 42 0 36 1;
#X connect 43 0 37 1;
#X connect 44 0 38 1;
#X connect 45 0 39 1;
#X connect 46 0 0 0;
#X connect 47 0 9 0;
#X connect 48 0 18 0;
#X connect 49 0 27 0;
#X connect 50 0 4 0;
#X connect 51 0 13 0;
#X connect 52 0 22 0;
#X connect 53 0 31 0;
#X connect 54 0 6 0;
#X connect 55 0 15 0;
#X connect 56 0 24 0;
#X connect 57 0 33 0;
#X connect 58 0 8 0;
#X connect 59 0 17 0;
#X connect 60 0 26 0;
#X connect 61 0 35 0;
#X connect 62 0 0 1;
#X connect 63 0 9 1;
#X connect 64 0 18 1;
#X connect 65 0 27 1;
#X connect 66 0 4 1;
#X connect 67 0 13 1;
#X connect 68 0 22 1;
#X connect 69 0 31 1;
#X connect 70 0 6 1;
#X connect 71 0 15 1;
#X connect 72 0 24 1;
#X connect 73 0 33 1;
#X connect 74 0 8 1;
#X connect 75 0 17 1;
#X connect 76 0 26 1;
#X connect 77 0 35 1;
#X connect 78 0 2 1;
#X connect 79 0 11 1;
#X connect 80 0 20 1;
#X connect 81 0 29 1;
#X connect 82 0 3 1;
#X connect 83 0 12 1;
#X connect 84 0 21 1;
#X connect 85 0 30 1;
#X connect 86 0 5 1;
#X connect 87 0 14 1;
#X connect 88 0 23 1;
#X connect 89 0 32 1;
#X connect 90 0 7 1;
#X connect 91 0 16 1;
#X connect 92 0 25 1;
#X connect 93 0 34 1;
#X connect 98 0 36 0;
#X connect 99 0 37 0;
#X connect 100 0 38 0;
#X connect 101 0 39 0;
#X connect 103 0 40 0;
#X restore 10 302 pd algos;
#N canvas 819 286 414 514 env1 0;
#X floatatom 28 -67 5 0 0 0 - - -, f 5;
#X floatatom 71 -67 5 0 0 0 - - -, f 5;
#X floatatom 124 -67 5 0 0 0 - - -, f 5;
#X obj 28 102 vline~;
#X obj 6 -94 bng 15 250 50 0 empty m empty 17 7 0 10 -262144 -1 -1
;
#X obj 144 21 / 127;
#X obj 265 235 +;
#X floatatom 265 261 5 0 0 0 - - -, f 5;
#X floatatom 169 -67 5 0 0 0 - - -, f 5;
#X obj 322 206 t b f;
#X obj 28 48 pack f f f f f f;
#X msg 28 75 1 \$2 \, \$4 \$3 \$2 \, 0 \$5 \$6;
#X obj 28 285 pack~ 0 50;
#X obj 28 223 *~;
#X obj 93 253 *~;
#X obj 93 149 tgl 15 0 \$0_fixed1tog \$0_fixed1tog empty 17 7 0 10
-262144 -1 -1 1 1;
#X floatatom 46 198 5 0 0 0 - - -, f 5;
#X floatatom 93 198 5 0 0 0 - - -, f 5;
#X obj 93 171 ==;
#X obj 93 128 bng 15 250 50 0 empty \$0_fixed1 empty 17 7 0 10 -262144
-1 -1;
#X obj 93 102 loadbang;
#X msg 264 80 0.5;
#X msg 264 57 1;
#X floatatom 264 106 5 0 0 0 - - -, f 5;
#X floatatom 265 -67 5 0 0 0 - - -, f 5;
#X floatatom 28 -17 5 0 0 0 - - -, f 5;
#X floatatom 71 -17 5 0 0 0 - - -, f 5;
#X floatatom 169 -17 5 0 0 0 - - -, f 5;
#X obj 28 -42 * 1;
#X obj 169 -42 * 1;
#X obj 265 287 * 1;
#X floatatom 265 312 5 0 0 0 - - -, f 5;
#X obj 264 -43 sel 0 1 2 3 4;
#X msg 264 -13 10;
#X msg 264 11 5;
#X msg 264 34 2;
#X obj 28 253 *~ 1;
#X obj 264 133 t b f;
#X obj 71 -42 * 1;
#X obj 28 -96 r \$0_env1a;
#X obj 108 -96 r \$0_env1d;
#X obj 188 -96 r \$0_env1s;
#X obj 268 -96 r \$0_env1r;
#X obj 312 -68 r \$0_scl1;
#X obj 28 21 s \$0_a1;
#X obj 86 21 s \$0_d1;
#X obj 190 21 r \$0_r1;
#X obj 141 195 r \$0_level1;
#X obj 28 312 s~ \$0_env1;
#X obj 265 178 r \$0_a1;
#X obj 322 178 r \$0_d1;
#X obj 265 336 s \$0_r1;
#X connect 0 0 28 0;
#X connect 1 0 38 0;
#X connect 2 0 5 0;
#X connect 3 0 13 0;
#X connect 4 0 10 0;
#X connect 5 0 10 3;
#X connect 6 0 7 0;
#X connect 7 0 30 0;
#X connect 8 0 29 0;
#X connect 9 0 6 0;
#X connect 9 1 6 1;
#X connect 10 0 11 0;
#X connect 11 0 3 0;
#X connect 12 0 48 0;
#X connect 13 0 36 0;
#X connect 14 0 12 0;
#X connect 15 0 16 0;
#X connect 15 0 18 0;
#X connect 16 0 13 1;
#X connect 17 0 14 0;
#X connect 18 0 17 0;
#X connect 19 0 15 0;
#X connect 20 0 19 0;
#X connect 21 0 23 0;
#X connect 22 0 23 0;
#X connect 23 0 37 0;
#X connect 24 0 32 0;
#X connect 25 0 10 1;
#X connect 25 0 44 0;
#X connect 26 0 10 2;
#X connect 26 0 45 0;
#X connect 27 0 10 4;
#X connect 28 0 25 0;
#X connect 29 0 27 0;
#X connect 30 0 31 0;
#X connect 31 0 51 0;
#X connect 32 0 33 0;
#X connect 32 1 34 0;
#X connect 32 2 35 0;
#X connect 32 3 22 0;
#X connect 32 4 21 0;
#X connect 33 0 23 0;
#X connect 34 0 23 0;
#X connect 35 0 23 0;
#X connect 36 0 12 0;
#X connect 37 0 30 0;
#X connect 37 0 29 0;
#X connect 37 0 38 0;
#X connect 37 0 28 0;
#X connect 37 1 30 1;
#X connect 37 1 29 1;
#X connect 37 1 38 1;
#X connect 37 1 28 1;
#X connect 38 0 26 0;
#X connect 39 0 0 0;
#X connect 40 0 1 0;
#X connect 41 0 2 0;
#X connect 42 0 8 0;
#X connect 43 0 24 0;
#X connect 46 0 10 5;
#X connect 47 0 14 1;
#X connect 47 0 36 1;
#X connect 49 0 6 0;
#X connect 50 0 9 0;
#X restore 10 332 pd env1;
#N canvas 388 25 389 487 env2 0;
#X floatatom 28 -67 5 0 0 0 - - -, f 5;
#X floatatom 71 -67 5 0 0 0 - - -, f 5;
#X floatatom 124 -67 5 0 0 0 - - -, f 5;
#X obj 28 102 vline~;
#X obj 6 -94 bng 15 250 50 0 empty m empty 17 7 0 10 -262144 -1 -1
;
#X obj 144 21 / 127;
#X obj 265 235 +;
#X floatatom 265 261 5 0 0 0 - - -, f 5;
#X floatatom 169 -67 5 0 0 0 - - -, f 5;
#X obj 322 206 t b f;
#X obj 28 48 pack f f f f f f;
#X msg 28 75 1 \$2 \, \$4 \$3 \$2 \, 0 \$5 \$6;
#X obj 28 285 pack~ 0 50;
#X obj 28 223 *~;
#X obj 93 253 *~;
#X obj 93 149 tgl 15 0 \$0_fixed2tog \$0_fixed2tog empty 17 7 0 10
-262144 -1 -1 1 1;
#X floatatom 46 198 5 0 0 0 - - -, f 5;
#X floatatom 93 198 5 0 0 0 - - -, f 5;
#X obj 93 171 ==;
#X obj 93 128 bng 15 250 50 0 empty \$0_fixed2 empty 17 7 0 10 -262144
-1 -1;
#X obj 93 102 loadbang;
#X msg 264 80 0.5;
#X msg 264 57 1;
#X floatatom 264 106 5 0 0 0 - - -, f 5;
#X floatatom 265 -67 5 0 0 0 - - -, f 5;
#X floatatom 28 -17 5 0 0 0 - - -, f 5;
#X floatatom 71 -17 5 0 0 0 - - -, f 5;
#X floatatom 169 -17 5 0 0 0 - - -, f 5;
#X obj 28 -42 * 1;
#X obj 169 -42 * 1;
#X obj 265 287 * 1;
#X floatatom 265 312 5 0 0 0 - - -, f 5;
#X obj 264 -43 sel 0 1 2 3 4;
#X msg 264 -13 10;
#X msg 264 11 5;
#X msg 264 34 2;
#X obj 28 253 *~ 1;
#X obj 264 133 t b f;
#X obj 71 -42 * 1;
#X obj 28 -96 r \$0_env2a;
#X obj 108 -96 r \$0_env2d;
#X obj 188 -96 r \$0_env2s;
#X obj 268 -96 r \$0_env2r;
#X obj 312 -68 r \$0_scl2;
#X obj 28 21 s \$0_a2;
#X obj 86 21 s \$0_d2;
#X obj 190 21 r \$0_r2;
#X obj 141 195 r \$0_level2;
#X obj 28 312 s~ \$0_env2;
#X obj 265 178 r \$0_a2;
#X obj 322 178 r \$0_d2;
#X obj 265 336 s \$0_r2;
#X connect 0 0 28 0;
#X connect 1 0 38 0;
#X connect 2 0 5 0;
#X connect 3 0 13 0;
#X connect 4 0 10 0;
#X connect 5 0 10 3;
#X connect 6 0 7 0;
#X connect 7 0 30 0;
#X connect 8 0 29 0;
#X connect 9 0 6 0;
#X connect 9 1 6 1;
#X connect 10 0 11 0;
#X connect 11 0 3 0;
#X connect 12 0 48 0;
#X connect 13 0 36 0;
#X connect 14 0 12 0;
#X connect 15 0 16 0;
#X connect 15 0 18 0;
#X connect 16 0 13 1;
#X connect 17 0 14 0;
#X connect 18 0 17 0;
#X connect 19 0 15 0;
#X connect 20 0 19 0;
#X connect 21 0 23 0;
#X connect 22 0 23 0;
#X connect 23 0 37 0;
#X connect 24 0 32 0;
#X connect 25 0 10 1;
#X connect 25 0 44 0;
#X connect 26 0 10 2;
#X connect 26 0 45 0;
#X connect 27 0 10 4;
#X connect 28 0 25 0;
#X connect 29 0 27 0;
#X connect 30 0 31 0;
#X connect 31 0 51 0;
#X connect 32 0 33 0;
#X connect 32 1 34 0;
#X connect 32 2 35 0;
#X connect 32 3 22 0;
#X connect 32 4 21 0;
#X connect 33 0 23 0;
#X connect 34 0 23 0;
#X connect 35 0 23 0;
#X connect 36 0 12 0;
#X connect 37 0 30 0;
#X connect 37 0 29 0;
#X connect 37 0 38 0;
#X connect 37 0 28 0;
#X connect 37 1 30 1;
#X connect 37 1 29 1;
#X connect 37 1 38 1;
#X connect 37 1 28 1;
#X connect 38 0 26 0;
#X connect 39 0 0 0;
#X connect 40 0 1 0;
#X connect 41 0 2 0;
#X connect 42 0 8 0;
#X connect 43 0 24 0;
#X connect 46 0 10 5;
#X connect 47 0 14 1;
#X connect 47 0 36 1;
#X connect 49 0 6 0;
#X connect 50 0 9 0;
#X restore 10 359 pd env2;
#N canvas 776 23 385 504 env3 0;
#X floatatom 28 -57 5 0 0 0 - - -, f 5;
#X floatatom 71 -57 5 0 0 0 - - -, f 5;
#X floatatom 124 -57 5 0 0 0 - - -, f 5;
#X obj 28 112 vline~;
#X obj 6 -84 bng 15 250 50 0 empty m empty 17 7 0 10 -262144 -1 -1
;
#X obj 144 31 / 127;
#X obj 265 245 +;
#X floatatom 265 271 5 0 0 0 - - -, f 5;
#X floatatom 169 -57 5 0 0 0 - - -, f 5;
#X obj 322 216 t b f;
#X obj 28 58 pack f f f f f f;
#X msg 28 85 1 \$2 \, \$4 \$3 \$2 \, 0 \$5 \$6;
#X obj 28 295 pack~ 0 50;
#X obj 28 233 *~;
#X obj 93 263 *~;
#X obj 93 159 tgl 15 0 \$0_fixed3tog \$0_fixed3tog empty 17 7 0 10
-262144 -1 -1 1 1;
#X floatatom 46 208 5 0 0 0 - - -, f 5;
#X floatatom 93 208 5 0 0 0 - - -, f 5;
#X obj 93 181 ==;
#X obj 93 138 bng 15 250 50 0 empty \$0_fixed3 empty 17 7 0 10 -262144
-1 -1;
#X obj 93 112 loadbang;
#X msg 264 90 0.5;
#X msg 264 67 1;
#X floatatom 264 116 5 0 0 0 - - -, f 5;
#X floatatom 265 -57 5 0 0 0 - - -, f 5;
#X floatatom 28 -7 5 0 0 0 - - -, f 5;
#X floatatom 71 -7 5 0 0 0 - - -, f 5;
#X floatatom 169 -7 5 0 0 0 - - -, f 5;
#X obj 28 -32 * 1;
#X obj 169 -32 * 1;
#X obj 265 297 * 1;
#X floatatom 265 322 5 0 0 0 - - -, f 5;
#X obj 264 -33 sel 0 1 2 3 4;
#X msg 264 -3 10;
#X msg 264 21 5;
#X msg 264 44 2;
#X obj 28 263 *~ 1;
#X obj 264 143 t b f;
#X obj 71 -32 * 1;
#X obj 28 -86 r \$0_env3a;
#X obj 108 -86 r \$0_env3d;
#X obj 188 -86 r \$0_env3s;
#X obj 268 -86 r \$0_env3r;
#X obj 312 -58 r \$0_scl3;
#X obj 28 31 s \$0_a3;
#X obj 86 31 s \$0_d3;
#X obj 190 31 r \$0_r3;
#X obj 141 205 r \$0_level3;
#X obj 265 188 r \$0_a3;
#X obj 322 188 r \$0_d3;
#X obj 28 322 s~ \$0_env3;
#X obj 265 346 s \$0_r3;
#X connect 0 0 28 0;
#X connect 1 0 38 0;
#X connect 2 0 5 0;
#X connect 3 0 13 0;
#X connect 4 0 10 0;
#X connect 5 0 10 3;
#X connect 6 0 7 0;
#X connect 7 0 30 0;
#X connect 8 0 29 0;
#X connect 9 0 6 0;
#X connect 9 1 6 1;
#X connect 10 0 11 0;
#X connect 11 0 3 0;
#X connect 12 0 50 0;
#X connect 13 0 36 0;
#X connect 14 0 12 0;
#X connect 15 0 16 0;
#X connect 15 0 18 0;
#X connect 16 0 13 1;
#X connect 17 0 14 0;
#X connect 18 0 17 0;
#X connect 19 0 15 0;
#X connect 20 0 19 0;
#X connect 21 0 23 0;
#X connect 22 0 23 0;
#X connect 23 0 37 0;
#X connect 24 0 32 0;
#X connect 25 0 10 1;
#X connect 25 0 44 0;
#X connect 26 0 10 2;
#X connect 26 0 45 0;
#X connect 27 0 10 4;
#X connect 28 0 25 0;
#X connect 29 0 27 0;
#X connect 30 0 31 0;
#X connect 31 0 51 0;
#X connect 32 0 33 0;
#X connect 32 1 34 0;
#X connect 32 2 35 0;
#X connect 32 3 22 0;
#X connect 32 4 21 0;
#X connect 33 0 23 0;
#X connect 34 0 23 0;
#X connect 35 0 23 0;
#X connect 36 0 12 0;
#X connect 37 0 30 0;
#X connect 37 0 29 0;
#X connect 37 0 38 0;
#X connect 37 0 28 0;
#X connect 37 1 30 1;
#X connect 37 1 29 1;
#X connect 37 1 38 1;
#X connect 37 1 28 1;
#X connect 38 0 26 0;
#X connect 39 0 0 0;
#X connect 40 0 1 0;
#X connect 41 0 2 0;
#X connect 42 0 8 0;
#X connect 43 0 24 0;
#X connect 46 0 10 5;
#X connect 47 0 14 1;
#X connect 47 0 36 1;
#X connect 48 0 6 0;
#X connect 49 0 9 0;
#X restore 9 386 pd env3;
#N canvas 593 23 389 501 env4 0;
#X floatatom 28 -57 5 0 0 0 - - -, f 5;
#X floatatom 71 -57 5 0 0 0 - - -, f 5;
#X floatatom 124 -57 5 0 0 0 - - -, f 5;
#X obj 28 112 vline~;
#X obj 6 -84 bng 15 250 50 0 empty m empty 17 7 0 10 -262144 -1 -1
;
#X obj 144 31 / 127;
#X obj 265 245 +;
#X floatatom 265 271 5 0 0 0 - - -, f 5;
#X floatatom 169 -57 5 0 0 0 - - -, f 5;
#X obj 322 216 t b f;
#X obj 28 58 pack f f f f f f;
#X msg 28 85 1 \$2 \, \$4 \$3 \$2 \, 0 \$5 \$6;
#X obj 28 295 pack~ 0 50;
#X obj 28 233 *~;
#X obj 93 263 *~;
#X obj 93 159 tgl 15 0 \$0_fixed4tog \$0_fixed4tog empty 17 7 0 10
-262144 -1 -1 1 1;
#X floatatom 46 208 5 0 0 0 - - -, f 5;
#X floatatom 93 208 5 0 0 0 - - -, f 5;
#X obj 93 181 ==;
#X obj 93 138 bng 15 250 50 0 empty \$0_fixed4 empty 17 7 0 10 -262144
-1 -1;
#X obj 93 112 loadbang;
#X msg 264 90 0.5;
#X msg 264 67 1;
#X floatatom 264 116 5 0 0 0 - - -, f 5;
#X floatatom 265 -57 5 0 0 0 - - -, f 5;
#X floatatom 28 -7 5 0 0 0 - - -, f 5;
#X floatatom 71 -7 5 0 0 0 - - -, f 5;
#X floatatom 169 -7 5 0 0 0 - - -, f 5;
#X obj 28 -32 * 1;
#X obj 169 -32 * 1;
#X obj 265 297 * 1;
#X floatatom 265 322 5 0 0 0 - - -, f 5;
#X obj 264 -33 sel 0 1 2 3 4;
#X msg 264 -3 10;
#X msg 264 21 5;
#X msg 264 44 2;
#X obj 28 263 *~ 1;
#X obj 264 143 t b f;
#X obj 71 -32 * 1;
#X obj 28 -86 r \$0_env4a;
#X obj 108 -86 r \$0_env4d;
#X obj 188 -86 r \$0_env4s;
#X obj 268 -86 r \$0_env4r;
#X obj 312 -58 r \$0_scl4;
#X obj 28 31 s \$0_a4;
#X obj 86 31 s \$0_d4;
#X obj 190 31 r \$0_r4;
#X obj 265 188 r \$0_a4;
#X obj 322 188 r \$0_d4;
#X obj 141 205 r \$0_level4;
#X obj 28 322 s~ \$0_env4;
#X obj 265 346 s \$0_r4;
#X connect 0 0 28 0;
#X connect 1 0 38 0;
#X connect 2 0 5 0;
#X connect 3 0 13 0;
#X connect 4 0 10 0;
#X connect 5 0 10 3;
#X connect 6 0 7 0;
#X connect 7 0 30 0;
#X connect 8 0 29 0;
#X connect 9 0 6 0;
#X connect 9 1 6 1;
#X connect 10 0 11 0;
#X connect 11 0 3 0;
#X connect 12 0 50 0;
#X connect 13 0 36 0;
#X connect 14 0 12 0;
#X connect 15 0 16 0;
#X connect 15 0 18 0;
#X connect 16 0 13 1;
#X connect 17 0 14 0;
#X connect 18 0 17 0;
#X connect 19 0 15 0;
#X connect 20 0 19 0;
#X connect 21 0 23 0;
#X connect 22 0 23 0;
#X connect 23 0 37 0;
#X connect 24 0 32 0;
#X connect 25 0 10 1;
#X connect 25 0 44 0;
#X connect 26 0 10 2;
#X connect 26 0 45 0;
#X connect 27 0 10 4;
#X connect 28 0 25 0;
#X connect 29 0 27 0;
#X connect 30 0 31 0;
#X connect 31 0 51 0;
#X connect 32 0 33 0;
#X connect 32 1 34 0;
#X connect 32 2 35 0;
#X connect 32 3 22 0;
#X connect 32 4 21 0;
#X connect 33 0 23 0;
#X connect 34 0 23 0;
#X connect 35 0 23 0;
#X connect 36 0 12 0;
#X connect 37 0 30 0;
#X connect 37 0 29 0;
#X connect 37 0 38 0;
#X connect 37 0 28 0;
#X connect 37 1 30 1;
#X connect 37 1 29 1;
#X connect 37 1 38 1;
#X connect 37 1 28 1;
#X connect 38 0 26 0;
#X connect 39 0 0 0;
#X connect 40 0 1 0;
#X connect 41 0 2 0;
#X connect 42 0 8 0;
#X connect 43 0 24 0;
#X connect 46 0 10 5;
#X connect 47 0 6 0;
#X connect 48 0 9 0;
#X connect 49 0 14 1;
#X connect 49 0 36 1;
#X restore 9 412 pd env4;
#N canvas 650 23 348 248 fb1 0;
#X obj 44 124 fexpr~ cos($x1*6.283185+$f2*$y1);
#X obj 44 99 osc~;
#X floatatom 44 1 5 0 0 0 - - -, f 5;
#X obj 16 14 vsl 15 128 0 127 0 0 empty empty empty 0 -9 0 10 -262144
-1 -1 0 1;
#X floatatom 265 99 5 0 0 0 - - -, f 5;
#X obj 44 154 *~;
#X floatatom 122 184 5 0 0 0 - - -, f 5;
#X obj 265 73 int;
#X floatatom 44 75 5 0 0 0 - - -, f 5;
#X obj 44 25 t b f;
#X obj 44 50 +;
#X floatatom 102 50 5 0 0 0 - - -, f 5;
#X obj 102 24 int;
#X obj 44 -24 r \$0_op1;
#X obj 102 -2 r \$0_fbdetune1;
#X obj 265 46 r \$0_fbint1;
#X obj 122 153 r \$0_fbamnt1;
#X obj 44 184 s~ \$0_fb1;
#X connect 0 0 5 0;
#X connect 1 0 0 0;
#X connect 2 0 9 0;
#X connect 4 0 0 1;
#X connect 5 0 17 0;
#X connect 6 0 5 1;
#X connect 7 0 4 0;
#X connect 8 0 1 0;
#X connect 9 0 10 0;
#X connect 9 0 11 0;
#X connect 9 1 10 1;
#X connect 10 0 8 0;
#X connect 11 0 10 0;
#X connect 12 0 11 0;
#X connect 13 0 2 0;
#X connect 14 0 12 0;
#X connect 15 0 7 0;
#X connect 16 0 6 0;
#X restore 9 444 pd fb1;
#N canvas 642 25 382 254 fb2 0;
#X obj 44 134 fexpr~ cos($x1*6.283185+$f2*$y1);
#X obj 44 109 osc~;
#X floatatom 44 11 5 0 0 0 - - -, f 5;
#X obj 16 24 vsl 15 128 0 127 0 0 empty empty empty 0 -9 0 10 -262144
-1 -1 0 1;
#X floatatom 265 109 5 0 0 0 - - -, f 5;
#X obj 44 164 *~;
#X floatatom 122 194 5 0 0 0 - - -, f 5;
#X obj 265 83 int;
#X floatatom 44 85 5 0 0 0 - - -, f 5;
#X obj 44 35 t b f;
#X obj 44 60 +;
#X floatatom 102 60 5 0 0 0 - - -, f 5;
#X obj 102 34 int;
#X obj 44 -14 r \$0_op2;
#X obj 102 8 r \$0_fbdetune2;
#X obj 265 56 r \$0_fbint2;
#X obj 122 163 r \$0_fbamnt2;
#X obj 44 194 s~ \$0_fb2;
#X connect 0 0 5 0;
#X connect 1 0 0 0;
#X connect 2 0 9 0;
#X connect 4 0 0 1;
#X connect 5 0 17 0;
#X connect 6 0 5 1;
#X connect 7 0 4 0;
#X connect 8 0 1 0;
#X connect 9 0 10 0;
#X connect 9 0 11 0;
#X connect 9 1 10 1;
#X connect 10 0 8 0;
#X connect 11 0 10 0;
#X connect 12 0 11 0;
#X connect 13 0 2 0;
#X connect 14 0 12 0;
#X connect 15 0 7 0;
#X connect 16 0 6 0;
#X restore 9 469 pd fb2;
#N canvas 661 98 361 252 fb3 0;
#X obj 44 144 fexpr~ cos($x1*6.283185+$f2*$y1);
#X obj 44 119 osc~;
#X floatatom 44 21 5 0 0 0 - - -, f 5;
#X obj 16 34 vsl 15 128 0 127 0 0 empty empty empty 0 -9 0 10 -262144
-1 -1 0 1;
#X floatatom 265 119 5 0 0 0 - - -, f 5;
#X obj 44 174 *~;
#X floatatom 122 204 5 0 0 0 - - -, f 5;
#X obj 265 93 int;
#X floatatom 44 95 5 0 0 0 - - -, f 5;
#X obj 44 45 t b f;
#X obj 44 70 +;
#X floatatom 102 70 5 0 0 0 - - -, f 5;
#X obj 102 44 int;
#X obj 44 -4 r \$0_op3;
#X obj 102 18 r \$0_fbdetune3;
#X obj 265 66 r \$0_fbint3;
#X obj 122 173 r \$0_fbamnt3;
#X obj 44 204 s~ \$0_fb3;
#X connect 0 0 5 0;
#X connect 1 0 0 0;
#X connect 2 0 9 0;
#X connect 4 0 0 1;
#X connect 5 0 17 0;
#X connect 6 0 5 1;
#X connect 7 0 4 0;
#X connect 8 0 1 0;
#X connect 9 0 10 0;
#X connect 9 0 11 0;
#X connect 9 1 10 1;
#X connect 10 0 8 0;
#X connect 11 0 10 0;
#X connect 12 0 11 0;
#X connect 13 0 2 0;
#X connect 14 0 12 0;
#X connect 15 0 7 0;
#X connect 16 0 6 0;
#X restore 9 494 pd fb3;
#N canvas 699 136 361 252 fb4 0;
#X obj 44 144 fexpr~ cos($x1*6.283185+$f2*$y1);
#X obj 44 119 osc~;
#X floatatom 44 21 5 0 0 0 - - -, f 5;
#X obj 16 34 vsl 15 128 0 127 0 0 empty empty empty 0 -9 0 10 -262144
-1 -1 0 1;
#X floatatom 265 119 5 0 0 0 - - -, f 5;
#X obj 44 174 *~;
#X floatatom 122 204 5 0 0 0 - - -, f 5;
#X obj 265 93 int;
#X floatatom 44 95 5 0 0 0 - - -, f 5;
#X obj 44 45 t b f;
#X obj 44 70 +;
#X floatatom 102 70 5 0 0 0 - - -, f 5;
#X obj 102 44 int;
#X obj 44 -4 r \$0_op4;
#X obj 102 18 r \$0_fbdetune4;
#X obj 265 66 r \$0_fbint4;
#X obj 122 173 r \$0_fbamnt4;
#X obj 44 204 s~ \$0_fb4;
#X connect 0 0 5 0;
#X connect 1 0 0 0;
#X connect 2 0 9 0;
#X connect 4 0 0 1;
#X connect 5 0 17 0;
#X connect 6 0 5 1;
#X connect 7 0 4 0;
#X connect 8 0 1 0;
#X connect 9 0 10 0;
#X connect 9 0 11 0;
#X connect 9 1 10 1;
#X connect 10 0 8 0;
#X connect 11 0 10 0;
#X connect 12 0 11 0;
#X connect 13 0 2 0;
#X connect 14 0 12 0;
#X connect 15 0 7 0;
#X connect 16 0 6 0;
#X restore 9 519 pd fb4;
#N canvas 493 23 172 228 midi 0;
#X obj 20 65 mtof;
#X floatatom 20 90 5 0 0 0 - - -, f 5;
#X floatatom 20 43 5 0 0 0 - - -, f 5;
#X obj 20 20 r \$0_midi_note;
#X obj 20 114 s \$0_note;
#X obj 64 43 r mn;
#X connect 0 0 1 0;
#X connect 1 0 4 0;
#X connect 2 0 0 0;
#X connect 3 0 2 0;
#X connect 5 0 2 0;
#X restore 8 550 pd midi note;
#N canvas 376 140 668 413 op1 0;
#X floatatom 73 100 5 0 0 0 - - -, f 5;
#X floatatom 73 178 5 0 0 0 - - -, f 5;
#X obj 73 155 *;
#X obj 73 122 t b f;
#X obj 143 74 sel 0 1 2 3 4 5 6 7 8 9 10 11 12 13 14 15;
#X msg 143 98 0.5;
#X msg 173 98 1;
#X msg 203 98 2;
#X msg 233 98 3;
#X msg 263 98 4;
#X msg 293 98 5;
#X msg 323 98 6;
#X msg 353 98 7;
#X msg 383 98 8;
#X msg 413 98 9;
#X msg 473 98 11;
#X msg 503 98 12;
#X msg 533 98 13;
#X msg 563 98 14;
#X msg 593 98 15;
#X msg 623 98 16;
#X floatatom 143 51 5 0 0 0 - - -, f 5;
#X obj 143 27 int;
#X floatatom 143 123 5 0 0 0 - - -, f 5;
#X msg 443 98 10;
#X floatatom 73 249 5 0 0 0 - - -, f 5;
#X obj 37 77 vsl 15 128 0 2 0 0 op1f empty empty 0 -9 0 10 -262144
-1 -1 0 1;
#X obj 73 201 t b f;
#X obj 73 225 +;
#X obj 13 24 loadbang;
#X msg 13 49 1;
#X obj 13 77 vsl 15 128 0 16 0 0 op1c op1c empty 0 -9 0 10 -262144
-1 -1 794 1;
#N canvas 580 23 1090 699 lfo1 0;
#X obj 64 698 *;
#X obj 20 -89 loadbang;
#X msg 111 -38 bang;
#X obj 64 723 outlet;
#X obj 107 115 hsl 128 10 0.01 10 1 1 empty LFOspd frq 0 5 0 10 -262144
-1 -1 5347 1;
#X obj 107 139 hsl 128 10 0 1 0 1 empty LFOamt am 0 5 0 10 -262144
-1 -1 0 1;
#X obj 92 -4 metro 5;
#X obj 2 37 float;
#X obj 9 115 + 1;
#X obj 59 83 / 200;
#X obj 44 51 wrap;
#X obj 9 536 cos;
#X obj 8 502 * 6.28319;
#X obj 120 -85 inlet;
#X text 124 -106 sync;
#X obj 61 672 * 64;
#X msg 147 -37 0;
#X obj 218 230 -;
#X obj 210 182 t b f;
#X msg 211 208 1;
#X obj 143 215 / 2;
#X obj 142 241 + 0.5;
#X msg 235 336 1;
#X obj 237 312 t b f;
#X text 64 315 m;
#X obj 249 362 -;
#X obj 262 386 /;
#X msg 298 288 1;
#X obj 300 264 t b f;
#X obj 318 316 -;
#X text 131 269 x1;
#X obj 220 273 *;
#X text 249 275 y1;
#X text 269 414 m2;
#X text 151 373 b2;
#X text 217 342 ak;
#X text 340 301 gk;
#X obj 197 158 clip 0 0.99;
#X text 41 195 9 klasse geometrie...;
#X obj 8 167 t f f;
#X obj 17 275 clip 0 0.5;
#X obj 128 298 clip 0.5 1;
#X obj 33 322 *;
#X obj 125 371 -;
#X obj 165 419 *;
#X obj 107 445 +;
#X obj 107 127 hsl 128 10 0 1 0 1 empty empty geo 0 5 0 10 -262144
-1 -1 0 1;
#X obj 225 102 bng 12 250 50 0 empty empty empty 17 7 0 10 -262144
-1 -1;
#X text 242 102 start;
#X obj 114 -62 t b b;
#X obj 185 102 hradio 12 1 1 3 empty empty s_s_p 2 5 0 10 -262144 -1
-128992 0;
#X obj 113 500 * 2;
#X obj 113 523 - 1;
#X obj 163 501 >= 0.5;
#X obj 164 533 * 2;
#X obj 164 556 - 1;
#X obj 56 564 *;
#X obj 57 535 == 0;
#X obj 100 571 *;
#X obj 119 549 == 1;
#X obj 171 601 *;
#X obj 190 579 == 2;
#X obj 89 470 t f f f;
#X obj 106 618 +;
#X obj 80 647 +;
#X connect 0 0 3 0;
#X connect 1 0 49 0;
#X connect 2 0 6 0;
#X connect 4 0 9 0;
#X connect 5 0 0 1;
#X connect 6 0 7 0;
#X connect 7 0 8 0;
#X connect 8 0 10 0;
#X connect 8 0 39 0;
#X connect 9 0 8 1;
#X connect 10 0 7 1;
#X connect 11 0 56 0;
#X connect 12 0 11 0;
#X connect 13 0 49 0;
#X connect 15 0 0 0;
#X connect 16 0 7 1;
#X connect 17 0 31 1;
#X connect 17 0 42 1;
#X connect 18 0 19 0;
#X connect 18 1 17 1;
#X connect 19 0 17 0;
#X connect 20 0 21 0;
#X connect 21 0 28 0;
#X connect 21 0 31 0;
#X connect 21 0 40 2;
#X connect 21 0 41 1;
#X connect 21 0 43 1;
#X connect 22 0 25 0;
#X connect 23 0 22 0;
#X connect 23 1 25 1;
#X connect 25 0 26 0;
#X connect 26 0 44 1;
#X connect 27 0 29 0;
#X connect 28 0 27 0;
#X connect 28 1 29 1;
#X connect 29 0 26 1;
#X connect 31 0 23 0;
#X connect 37 0 18 0;
#X connect 37 0 20 0;
#X connect 39 0 40 0;
#X connect 39 1 41 0;
#X connect 40 0 42 0;
#X connect 41 0 43 0;
#X connect 42 0 45 0;
#X connect 43 0 44 0;
#X connect 44 0 45 1;
#X connect 45 0 62 0;
#X connect 46 0 37 0;
#X connect 47 0 2 0;
#X connect 49 0 2 0;
#X connect 49 1 16 0;
#X connect 50 0 57 0;
#X connect 50 0 59 0;
#X connect 50 0 61 0;
#X connect 51 0 52 0;
#X connect 52 0 58 0;
#X connect 53 0 54 0;
#X connect 54 0 55 0;
#X connect 55 0 60 0;
#X connect 56 0 64 0;
#X connect 57 0 56 1;
#X connect 58 0 63 0;
#X connect 59 0 58 1;
#X connect 60 0 63 1;
#X connect 61 0 60 1;
#X connect 62 0 12 0;
#X connect 62 1 51 0;
#X connect 62 2 53 0;
#X connect 63 0 64 1;
#X connect 64 0 15 0;
#X coords 0 -1 1 1 140 50 1 100 100;
#X restore 171 346 pd lfo1;
#X obj 171 319 r m;
#X floatatom 105 299 5 0 0 0 - - -, f 5;
#X obj 74 299 +;
#X floatatom 74 325 5 0 0 0 - - -, f 5;
#X obj 73 274 t b f;
#X obj 394 194 int;
#X obj 394 221 / 100;
#X floatatom 394 248 5 0 0 0 - - -, f 5;
#X floatatom 118 178 5 0 0 0 - - -, f 5;
#X floatatom 208 178 5 0 0 0 - - -, f 5;
#X obj 118 154 / 100;
#X obj 118 226 *;
#X floatatom 118 249 5 0 0 0 - - -, f 5;
#X obj 163 178 t b f;
#X obj 143 4 r \$0_op1c;
#X obj 73 76 r \$0_note;
#X obj 208 153 r \$0_1f;
#X obj 74 350 s \$0_op1;
#X obj 394 167 r \$0_op1fmini;
#X connect 0 0 3 0;
#X connect 1 0 27 0;
#X connect 1 0 43 0;
#X connect 2 0 1 0;
#X connect 3 0 2 0;
#X connect 3 1 2 1;
#X connect 4 0 5 0;
#X connect 4 1 6 0;
#X connect 4 2 7 0;
#X connect 4 3 8 0;
#X connect 4 4 9 0;
#X connect 4 5 10 0;
#X connect 4 6 11 0;
#X connect 4 7 12 0;
#X connect 4 8 13 0;
#X connect 4 9 14 0;
#X connect 4 10 24 0;
#X connect 4 11 15 0;
#X connect 4 12 16 0;
#X connect 4 13 17 0;
#X connect 4 14 18 0;
#X connect 4 15 19 0;
#X connect 4 16 20 0;
#X connect 5 0 23 0;
#X connect 6 0 23 0;
#X connect 7 0 23 0;
#X connect 8 0 23 0;
#X connect 9 0 23 0;
#X connect 10 0 23 0;
#X connect 11 0 23 0;
#X connect 12 0 23 0;
#X connect 13 0 23 0;
#X connect 14 0 23 0;
#X connect 15 0 23 0;
#X connect 16 0 23 0;
#X connect 17 0 23 0;
#X connect 18 0 23 0;
#X connect 19 0 23 0;
#X connect 20 0 23 0;
#X connect 21 0 4 0;
#X connect 22 0 21 0;
#X connect 23 0 2 0;
#X connect 24 0 23 0;
#X connect 25 0 37 0;
#X connect 27 0 28 0;
#X connect 27 1 28 1;
#X connect 28 0 25 0;
#X connect 29 0 30 0;
#X connect 30 0 31 0;
#X connect 30 0 21 0;
#X connect 32 0 34 0;
#X connect 33 0 32 0;
#X connect 34 0 35 0;
#X connect 35 0 36 0;
#X connect 36 0 50 0;
#X connect 37 0 35 0;
#X connect 37 1 35 1;
#X connect 38 0 39 0;
#X connect 39 0 40 0;
#X connect 41 0 44 0;
#X connect 42 0 46 0;
#X connect 43 0 41 0;
#X connect 44 0 45 0;
#X connect 45 0 28 0;
#X connect 46 0 44 0;
#X connect 46 1 44 1;
#X connect 47 0 22 0;
#X connect 48 0 0 0;
#X connect 49 0 42 0;
#X connect 51 0 38 0;
#X restore 8 573 pd op1;
#N canvas 597 23 646 331 op2 0;
#X floatatom 65 108 5 0 0 0 - - -, f 5;
#X floatatom 65 183 5 0 0 0 - - -, f 5;
#X obj 65 160 *;
#X obj 13 84 vsl 15 128 0 16 0 0 op2c course1 empty 0 -9 0 10 -262144
-1 -1 794 1;
#X obj 65 130 t b f;
#X obj 135 82 sel 0 1 2 3 4 5 6 7 8 9 10 11 12 13 14 15;
#X msg 135 106 0.5;
#X msg 165 106 1;
#X msg 195 106 2;
#X msg 225 106 3;
#X msg 255 106 4;
#X msg 285 106 5;
#X msg 315 106 6;
#X msg 345 106 7;
#X msg 375 106 8;
#X msg 405 106 9;
#X msg 465 106 11;
#X msg 495 106 12;
#X msg 525 106 13;
#X msg 555 106 14;
#X msg 585 106 15;
#X msg 615 106 16;
#X floatatom 135 59 5 0 0 0 - - -, f 5;
#X obj 135 35 int;
#X floatatom 135 131 5 0 0 0 - - -, f 5;
#X msg 435 106 10;
#X floatatom 65 254 5 0 0 0 - - -, f 5;
#X obj 37 84 vsl 15 128 0 2 0 0 op2f op2f empty 0 -9 0 10 -262144 -1
-1 0 1;
#X obj 65 206 t b f;
#X obj 65 230 +;
#X obj 13 30 loadbang;
#X msg 13 55 1;
#X floatatom 115 183 5 0 0 0 - - -, f 5;
#X floatatom 205 183 5 0 0 0 - - -, f 5;
#X obj 115 159 / 100;
#X obj 115 231 *;
#X floatatom 115 254 5 0 0 0 - - -, f 5;
#X obj 160 183 t b f;
#X obj 135 11 r \$0_op2c;
#X obj 65 84 r \$0_note;
#X obj 205 158 r \$0_2f;
#X obj 65 277 s \$0_op2;
#X connect 0 0 4 0;
#X connect 1 0 28 0;
#X connect 1 0 34 0;
#X connect 2 0 1 0;
#X connect 4 0 2 0;
#X connect 4 1 2 1;
#X connect 5 0 6 0;
#X connect 5 1 7 0;
#X connect 5 2 8 0;
#X connect 5 3 9 0;
#X connect 5 4 10 0;
#X connect 5 5 11 0;
#X connect 5 6 12 0;
#X connect 5 7 13 0;
#X connect 5 8 14 0;
#X connect 5 9 15 0;
#X connect 5 10 25 0;
#X connect 5 11 16 0;
#X connect 5 12 17 0;
#X connect 5 13 18 0;
#X connect 5 14 19 0;
#X connect 5 15 20 0;
#X connect 5 16 21 0;
#X connect 6 0 24 0;
#X connect 7 0 24 0;
#X connect 8 0 24 0;
#X connect 9 0 24 0;
#X connect 10 0 24 0;
#X connect 11 0 24 0;
#X connect 12 0 24 0;
#X connect 13 0 24 0;
#X connect 14 0 24 0;
#X connect 15 0 24 0;
#X connect 16 0 24 0;
#X connect 17 0 24 0;
#X connect 18 0 24 0;
#X connect 19 0 24 0;
#X connect 20 0 24 0;
#X connect 21 0 24 0;
#X connect 22 0 5 0;
#X connect 23 0 22 0;
#X connect 24 0 2 0;
#X connect 25 0 24 0;
#X connect 26 0 41 0;
#X connect 28 0 29 0;
#X connect 28 1 29 1;
#X connect 29 0 26 0;
#X connect 30 0 31 0;
#X connect 31 0 3 0;
#X connect 32 0 35 0;
#X connect 33 0 37 0;
#X connect 34 0 32 0;
#X connect 35 0 36 0;
#X connect 36 0 29 0;
#X connect 37 0 35 0;
#X connect 37 1 35 1;
#X connect 38 0 23 0;
#X connect 39 0 0 0;
#X connect 40 0 33 0;
#X restore 8 595 pd op2;
#N canvas 594 354 669 302 op3 0;
#X floatatom 64 108 5 0 0 0 - - -, f 5;
#X floatatom 64 183 5 0 0 0 - - -, f 5;
#X obj 64 160 *;
#X obj 13 86 vsl 15 128 0 16 0 0 empty op3c empty 0 -9 0 10 -262144
-1 -1 794 1;
#X obj 64 130 t b f;
#X obj 134 82 sel 0 1 2 3 4 5 6 7 8 9 10 11 12 13 14 15;
#X msg 134 106 0.5;
#X msg 164 106 1;
#X msg 194 106 2;
#X msg 224 106 3;
#X msg 254 106 4;
#X msg 284 106 5;
#X msg 314 106 6;
#X msg 344 106 7;
#X msg 374 106 8;
#X msg 404 106 9;
#X msg 464 106 11;
#X msg 494 106 12;
#X msg 524 106 13;
#X msg 554 106 14;
#X msg 584 106 15;
#X msg 614 106 16;
#X floatatom 134 59 5 0 0 0 - - -, f 5;
#X obj 134 35 int;
#X floatatom 134 131 5 0 0 0 - - -, f 5;
#X msg 434 106 10;
#X floatatom 64 254 5 0 0 0 - - -, f 5;
#X obj 37 86 vsl 15 128 0 2 0 0 op3f op3f empty 0 -9 0 10 -262144 -1
-1 0 1;
#X obj 64 206 t b f;
#X obj 64 230 +;
#X obj 13 32 loadbang;
#X msg 13 57 1;
#X floatatom 114 183 5 0 0 0 - - -, f 5;
#X floatatom 204 183 5 0 0 0 - - -, f 5;
#X obj 114 159 / 100;
#X obj 114 231 *;
#X floatatom 114 254 5 0 0 0 - - -, f 5;
#X obj 159 183 t b f;
#X obj 134 11 r \$0_op3c;
#X obj 64 84 r \$0_note;
#X obj 204 158 r \$0_3f;
#X obj 64 277 s \$0_op3;
#X connect 0 0 4 0;
#X connect 1 0 28 0;
#X connect 1 0 34 0;
#X connect 2 0 1 0;
#X connect 4 0 2 0;
#X connect 4 1 2 1;
#X connect 5 0 6 0;
#X connect 5 1 7 0;
#X connect 5 2 8 0;
#X connect 5 3 9 0;
#X connect 5 4 10 0;
#X connect 5 5 11 0;
#X connect 5 6 12 0;
#X connect 5 7 13 0;
#X connect 5 8 14 0;
#X connect 5 9 15 0;
#X connect 5 10 25 0;
#X connect 5 11 16 0;
#X connect 5 12 17 0;
#X connect 5 13 18 0;
#X connect 5 14 19 0;
#X connect 5 15 20 0;
#X connect 5 16 21 0;
#X connect 6 0 24 0;
#X connect 7 0 24 0;
#X connect 8 0 24 0;
#X connect 9 0 24 0;
#X connect 10 0 24 0;
#X connect 11 0 24 0;
#X connect 12 0 24 0;
#X connect 13 0 24 0;
#X connect 14 0 24 0;
#X connect 15 0 24 0;
#X connect 16 0 24 0;
#X connect 17 0 24 0;
#X connect 18 0 24 0;
#X connect 19 0 24 0;
#X connect 20 0 24 0;
#X connect 21 0 24 0;
#X connect 22 0 5 0;
#X connect 23 0 22 0;
#X connect 24 0 2 0;
#X connect 25 0 24 0;
#X connect 26 0 41 0;
#X connect 28 0 29 0;
#X connect 28 1 29 1;
#X connect 29 0 26 0;
#X connect 30 0 31 0;
#X connect 31 0 3 0;
#X connect 31 0 22 0;
#X connect 32 0 35 0;
#X connect 33 0 37 0;
#X connect 34 0 32 0;
#X connect 35 0 36 0;
#X connect 36 0 29 0;
#X connect 37 0 35 0;
#X connect 37 1 35 1;
#X connect 38 0 23 0;
#X connect 39 0 0 0;
#X connect 40 0 33 0;
#X restore 8 617 pd op3;
#N canvas 594 354 662 325 op4 0;
#X floatatom 64 108 5 0 0 0 - - -, f 5;
#X floatatom 64 183 5 0 0 0 - - -, f 5;
#X obj 64 160 *;
#X obj 13 86 vsl 15 128 0 16 0 0 empty op3c empty 0 -9 0 10 -262144
-1 -1 794 1;
#X obj 64 130 t b f;
#X obj 134 82 sel 0 1 2 3 4 5 6 7 8 9 10 11 12 13 14 15;
#X msg 134 106 0.5;
#X msg 164 106 1;
#X msg 194 106 2;
#X msg 224 106 3;
#X msg 254 106 4;
#X msg 284 106 5;
#X msg 314 106 6;
#X msg 344 106 7;
#X msg 374 106 8;
#X msg 404 106 9;
#X msg 464 106 11;
#X msg 494 106 12;
#X msg 524 106 13;
#X msg 554 106 14;
#X msg 584 106 15;
#X msg 614 106 16;
#X floatatom 134 59 5 0 0 0 - - -, f 5;
#X obj 134 35 int;
#X floatatom 134 131 5 0 0 0 - - -, f 5;
#X msg 434 106 10;
#X floatatom 64 254 5 0 0 0 - - -, f 5;
#X obj 37 86 vsl 15 128 0 2 0 0 op3f op3f empty 0 -9 0 10 -262144 -1
-1 0 1;
#X obj 64 206 t b f;
#X obj 64 230 +;
#X obj 13 32 loadbang;
#X msg 13 57 1;
#X floatatom 114 183 5 0 0 0 - - -, f 5;
#X floatatom 204 183 5 0 0 0 - - -, f 5;
#X obj 114 159 / 100;
#X obj 114 231 *;
#X floatatom 114 254 5 0 0 0 - - -, f 5;
#X obj 159 183 t b f;
#X obj 134 11 r \$0_op4c;
#X obj 64 84 r \$0_note;
#X obj 204 158 r \$0_4f;
#X obj 64 277 s \$0_op4;
#X connect 0 0 4 0;
#X connect 1 0 28 0;
#X connect 1 0 34 0;
#X connect 2 0 1 0;
#X connect 4 0 2 0;
#X connect 4 1 2 1;
#X connect 5 0 6 0;
#X connect 5 1 7 0;
#X connect 5 2 8 0;
#X connect 5 3 9 0;
#X connect 5 4 10 0;
#X connect 5 5 11 0;
#X connect 5 6 12 0;
#X connect 5 7 13 0;
#X connect 5 8 14 0;
#X connect 5 9 15 0;
#X connect 5 10 25 0;
#X connect 5 11 16 0;
#X connect 5 12 17 0;
#X connect 5 13 18 0;
#X connect 5 14 19 0;
#X connect 5 15 20 0;
#X connect 5 16 21 0;
#X connect 6 0 24 0;
#X connect 7 0 24 0;
#X connect 8 0 24 0;
#X connect 9 0 24 0;
#X connect 10 0 24 0;
#X connect 11 0 24 0;
#X connect 12 0 24 0;
#X connect 13 0 24 0;
#X connect 14 0 24 0;
#X connect 15 0 24 0;
#X connect 16 0 24 0;
#X connect 17 0 24 0;
#X connect 18 0 24 0;
#X connect 19 0 24 0;
#X connect 20 0 24 0;
#X connect 21 0 24 0;
#X connect 22 0 5 0;
#X connect 23 0 22 0;
#X connect 24 0 2 0;
#X connect 25 0 24 0;
#X connect 26 0 41 0;
#X connect 28 0 29 0;
#X connect 28 1 29 1;
#X connect 29 0 26 0;
#X connect 30 0 31 0;
#X connect 31 0 3 0;
#X connect 31 0 22 0;
#X connect 32 0 35 0;
#X connect 33 0 37 0;
#X connect 34 0 32 0;
#X connect 35 0 36 0;
#X connect 36 0 29 0;
#X connect 37 0 35 0;
#X connect 37 1 35 1;
#X connect 38 0 23 0;
#X connect 39 0 0 0;
#X connect 40 0 33 0;
#X restore 8 639 pd op4;
#N canvas 761 274 386 187 opbox 0;
#X obj 194 66 -;
#X floatatom 194 118 5 0 0 0 - - -, f 5;
#X obj 194 92 * -1;
#X obj 194 40 17 \$1;
#X obj 104 66 -;
#X floatatom 104 118 5 0 0 0 - - -, f 5;
#X obj 104 92 * -1;
#X obj 104 40 17 \$1;
#X obj 14 66 -;
#X floatatom 14 118 5 0 0 0 - - -, f 5;
#X obj 14 92 * -1;
#X obj 14 40 17 \$1;
#X obj 284 66 -;
#X floatatom 284 118 5 0 0 0 - - -, f 5;
#X obj 284 92 * -1;
#X obj 284 40 17 \$1;
#X obj 14 13 r \$0_op1c;
#X obj 14 144 s \$0_opbox1;
#X obj 104 13 r \$0_op2c;
#X obj 104 144 s \$0_opbox2;
#X obj 194 13 r \$0_op3c;
#X obj 194 144 s \$0_opbox3;
#X obj 284 13 r \$0_op4c;
#X obj 284 144 s \$0_opbox4;
#X connect 0 0 2 0;
#X connect 1 0 21 0;
#X connect 2 0 1 0;
#X connect 3 0 0 0;
#X connect 4 0 6 0;
#X connect 5 0 19 0;
#X connect 6 0 5 0;
#X connect 7 0 4 0;
#X connect 8 0 10 0;
#X connect 9 0 17 0;
#X connect 10 0 9 0;
#X connect 11 0 8 0;
#X connect 12 0 14 0;
#X connect 13 0 23 0;
#X connect 14 0 13 0;
#X connect 15 0 12 0;
#X connect 16 0 11 0;
#X connect 18 0 7 0;
#X connect 20 0 3 0;
#X connect 22 0 15 0;
#X restore 8 674 pd opbox;
#X obj 19 34 metro 40;
#X connect 0 0 32 0;
#X connect 1 0 0 0;
#X connect 2 0 3 0;
#X connect 3 0 33 0;
#X connect 4 0 22 0;
#X connect 6 0 5 1;
#X connect 7 0 6 1;
#X connect 8 0 9 0;
#X connect 9 0 34 0;
#X connect 16 0 17 0;
#X connect 18 0 54 0;
#X connect 22 0 23 0;
#X connect 23 0 5 0;
#X connect 23 0 6 0;
#X connect 26 0 27 0;
#X connect 27 0 35 0;
#X connect 28 0 1 0;
#X connect 29 0 2 0;
#X connect 30 0 8 0;
#X connect 31 0 26 0;
#X connect 36 0 4 0;
#X connect 37 0 23 1;
#X connect 38 0 16 0;
#X connect 54 0 16 0;
#X restore 7 42 pd wires;
#N canvas 112 129 578 298 ideas 0;
#X text 11 7 Global envelope;
#X text 11 47 Random on trigger and amount;
#X text 11 67 Envelope scaling;
#X text 11 27 Trigger matrix - attach to global \, lfo \, random \,
2nd sequence;
#X restore 7 65 pd ideas;
#N canvas 453 29 450 346 presets 0;
#X obj 144 42 bng 15 250 50 0 empty empty empty 17 7 0 10 -262144 -1
-1;
#X obj 144 65 pack \$0;
#X obj 268 65 pack \$0;
#X obj 268 42 bng 15 250 50 0 empty empty empty 17 7 0 10 -262144 -1
-1;
#X obj 144 14 inlet;
#X obj 268 14 inlet;
#X obj 9 93 snapshot~;
#X floatatom 9 120 5 0 0 0 - - -, f 5;
#X obj 19 44 loadbang;
#X obj 9 15 r~ \$0_env1;
#X obj 19 67 metro 40;
#X obj 9 145 outlet;
#X obj 386 65 pack \$0;
#X obj 386 42 bng 15 250 50 0 empty empty empty 17 7 0 10 -262144 -1
-1;
#X obj 386 14 inlet;
#X msg 144 94 \; \$1_mn 18 \; \$1_hp 600 \; \$1_algo 2 \; \$1_LFOs
4 \; \$1_LFOa 0 \; \$1_e1a 0 \; \$1_e1d 3000 \; \$1_e1s 0 \; \$1_e1r
0 \;;
#X msg 268 94 \; \$1_mn 48 \; \$1_hp 600 \; \$1_algo 3 \; \$1_LFOs
4 \; \$1_LFOa 0 \; \$1_e1a 2000 \; \$1_e1d 2000 \; \$1_e1s 0 \; \$1_e1r
0 \;;
#X msg 386 94 \; \$1_mn 12 \; \$1_hp 600 \; \$1_algo 0 \; \$1_LFOs
4 \; \$1_LFOa 0 \; \$1_e1a 1000 \; \$1_e1d 1000 \; \$1_e1s 0.7 \; \$1_e1r
2000 \;;
#X connect 0 0 1 0;
#X connect 1 0 15 0;
#X connect 2 0 16 0;
#X connect 3 0 2 0;
#X connect 4 0 0 0;
#X connect 5 0 3 0;
#X connect 6 0 7 0;
#X connect 7 0 11 0;
#X connect 8 0 10 0;
#X connect 9 0 6 0;
#X connect 10 0 6 0;
#X connect 12 0 17 0;
#X connect 13 0 12 0;
#X connect 14 0 13 0;
#X restore 7 -10 pd presets;
#X obj 7 -36 inlet;
#X obj 52 -36 inlet;
#X obj 527 573 hsl 128 15 -13 13 0 0 \$0_fbdetune1 empty empty -2 -8
0 10 -262144 -1 -1 0 1;
#X obj 527 528 hsl 128 15 0 10 0 0 \$0_fbint1 empty empty -2 -8 0 10
-262144 -1 -1 0 1;
#X obj 465 462 vsl 15 128 0.01 1 1 0 \$0_level1 empty empty 0 -9 0
10 -262144 -1 -1 0 1;
#X obj 527 483 hsl 128 15 0.01 1 1 0 \$0_fbamnt1 empty empty -2 -8
0 10 -262144 -1 -1 0 1;
#X obj 175 462 vsl 15 128 0 50 0 0 empty empty empty 0 -9 0 10 -262144
-1 -1 0 1;
#X obj 175 302 vsl 15 128 0 50 0 0 empty empty empty 0 -9 0 10 -262144
-1 -1 0 1;
#X obj 175 142 vsl 15 128 0 50 0 0 empty empty empty 0 -9 0 10 -262144
-1 -1 0 1;
#X obj 175 -20 vsl 15 128 0 50 0 0 empty empty empty 0 -9 0 10 -262144
-1 -1 0 1;
#X text 515 301 Feedback;
#X text 524 345 Index;
#X text 520 388 Detune;
#X obj 528 413 hsl 128 15 -13 13 0 0 \$0_fbdetune2 empty empty -2 -8
0 10 -262144 -1 -1 0 1;
#X obj 528 368 hsl 128 15 0 10 0 0 \$0_fbint2 empty empty -2 -8 0 10
-262144 -1 -1 0 1;
#X obj 528 323 hsl 128 15 0.01 1 1 0 \$0_fbamnt2 empty empty -2 -8
0 10 -262144 -1 -1 0 1;
#X text 515 141 Feedback;
#X text 524 185 Index;
#X text 520 228 Detune;
#X obj 528 253 hsl 128 15 -13 13 0 0 \$0_fbdetune3 empty empty -2 -8
0 10 -262144 -1 -1 0 1;
#X obj 528 208 hsl 128 15 0 10 0 0 \$0_fbint3 empty empty -2 -8 0 10
-262144 -1 -1 0 1;
#X obj 528 163 hsl 128 15 0.01 1 1 0 \$0_fbamnt3 empty empty -2 -8
0 10 -262144 -1 -1 0 1;
#X text 516 -19 Feedback;
#X text 525 25 Index;
#X text 521 68 Detune;
#X obj 529 93 hsl 128 15 -13 13 0 0 \$0_fbdetune4 empty empty -2 -8
0 10 -262144 -1 -1 0 1;
#X obj 529 48 hsl 128 15 0 10 0 0 \$0_fbint4 empty empty -2 -8 0 10
-262144 -1 -1 0 1;
#X obj 529 3 hsl 128 15 0.01 1 1 0 \$0_fbamnt4 empty empty -2 -8 0
10 -262144 -1 -1 0 1;
#X obj 465 302 vsl 15 128 0.01 1 1 0 \$0_level2 empty empty 0 -9 0
10 -262144 -1 -1 0 1;
#X obj 465 142 vsl 15 128 0.01 1 1 0 \$0_level3 empty empty 0 -9 0
10 -262144 -1 -1 0 1;
#X obj 465 -20 vsl 15 128 0.01 1 1 0 \$0_level4 empty empty 0 -9 0
10 -262144 -1 -1 0 1;
#X obj 9 327 vsl 15 128 0.01 10 1 0 \$0_LFOspd \$0_LFOs empty 0 -9
0 10 -262144 -1 -1 11015 1;
#X obj 42 327 vsl 15 128 0 127 0 0 \$0_LFOamt empty empty 0 -9 0 10
-262144 -1 -1 0 1;
#X obj 7 16 outlet;
#X obj 97 -35 inlet;
#X connect 38 0 39 0;
#X connect 41 0 60 0;
#X connect 42 0 59 0;
#X connect 43 0 58 0;
#X connect 55 0 57 0;
#X connect 63 0 97 0;
#X connect 64 0 63 0;
#X connect 65 0 63 1;
#X connect 70 0 41 0;
#X connect 71 0 42 0;
#X connect 72 0 43 0;
#X connect 73 0 55 0;
#X connect 98 0 63 2;
