#N canvas 0 23 104 89 12;
#X declare -lib mrpeach;
#N canvas 25 23 479 735 wires 1;
#X obj 144 383 phasor~;
#X floatatom 144 359 5 0 0 0 - - -;
#X floatatom 261 359 5 0 0 0 - - -;
#X obj 261 383 osc~;
#X obj 261 489 *~;
#X obj 144 437 +~;
#X obj 144 462 cos~;
#X obj 144 551 *~ 0.5;
#X obj 18 81 s m;
#X obj 144 523 *~;
#X obj 144 651 dac~;
#X obj 169 616 delay~ \$1;
#X floatatom 246 597 5 0 0 0 - - -;
#X obj 162 495 r~ env1;
#N canvas 851 23 378 568 env1 0;
#X floatatom 33 99 5 0 0 0 - - -;
#X floatatom 76 99 5 0 0 0 - - -;
#X floatatom 129 99 5 0 0 0 - - -;
#X obj 33 268 vline~;
#X obj 8 -85 bng 15 250 50 0 empty m empty 17 7 0 10 -262144 -1 -1
;
#X obj 129 187 / 127;
#X obj 33 478 s~ env1;
#X obj 31 -55 vsl 15 128 0 4000 0 0 env1a env1a empty 0 -9 0 10 -262144
-1 -1 0 1;
#X obj 55 -55 vsl 15 128 0 4000 0 0 env1d env1d empty 0 -9 0 10 -262144
-1 -1 8900 1;
#X obj 80 -55 vsl 15 128 0 127 0 0 env1s env1s empty 0 -9 0 10 -262144
-1 -1 0 1;
#X obj 104 -55 vsl 15 128 0 4000 0 0 env1r env1r empty 0 -9 0 10 -262144
-1 -1 0 1;
#X obj 140 -29 +;
#X floatatom 140 -3 5 0 0 0 - - -;
#X floatatom 174 99 5 0 0 0 - - -;
#X obj 177 -58 t b f;
#X obj 33 214 pack f f f f f f;
#X msg 33 241 1 \$2 \, \$4 \$3 \$2 \, 0 \$5 \$6;
#X obj 175 187 r r1;
#X obj 51 187 s a1;
#X obj 140 -86 r a1;
#X obj 177 -86 r d1;
#X obj 91 187 s d1;
#X obj 33 451 pack~ 0 50;
#X obj 33 389 *~;
#X obj 98 419 *~;
#X obj 98 315 tgl 15 0 fixed1tog fixed1tog empty 17 7 0 10 -262144
-1 -1 1 1;
#X floatatom 51 364 5 0 0 0 - - -;
#X floatatom 98 364 5 0 0 0 - - -;
#X obj 98 337 ==;
#X obj 98 294 bng 15 250 50 0 empty fixed1 empty 17 7 0 10 -262144
-1 -1;
#X obj 98 268 loadbang;
#X obj 146 391 r level1;
#X msg 229 73 0.5;
#X msg 229 50 1;
#X floatatom 229 99 5 0 0 0 - - -;
#X obj 277 -75 r scl1;
#X floatatom 230 -74 5 0 0 0 - - -;
#X obj 140 72 s r1;
#X floatatom 33 149 5 0 0 0 - - -;
#X floatatom 76 149 5 0 0 0 - - -;
#X floatatom 174 149 5 0 0 0 - - -;
#X obj 33 124 * 1;
#X obj 174 124 * 1;
#X obj 76 124 * 1;
#X obj 140 23 * 1;
#X floatatom 140 48 5 0 0 0 - - -;
#X obj 229 -50 sel 0 1 2 3 4;
#X msg 229 -20 10;
#X msg 229 4 5;
#X msg 229 27 2;
#X obj 33 420 *~ 1;
#X obj 289 32 loadbang;
#X msg 289 61 2000;
#X msg 260 294 0.9;
#X connect 0 0 41 0;
#X connect 1 0 43 0;
#X connect 2 0 5 0;
#X connect 3 0 23 0;
#X connect 4 0 7 0;
#X connect 4 0 8 0;
#X connect 4 0 9 0;
#X connect 4 0 10 0;
#X connect 4 0 15 0;
#X connect 5 0 15 3;
#X connect 7 0 0 0;
#X connect 8 0 1 0;
#X connect 9 0 2 0;
#X connect 10 0 13 0;
#X connect 11 0 12 0;
#X connect 12 0 44 0;
#X connect 13 0 42 0;
#X connect 14 0 11 0;
#X connect 14 1 11 1;
#X connect 15 0 16 0;
#X connect 16 0 3 0;
#X connect 17 0 15 5;
#X connect 19 0 11 0;
#X connect 20 0 14 0;
#X connect 22 0 6 0;
#X connect 23 0 50 0;
#X connect 24 0 22 0;
#X connect 25 0 26 0;
#X connect 25 0 28 0;
#X connect 26 0 23 1;
#X connect 27 0 24 0;
#X connect 28 0 27 0;
#X connect 29 0 25 0;
#X connect 30 0 29 0;
#X connect 31 0 24 1;
#X connect 31 0 50 1;
#X connect 32 0 34 0;
#X connect 33 0 34 0;
#X connect 34 0 41 1;
#X connect 34 0 42 1;
#X connect 34 0 43 1;
#X connect 34 0 44 1;
#X connect 35 0 36 0;
#X connect 36 0 46 0;
#X connect 38 0 18 0;
#X connect 38 0 15 1;
#X connect 39 0 21 0;
#X connect 39 0 15 2;
#X connect 40 0 15 4;
#X connect 41 0 38 0;
#X connect 42 0 40 0;
#X connect 43 0 39 0;
#X connect 44 0 45 0;
#X connect 45 0 37 0;
#X connect 46 0 47 0;
#X connect 46 1 48 0;
#X connect 46 2 49 0;
#X connect 46 3 33 0;
#X connect 46 4 32 0;
#X connect 47 0 34 0;
#X connect 48 0 34 0;
#X connect 49 0 34 0;
#X connect 50 0 22 0;
#X connect 51 0 52 0;
#X connect 51 0 33 0;
#X connect 51 0 53 0;
#X connect 52 0 1 0;
#X connect 53 0 50 1;
#X restore 495 335 pd env1;
#N canvas 482 23 351 624 env2 0;
#X floatatom 33 109 5 0 0 0 - - -;
#X floatatom 76 109 5 0 0 0 - - -;
#X floatatom 129 109 5 0 0 0 - - -;
#X obj 33 278 vline~;
#X obj 8 -75 bng 15 250 50 0 empty m empty 17 7 0 10 -262144 -1 -1
;
#X obj 129 197 / 127;
#X obj 31 -45 vsl 15 128 0 4000 0 0 env2a env2a empty 0 -9 0 10 -262144
-1 -1 0 1;
#X obj 55 -45 vsl 15 128 0 4000 0 0 env2d env2d empty 0 -9 0 10 -262144
-1 -1 0 1;
#X obj 80 -45 vsl 15 128 0 127 0 0 env2s env2s empty 0 -9 0 10 -262144
-1 -1 0 1;
#X obj 104 -45 vsl 15 128 0 4000 0 0 env2r env2r empty 0 -9 0 10 -262144
-1 -1 0 1;
#X obj 140 -19 +;
#X floatatom 140 7 5 0 0 0 - - -;
#X floatatom 174 109 5 0 0 0 - - -;
#X obj 177 -48 t b f;
#X obj 33 224 pack f f f f f f;
#X msg 33 251 1 \$2 \, \$4 \$3 \$2 \, 0 \$5 \$6;
#X obj 33 461 pack~ 0 50;
#X obj 33 399 *~;
#X obj 98 429 *~;
#X obj 98 325 tgl 15 0 fixed2tog fixed2tog empty 17 7 0 10 -262144
-1 -1 1 1;
#X floatatom 51 374 5 0 0 0 - - -;
#X floatatom 98 374 5 0 0 0 - - -;
#X obj 98 347 ==;
#X obj 98 304 bng 15 250 50 0 empty fixed2 empty 17 7 0 10 -262144
-1 -1;
#X obj 98 278 loadbang;
#X msg 229 83 0.5;
#X msg 229 60 1;
#X floatatom 229 109 5 0 0 0 - - -;
#X floatatom 230 -64 5 0 0 0 - - -;
#X floatatom 33 159 5 0 0 0 - - -;
#X floatatom 76 159 5 0 0 0 - - -;
#X floatatom 174 159 5 0 0 0 - - -;
#X obj 33 134 * 1;
#X obj 174 134 * 1;
#X obj 76 134 * 1;
#X obj 140 33 * 1;
#X floatatom 140 58 5 0 0 0 - - -;
#X obj 229 -40 sel 0 1 2 3 4;
#X msg 229 -10 10;
#X msg 229 14 5;
#X msg 229 37 2;
#X obj 140 -76 r a2;
#X obj 177 -76 r d2;
#X obj 277 -65 r scl2;
#X obj 140 82 s r2;
#X obj 51 197 s a2;
#X obj 91 197 s d2;
#X obj 175 197 r r2;
#X obj 146 371 r level2;
#X obj 33 488 s~ env2;
#X obj 33 429 *~ 1;
#X connect 0 0 32 0;
#X connect 1 0 34 0;
#X connect 2 0 5 0;
#X connect 3 0 17 0;
#X connect 4 0 6 0;
#X connect 4 0 7 0;
#X connect 4 0 8 0;
#X connect 4 0 9 0;
#X connect 4 0 14 0;
#X connect 5 0 14 3;
#X connect 6 0 0 0;
#X connect 7 0 1 0;
#X connect 8 0 2 0;
#X connect 9 0 12 0;
#X connect 10 0 11 0;
#X connect 11 0 35 0;
#X connect 12 0 33 0;
#X connect 13 0 10 0;
#X connect 13 1 10 1;
#X connect 14 0 15 0;
#X connect 15 0 3 0;
#X connect 16 0 49 0;
#X connect 17 0 50 0;
#X connect 18 0 16 0;
#X connect 19 0 20 0;
#X connect 19 0 22 0;
#X connect 20 0 17 1;
#X connect 21 0 18 0;
#X connect 22 0 21 0;
#X connect 23 0 19 0;
#X connect 24 0 23 0;
#X connect 25 0 27 0;
#X connect 26 0 27 0;
#X connect 27 0 32 1;
#X connect 27 0 33 1;
#X connect 27 0 34 1;
#X connect 27 0 35 1;
#X connect 28 0 37 0;
#X connect 29 0 14 1;
#X connect 29 0 45 0;
#X connect 30 0 14 2;
#X connect 30 0 46 0;
#X connect 31 0 14 4;
#X connect 32 0 29 0;
#X connect 33 0 31 0;
#X connect 34 0 30 0;
#X connect 35 0 36 0;
#X connect 36 0 44 0;
#X connect 37 0 38 0;
#X connect 37 1 39 0;
#X connect 37 2 40 0;
#X connect 37 3 26 0;
#X connect 37 4 25 0;
#X connect 38 0 27 0;
#X connect 39 0 27 0;
#X connect 40 0 27 0;
#X connect 41 0 10 0;
#X connect 42 0 13 0;
#X connect 43 0 28 0;
#X connect 47 0 14 5;
#X connect 48 0 18 1;
#X connect 48 0 50 1;
#X connect 50 0 16 0;
#X restore 495 361 pd env2;
#X obj 279 462 r~ env2;
#X obj 257 192 vsl 15 128 0 4000 0 0 env2a env2a empty 0 -9 0 10 -262144
-1 -1 0 1;
#X obj 281 192 vsl 15 128 0 4000 0 0 env2d env2d empty 0 -9 0 10 -262144
-1 -1 0 1;
#X obj 306 192 vsl 15 128 0 127 0 0 env2s env2s empty 0 -9 0 10 -262144
-1 -1 0 1;
#X obj 330 192 vsl 15 128 0 4000 0 0 env2r env2r empty 0 -9 0 10 -262144
-1 -1 0 1;
#X obj 144 192 vsl 15 128 0 4000 0 0 env1a env1a empty 0 -9 0 10 -262144
-1 -1 0 1;
#X obj 168 192 vsl 15 128 0 4000 0 0 env1d env1d empty 0 -9 0 10 -262144
-1 -1 8900 1;
#X obj 193 192 vsl 15 128 0 127 0 0 env1s env1s empty 0 -9 0 10 -262144
-1 -1 0 1;
#X obj 217 192 vsl 15 128 0 4000 0 0 env1r env1r empty 0 -9 0 10 -262144
-1 -1 0 1;
#X obj 261 437 +~;
#X floatatom 372 360 5 0 0 0 - - -;
#X obj 372 384 osc~;
#X obj 372 490 *~;
#X obj 372 437 +~;
#N canvas 763 67 338 637 env3 0;
#X floatatom 31 119 5 0 0 0 - - -;
#X floatatom 74 119 5 0 0 0 - - -;
#X floatatom 127 119 5 0 0 0 - - -;
#X obj 31 288 vline~;
#X obj 6 -65 bng 15 250 50 0 empty m empty 17 7 0 10 -262144 -1 -1
;
#X obj 127 207 / 127;
#X obj 29 -35 vsl 15 128 0 4000 0 0 env3a env3a empty 0 -9 0 10 -262144
-1 -1 0 1;
#X obj 53 -35 vsl 15 128 0 4000 0 0 env3d env3d empty 0 -9 0 10 -262144
-1 -1 0 1;
#X obj 78 -35 vsl 15 128 0 127 0 0 env3s env3s empty 0 -9 0 10 -262144
-1 -1 0 1;
#X obj 102 -35 vsl 15 128 0 4000 0 0 env3r env3r empty 0 -9 0 10 -262144
-1 -1 0 1;
#X obj 138 -9 +;
#X floatatom 138 17 5 0 0 0 - - -;
#X floatatom 172 119 5 0 0 0 - - -;
#X obj 175 -38 t b f;
#X obj 31 234 pack f f f f f f;
#X msg 31 261 1 \$2 \, \$4 \$3 \$2 \, 0 \$5 \$6;
#X obj 31 471 pack~ 0 50;
#X obj 31 409 *~;
#X obj 96 439 *~;
#X obj 96 335 tgl 15 0 fixed3tog fixed3tog empty 17 7 0 10 -262144
-1 -1 1 1;
#X floatatom 49 384 5 0 0 0 - - -;
#X floatatom 96 384 5 0 0 0 - - -;
#X obj 96 357 ==;
#X obj 96 314 bng 15 250 50 0 empty fixed3 empty 17 7 0 10 -262144
-1 -1;
#X obj 96 288 loadbang;
#X msg 227 93 0.5;
#X msg 227 70 1;
#X floatatom 227 119 5 0 0 0 - - -;
#X floatatom 228 -54 5 0 0 0 - - -;
#X floatatom 31 169 5 0 0 0 - - -;
#X floatatom 74 169 5 0 0 0 - - -;
#X floatatom 172 169 5 0 0 0 - - -;
#X obj 31 144 * 1;
#X obj 172 144 * 1;
#X obj 74 144 * 1;
#X obj 138 43 * 1;
#X floatatom 138 68 5 0 0 0 - - -;
#X obj 227 -30 sel 0 1 2 3 4;
#X msg 227 0 10;
#X msg 227 24 5;
#X msg 227 47 2;
#X obj 31 439 *~ 1;
#X obj 138 -66 r a3;
#X obj 175 -66 r d3;
#X obj 275 -55 r scl3;
#X obj 138 92 s r3;
#X obj 49 207 s a3;
#X obj 89 207 s d3;
#X obj 173 207 r r3;
#X obj 144 381 r level3;
#X obj 31 498 s~ env3;
#X connect 0 0 32 0;
#X connect 1 0 34 0;
#X connect 2 0 5 0;
#X connect 3 0 17 0;
#X connect 4 0 6 0;
#X connect 4 0 7 0;
#X connect 4 0 8 0;
#X connect 4 0 9 0;
#X connect 4 0 14 0;
#X connect 5 0 14 3;
#X connect 6 0 0 0;
#X connect 7 0 1 0;
#X connect 8 0 2 0;
#X connect 9 0 12 0;
#X connect 10 0 11 0;
#X connect 11 0 35 0;
#X connect 12 0 33 0;
#X connect 13 0 10 0;
#X connect 13 1 10 1;
#X connect 14 0 15 0;
#X connect 15 0 3 0;
#X connect 16 0 50 0;
#X connect 17 0 41 0;
#X connect 18 0 16 0;
#X connect 19 0 20 0;
#X connect 19 0 22 0;
#X connect 20 0 17 1;
#X connect 21 0 18 0;
#X connect 22 0 21 0;
#X connect 23 0 19 0;
#X connect 24 0 23 0;
#X connect 25 0 27 0;
#X connect 26 0 27 0;
#X connect 27 0 32 1;
#X connect 27 0 33 1;
#X connect 27 0 34 1;
#X connect 27 0 35 1;
#X connect 28 0 37 0;
#X connect 29 0 14 1;
#X connect 29 0 46 0;
#X connect 30 0 14 2;
#X connect 30 0 47 0;
#X connect 31 0 14 4;
#X connect 32 0 29 0;
#X connect 33 0 31 0;
#X connect 34 0 30 0;
#X connect 35 0 36 0;
#X connect 36 0 45 0;
#X connect 37 0 38 0;
#X connect 37 1 39 0;
#X connect 37 2 40 0;
#X connect 37 3 26 0;
#X connect 37 4 25 0;
#X connect 38 0 27 0;
#X connect 39 0 27 0;
#X connect 40 0 27 0;
#X connect 41 0 16 0;
#X connect 42 0 10 0;
#X connect 43 0 13 0;
#X connect 44 0 28 0;
#X connect 48 0 14 5;
#X connect 49 0 18 1;
#X connect 49 0 41 1;
#X restore 494 388 pd env3;
#X obj 390 463 r~ env3;
#X obj 370 192 vsl 15 128 0 4000 0 0 env3a env3a empty 0 -9 0 10 -262144
-1 -1 0 1;
#X obj 394 192 vsl 15 128 0 4000 0 0 env3d env3d empty 0 -9 0 10 -262144
-1 -1 0 1;
#X obj 419 192 vsl 15 128 0 127 0 0 env3s env3s empty 0 -9 0 10 -262144
-1 -1 0 1;
#X obj 443 192 vsl 15 128 0 4000 0 0 env3r env3r empty 0 -9 0 10 -262144
-1 -1 0 1;
#N canvas 650 23 373 244 fb1 0;
#X obj 44 124 fexpr~ cos($x1*6.283185+$f2*$y1);
#X obj 44 99 osc~;
#X floatatom 44 1 5 0 0 0 - - -;
#X obj 16 14 vsl 15 128 0 127 0 0 empty empty empty 0 -9 0 10 -262144
-1 -1 0 1;
#X floatatom 265 99 5 0 0 0 - - -;
#X obj 44 154 *~;
#X floatatom 102 184 5 0 0 0 - - -;
#X obj 44 184 s~ fb1;
#X obj 44 -24 r op1;
#X obj 265 73 int;
#X floatatom 44 75 5 0 0 0 - - -;
#X obj 44 25 t b f;
#X obj 44 50 +;
#X floatatom 102 50 5 0 0 0 - - -;
#X obj 102 24 int;
#X obj 102 153 r fbamnt1;
#X obj 265 46 r fbint1;
#X obj 102 -2 r fbdetune1;
#X connect 0 0 5 0;
#X connect 1 0 0 0;
#X connect 2 0 11 0;
#X connect 4 0 0 1;
#X connect 5 0 7 0;
#X connect 6 0 5 1;
#X connect 8 0 2 0;
#X connect 9 0 4 0;
#X connect 10 0 1 0;
#X connect 11 0 12 0;
#X connect 11 0 13 0;
#X connect 11 1 12 1;
#X connect 12 0 10 0;
#X connect 13 0 12 0;
#X connect 14 0 13 0;
#X connect 15 0 6 0;
#X connect 16 0 9 0;
#X connect 17 0 14 0;
#X restore 494 424 pd fb1;
#X obj 162 410 r~ fb1;
#N canvas 882 23 382 254 fb2 0;
#X obj 44 134 fexpr~ cos($x1*6.283185+$f2*$y1);
#X obj 44 109 osc~;
#X floatatom 44 11 5 0 0 0 - - -;
#X obj 16 24 vsl 15 128 0 127 0 0 empty empty empty 0 -9 0 10 -262144
-1 -1 0 1;
#X floatatom 265 109 5 0 0 0 - - -;
#X obj 44 164 *~;
#X floatatom 102 194 5 0 0 0 - - -;
#X obj 265 83 int;
#X floatatom 44 85 5 0 0 0 - - -;
#X obj 44 35 t b f;
#X obj 44 60 +;
#X floatatom 102 60 5 0 0 0 - - -;
#X obj 102 34 int;
#X obj 44 -14 r op2;
#X obj 102 8 r fbdetune2;
#X obj 265 56 r fbint2;
#X obj 102 163 r fbamnt2;
#X obj 44 194 s~ fb2;
#X connect 0 0 5 0;
#X connect 1 0 0 0;
#X connect 2 0 9 0;
#X connect 4 0 0 1;
#X connect 5 0 17 0;
#X connect 6 0 5 1;
#X connect 7 0 4 0;
#X connect 8 0 1 0;
#X connect 9 0 10 0;
#X connect 9 0 11 0;
#X connect 9 1 10 1;
#X connect 10 0 8 0;
#X connect 11 0 10 0;
#X connect 12 0 11 0;
#X connect 13 0 2 0;
#X connect 14 0 12 0;
#X connect 15 0 7 0;
#X connect 16 0 6 0;
#X restore 494 449 pd fb2;
#X obj 279 410 r~ fb2;
#N canvas 586 48 640 458 op1 0;
#X floatatom 73 100 5 0 0 0 - - -;
#X floatatom 73 168 5 0 0 0 - - -;
#X obj 73 145 *;
#X obj 73 122 t b f;
#X obj 123 74 sel 0 1 2 3 4 5 6 7 8 9 10 11 12 13 14 15;
#X msg 123 98 0.5;
#X msg 153 98 1;
#X msg 183 98 2;
#X msg 213 98 3;
#X msg 243 98 4;
#X msg 273 98 5;
#X msg 303 98 6;
#X msg 333 98 7;
#X msg 363 98 8;
#X msg 393 98 9;
#X msg 453 98 11;
#X msg 483 98 12;
#X msg 513 98 13;
#X msg 543 98 14;
#X msg 573 98 15;
#X msg 603 98 16;
#X floatatom 123 51 5 0 0 0 - - -;
#X obj 123 27 int;
#X floatatom 123 123 5 0 0 0 - - -;
#X msg 423 98 10;
#X floatatom 73 239 5 0 0 0 - - -;
#X obj 37 77 vsl 15 128 0 2 0 0 op1f empty empty 0 -9 0 10 -262144
-1 -1 0 1;
#X obj 73 191 t b f;
#X obj 73 215 +;
#X floatatom 124 239 5 0 0 0 - - -;
#X obj 124 191 t b f;
#X obj 124 215 * 2;
#X obj 74 340 s op1;
#X obj 123 3 r op1c;
#X obj 124 167 r op1f;
#X obj 73 76 r note;
#X obj 13 24 loadbang;
#X msg 13 49 1;
#X obj 13 77 vsl 15 128 0 16 0 0 op1c op1c empty 0 -9 0 10 -262144
-1 -1 794 1;
#N canvas 580 23 1090 699 lfo1 0;
#X obj 64 698 *;
#X obj 20 -89 loadbang;
#X msg 111 -38 bang;
#X obj 64 723 outlet;
#X obj 107 115 hsl 128 10 0.01 10 1 1 empty LFOspd frq 0 5 0 10 -262144
-1 -1 2674 1;
#X obj 107 139 hsl 128 10 0 1 0 1 empty LFOamt am 0 5 0 10 -262144
-1 -1 0 1;
#X obj 92 -4 metro 5;
#X obj 2 37 float;
#X obj 9 115 + 1;
#X obj 59 83 / 200;
#X obj 44 51 wrap;
#X obj 9 536 cos;
#X obj 8 502 * 6.28319;
#X obj 120 -85 inlet;
#X text 124 -106 sync;
#X obj 61 672 * 64;
#X msg 147 -37 0;
#X obj 218 230 -;
#X obj 210 182 t b f;
#X msg 211 208 1;
#X obj 143 215 / 2;
#X obj 142 241 + 0.5;
#X msg 235 336 1;
#X obj 237 312 t b f;
#X text 64 315 m;
#X obj 249 362 -;
#X obj 262 386 /;
#X msg 298 288 1;
#X obj 300 264 t b f;
#X obj 318 316 -;
#X text 131 269 x1;
#X obj 220 273 *;
#X text 249 275 y1;
#X text 269 414 m2;
#X text 151 373 b2;
#X text 217 342 ak;
#X text 340 301 gk;
#X obj 197 158 clip 0 0.99;
#X text 41 195 9 klasse geometrie...;
#X obj 8 167 t f f;
#X obj 17 275 clip 0 0.5;
#X obj 128 298 clip 0.5 1;
#X obj 33 322 *;
#X obj 125 371 -;
#X obj 165 419 *;
#X obj 107 445 +;
#X obj 107 127 hsl 128 10 0 1 0 1 empty empty geo 0 5 0 10 -262144
-1 -1 0 1;
#X obj 225 102 bng 12 250 50 0 empty empty empty 17 7 0 10 -262144
-1 -1;
#X text 242 102 start;
#X obj 114 -62 t b b;
#X obj 185 102 hradio 12 1 1 3 empty empty s_s_p 2 5 0 10 -262144 -1
-128992 0;
#X obj 113 500 * 2;
#X obj 113 523 - 1;
#X obj 163 501 >= 0.5;
#X obj 164 533 * 2;
#X obj 164 556 - 1;
#X obj 56 564 *;
#X obj 57 535 == 0;
#X obj 100 571 *;
#X obj 119 549 == 1;
#X obj 171 601 *;
#X obj 190 579 == 2;
#X obj 89 470 t f f f;
#X obj 106 618 +;
#X obj 80 647 +;
#X connect 0 0 3 0;
#X connect 1 0 49 0;
#X connect 2 0 6 0;
#X connect 4 0 9 0;
#X connect 5 0 0 1;
#X connect 6 0 7 0;
#X connect 7 0 8 0;
#X connect 8 0 10 0;
#X connect 8 0 39 0;
#X connect 9 0 8 1;
#X connect 10 0 7 1;
#X connect 11 0 56 0;
#X connect 12 0 11 0;
#X connect 13 0 49 0;
#X connect 15 0 0 0;
#X connect 16 0 7 1;
#X connect 17 0 31 1;
#X connect 17 0 42 1;
#X connect 18 0 19 0;
#X connect 18 1 17 1;
#X connect 19 0 17 0;
#X connect 20 0 21 0;
#X connect 21 0 28 0;
#X connect 21 0 31 0;
#X connect 21 0 40 2;
#X connect 21 0 41 1;
#X connect 21 0 43 1;
#X connect 22 0 25 0;
#X connect 23 0 22 0;
#X connect 23 1 25 1;
#X connect 25 0 26 0;
#X connect 26 0 44 1;
#X connect 27 0 29 0;
#X connect 28 0 27 0;
#X connect 28 1 29 1;
#X connect 29 0 26 1;
#X connect 31 0 23 0;
#X connect 37 0 18 0;
#X connect 37 0 20 0;
#X connect 39 0 40 0;
#X connect 39 1 41 0;
#X connect 40 0 42 0;
#X connect 41 0 43 0;
#X connect 42 0 45 0;
#X connect 43 0 44 0;
#X connect 44 0 45 1;
#X connect 45 0 62 0;
#X connect 46 0 37 0;
#X connect 47 0 2 0;
#X connect 49 0 2 0;
#X connect 49 1 16 0;
#X connect 50 0 57 0;
#X connect 50 0 59 0;
#X connect 50 0 61 0;
#X connect 51 0 52 0;
#X connect 52 0 58 0;
#X connect 53 0 54 0;
#X connect 54 0 55 0;
#X connect 55 0 60 0;
#X connect 56 0 64 0;
#X connect 57 0 56 1;
#X connect 58 0 63 0;
#X connect 59 0 58 1;
#X connect 60 0 63 1;
#X connect 61 0 60 1;
#X connect 62 0 12 0;
#X connect 62 1 51 0;
#X connect 62 2 53 0;
#X connect 63 0 64 1;
#X connect 64 0 15 0;
#X coords 0 -1 1 1 140 50 1 100 100;
#X restore 186 208 pd lfo1;
#X obj 186 181 r m;
#X floatatom 105 289 5 0 0 0 - - -;
#X obj 74 289 +;
#X floatatom 74 315 5 0 0 0 - - -;
#X obj 73 264 t b f;
#X connect 0 0 3 0;
#X connect 1 0 27 0;
#X connect 1 0 31 0;
#X connect 2 0 1 0;
#X connect 3 0 2 0;
#X connect 3 1 2 1;
#X connect 4 0 5 0;
#X connect 4 1 6 0;
#X connect 4 2 7 0;
#X connect 4 3 8 0;
#X connect 4 4 9 0;
#X connect 4 5 10 0;
#X connect 4 6 11 0;
#X connect 4 7 12 0;
#X connect 4 8 13 0;
#X connect 4 9 14 0;
#X connect 4 10 24 0;
#X connect 4 11 15 0;
#X connect 4 12 16 0;
#X connect 4 13 17 0;
#X connect 4 14 18 0;
#X connect 4 15 19 0;
#X connect 4 16 20 0;
#X connect 5 0 23 0;
#X connect 6 0 23 0;
#X connect 7 0 23 0;
#X connect 8 0 23 0;
#X connect 9 0 23 0;
#X connect 10 0 23 0;
#X connect 11 0 23 0;
#X connect 12 0 23 0;
#X connect 13 0 23 0;
#X connect 14 0 23 0;
#X connect 15 0 23 0;
#X connect 16 0 23 0;
#X connect 17 0 23 0;
#X connect 18 0 23 0;
#X connect 19 0 23 0;
#X connect 20 0 23 0;
#X connect 21 0 4 0;
#X connect 22 0 21 0;
#X connect 23 0 2 0;
#X connect 24 0 23 0;
#X connect 25 0 44 0;
#X connect 27 0 28 0;
#X connect 27 1 28 1;
#X connect 28 0 25 0;
#X connect 29 0 28 0;
#X connect 30 0 31 0;
#X connect 30 1 31 1;
#X connect 31 0 29 0;
#X connect 33 0 22 0;
#X connect 34 0 30 0;
#X connect 35 0 0 0;
#X connect 36 0 37 0;
#X connect 37 0 38 0;
#X connect 37 0 21 0;
#X connect 39 0 41 0;
#X connect 40 0 39 0;
#X connect 41 0 42 0;
#X connect 42 0 43 0;
#X connect 43 0 32 0;
#X connect 44 0 42 0;
#X connect 44 1 42 1;
#X restore 493 533 pd op1;
#N canvas 523 87 645 304 op2 0;
#X floatatom 65 108 5 0 0 0 - - -;
#X floatatom 65 176 5 0 0 0 - - -;
#X obj 65 153 *;
#X obj 13 84 vsl 15 128 0 16 0 0 op2c course1 empty 0 -9 0 10 -262144
-1 -1 794 1;
#X obj 65 130 t b f;
#X obj 115 82 sel 0 1 2 3 4 5 6 7 8 9 10 11 12 13 14 15;
#X msg 115 106 0.5;
#X msg 145 106 1;
#X msg 175 106 2;
#X msg 205 106 3;
#X msg 235 106 4;
#X msg 265 106 5;
#X msg 295 106 6;
#X msg 325 106 7;
#X msg 355 106 8;
#X msg 385 106 9;
#X msg 445 106 11;
#X msg 475 106 12;
#X msg 505 106 13;
#X msg 535 106 14;
#X msg 565 106 15;
#X msg 595 106 16;
#X floatatom 115 59 5 0 0 0 - - -;
#X obj 115 35 int;
#X floatatom 115 131 5 0 0 0 - - -;
#X msg 415 106 10;
#X floatatom 65 247 5 0 0 0 - - -;
#X obj 37 84 vsl 15 128 0 2 0 0 op2f op2f empty 0 -9 0 10 -262144 -1
-1 0 1;
#X obj 65 199 t b f;
#X obj 65 223 +;
#X floatatom 116 247 5 0 0 0 - - -;
#X obj 116 199 t b f;
#X obj 116 223 * 2;
#X obj 115 11 r op2c;
#X obj 65 270 s op2;
#X obj 116 175 r op2f;
#X obj 65 84 r note;
#X obj 13 30 loadbang;
#X msg 13 55 1;
#X connect 0 0 4 0;
#X connect 1 0 28 0;
#X connect 1 0 32 0;
#X connect 2 0 1 0;
#X connect 4 0 2 0;
#X connect 4 1 2 1;
#X connect 5 0 6 0;
#X connect 5 1 7 0;
#X connect 5 2 8 0;
#X connect 5 3 9 0;
#X connect 5 4 10 0;
#X connect 5 5 11 0;
#X connect 5 6 12 0;
#X connect 5 7 13 0;
#X connect 5 8 14 0;
#X connect 5 9 15 0;
#X connect 5 10 25 0;
#X connect 5 11 16 0;
#X connect 5 12 17 0;
#X connect 5 13 18 0;
#X connect 5 14 19 0;
#X connect 5 15 20 0;
#X connect 5 16 21 0;
#X connect 6 0 24 0;
#X connect 7 0 24 0;
#X connect 8 0 24 0;
#X connect 9 0 24 0;
#X connect 10 0 24 0;
#X connect 11 0 24 0;
#X connect 12 0 24 0;
#X connect 13 0 24 0;
#X connect 14 0 24 0;
#X connect 15 0 24 0;
#X connect 16 0 24 0;
#X connect 17 0 24 0;
#X connect 18 0 24 0;
#X connect 19 0 24 0;
#X connect 20 0 24 0;
#X connect 21 0 24 0;
#X connect 22 0 5 0;
#X connect 23 0 22 0;
#X connect 24 0 2 0;
#X connect 25 0 24 0;
#X connect 26 0 34 0;
#X connect 28 0 29 0;
#X connect 28 1 29 1;
#X connect 29 0 26 0;
#X connect 30 0 29 0;
#X connect 31 0 32 0;
#X connect 31 1 32 1;
#X connect 32 0 30 0;
#X connect 33 0 23 0;
#X connect 35 0 31 0;
#X connect 36 0 0 0;
#X connect 37 0 38 0;
#X connect 38 0 3 0;
#X restore 493 555 pd op2;
#N canvas 493 23 128 156 midi 0;
#X obj 20 65 mtof;
#X floatatom 20 90 5 0 0 0 - - -;
#X obj 20 114 s note;
#X floatatom 20 43 5 0 0 0 - - -;
#X obj 20 20 r midi_note;
#X connect 0 0 1 0;
#X connect 1 0 2 0;
#X connect 3 0 0 0;
#X connect 4 0 3 0;
#X restore 493 511 pd midi note;
#N canvas 590 438 645 304 op3 0;
#X floatatom 64 108 5 0 0 0 - - -;
#X floatatom 64 176 5 0 0 0 - - -;
#X obj 64 153 *;
#X obj 13 86 vsl 15 128 0 16 0 0 empty op3c empty 0 -9 0 10 -262144
-1 -1 794 1;
#X obj 64 130 t b f;
#X obj 114 82 sel 0 1 2 3 4 5 6 7 8 9 10 11 12 13 14 15;
#X msg 114 106 0.5;
#X msg 144 106 1;
#X msg 174 106 2;
#X msg 204 106 3;
#X msg 234 106 4;
#X msg 264 106 5;
#X msg 294 106 6;
#X msg 324 106 7;
#X msg 354 106 8;
#X msg 384 106 9;
#X msg 444 106 11;
#X msg 474 106 12;
#X msg 504 106 13;
#X msg 534 106 14;
#X msg 564 106 15;
#X msg 594 106 16;
#X floatatom 114 59 5 0 0 0 - - -;
#X obj 114 35 int;
#X floatatom 114 131 5 0 0 0 - - -;
#X msg 414 106 10;
#X floatatom 64 247 5 0 0 0 - - -;
#X obj 37 86 vsl 15 128 0 2 0 0 op3f op3f empty 0 -9 0 10 -262144 -1
-1 0 1;
#X obj 64 199 t b f;
#X obj 64 223 +;
#X floatatom 115 247 5 0 0 0 - - -;
#X obj 115 199 t b f;
#X obj 115 223 * 2;
#X obj 64 84 r note;
#X obj 114 11 r op3c;
#X obj 115 175 r op3f;
#X obj 64 270 s op3;
#X obj 13 32 loadbang;
#X msg 13 57 1;
#X connect 0 0 4 0;
#X connect 1 0 28 0;
#X connect 1 0 32 0;
#X connect 2 0 1 0;
#X connect 4 0 2 0;
#X connect 4 1 2 1;
#X connect 5 0 6 0;
#X connect 5 1 7 0;
#X connect 5 2 8 0;
#X connect 5 3 9 0;
#X connect 5 4 10 0;
#X connect 5 5 11 0;
#X connect 5 6 12 0;
#X connect 5 7 13 0;
#X connect 5 8 14 0;
#X connect 5 9 15 0;
#X connect 5 10 25 0;
#X connect 5 11 16 0;
#X connect 5 12 17 0;
#X connect 5 13 18 0;
#X connect 5 14 19 0;
#X connect 5 15 20 0;
#X connect 5 16 21 0;
#X connect 6 0 24 0;
#X connect 7 0 24 0;
#X connect 8 0 24 0;
#X connect 9 0 24 0;
#X connect 10 0 24 0;
#X connect 11 0 24 0;
#X connect 12 0 24 0;
#X connect 13 0 24 0;
#X connect 14 0 24 0;
#X connect 15 0 24 0;
#X connect 16 0 24 0;
#X connect 17 0 24 0;
#X connect 18 0 24 0;
#X connect 19 0 24 0;
#X connect 20 0 24 0;
#X connect 21 0 24 0;
#X connect 22 0 5 0;
#X connect 23 0 22 0;
#X connect 24 0 2 0;
#X connect 25 0 24 0;
#X connect 26 0 36 0;
#X connect 28 0 29 0;
#X connect 28 1 29 1;
#X connect 29 0 26 0;
#X connect 30 0 29 0;
#X connect 31 0 32 0;
#X connect 31 1 32 1;
#X connect 32 0 30 0;
#X connect 33 0 0 0;
#X connect 34 0 23 0;
#X connect 35 0 31 0;
#X connect 37 0 38 0;
#X connect 38 0 3 0;
#X connect 38 0 22 0;
#X restore 493 577 pd op3;
#X obj 144 332 r op1;
#X obj 261 332 r op2;
#X obj 193 8 vsl 15 128 0 16 0 0 op1c op1c empty 0 -9 0 10 -262144
-1 -1 794 1;
#X obj 217 8 vsl 15 128 0 2 0 0 op1f empty empty 0 -9 0 10 -262144
-1 -1 0 1;
#X obj 146 8 vsl 15 128 0 127 0 0 midi_note empty empty 0 -9 0 10 -262144
-1 -1 4300 1;
#X floatatom 146 151 5 0 0 0 - - -;
#X obj 263 7 vsl 15 128 0 16 0 0 op2c op2c empty 0 -9 0 10 -262144
-1 -1 794 1;
#X obj 287 7 vsl 15 128 0 2 0 0 op2f op2f empty 0 -9 0 10 -262144 -1
-1 0 1;
#X obj 333 7 vsl 15 128 0 16 0 0 op3c op3c empty 0 -9 0 10 -262144
-1 -1 794 1;
#X obj 357 7 vsl 15 128 0 2 0 0 op3f op3f empty 0 -9 0 10 -262144 -1
-1 0 1;
#X obj 372 333 r op3;
#X text -5 244 use above box for;
#X text -5 259 viz output.;
#X text -5 292 controls envelope.;
#X msg 193 -20 1;
#X obj 193 -45 loadbang;
#X text 34 29 <-start;
#X obj 390 410 r~ fb3;
#N canvas 829 495 361 252 fb3 0;
#X obj 44 144 fexpr~ cos($x1*6.283185+$f2*$y1);
#X obj 44 119 osc~;
#X floatatom 44 21 5 0 0 0 - - -;
#X obj 16 34 vsl 15 128 0 127 0 0 empty empty empty 0 -9 0 10 -262144
-1 -1 0 1;
#X floatatom 265 119 5 0 0 0 - - -;
#X obj 44 174 *~;
#X floatatom 102 204 5 0 0 0 - - -;
#X obj 265 93 int;
#X floatatom 44 95 5 0 0 0 - - -;
#X obj 44 45 t b f;
#X obj 44 70 +;
#X floatatom 102 70 5 0 0 0 - - -;
#X obj 102 44 int;
#X obj 44 -4 r op3;
#X obj 102 18 r fbdetune3;
#X obj 265 66 r fbint3;
#X obj 102 173 r fbamnt3;
#X obj 44 204 s~ fb3;
#X connect 0 0 5 0;
#X connect 1 0 0 0;
#X connect 2 0 9 0;
#X connect 4 0 0 1;
#X connect 5 0 17 0;
#X connect 6 0 5 1;
#X connect 7 0 4 0;
#X connect 8 0 1 0;
#X connect 9 0 10 0;
#X connect 9 0 11 0;
#X connect 9 1 10 1;
#X connect 10 0 8 0;
#X connect 11 0 10 0;
#X connect 12 0 11 0;
#X connect 13 0 2 0;
#X connect 14 0 12 0;
#X connect 15 0 7 0;
#X connect 16 0 6 0;
#X restore 494 474 pd fb3;
#X obj 349 2 vradio 8 1 1 17 opbox3inv opbox3 empty 0 -8 0 10 -262144
-1 -1 15;
#N canvas 878 434 231 177 opbox 0;
#X obj 154 13 r op3c;
#X obj 154 66 -;
#X floatatom 154 118 5 0 0 0 - - -;
#X obj 154 144 s opbox3;
#X obj 154 92 * -1;
#X obj 154 40 17 \$1;
#X obj 84 66 -;
#X floatatom 84 118 5 0 0 0 - - -;
#X obj 84 92 * -1;
#X obj 84 40 17 \$1;
#X obj 14 66 -;
#X floatatom 14 118 5 0 0 0 - - -;
#X obj 14 92 * -1;
#X obj 14 40 17 \$1;
#X obj 14 13 r op1c;
#X obj 14 144 s opbox1;
#X obj 84 144 s opbox2;
#X obj 84 13 r op2c;
#X connect 0 0 5 0;
#X connect 1 0 4 0;
#X connect 2 0 3 0;
#X connect 4 0 2 0;
#X connect 5 0 1 0;
#X connect 6 0 8 0;
#X connect 7 0 16 0;
#X connect 8 0 7 0;
#X connect 9 0 6 0;
#X connect 10 0 12 0;
#X connect 11 0 15 0;
#X connect 12 0 11 0;
#X connect 13 0 10 0;
#X connect 14 0 13 0;
#X connect 17 0 9 0;
#X restore 493 604 pd opbox;
#X obj 279 2 vradio 8 1 1 17 opbox3inv opbox2 empty 0 -8 0 10 -262144
-1 -1 15;
#X obj 209 2 vradio 8 1 1 17 opbox3inv opbox1 empty 0 -8 0 10 -262144
-1 -1 15;
#X obj 144 579 clip~ -0.5 0.5;
#X msg 240 -20 0;
#X obj 20 -24 hsl 100 15 20000 400 0 0 empty empty empty -2 -8 0 10
-262144 -1 -1 0 1;
#X floatatom 49 1 5 0 0 0 - - -;
#X obj 493 630 import mrpeach;
#N canvas 778 65 488 355 processing 1;
#X obj -12 10 r~ env1;
#X obj -12 88 snapshot~;
#X obj -2 61 metro 100;
#X obj -2 39 loadbang;
#X obj 57 299 sendOSC;
#X floatatom 57 326 5 0 0 0 - - -;
#X msg -12 261 connect localhost 8000;
#X obj -12 169 prepend send /env1;
#X obj -12 196 prepend set;
#X obj 95 200 loadbang;
#X msg 181 243 send /env1 10;
#X msg 181 215 send /env1 1;
#X msg 181 272 send /env1 0.1;
#X msg 181 300 send /env1 1000;
#X floatatom 82 53 5 0 0 0 - - -;
#X obj 80 76 / 100;
#X msg -12 223 send /env1 0.316101;
#X obj 182 153 metro;
#X obj 181 129 tgl 15 0 empty empty empty 17 7 0 10 -262144 -1 -1 0
1;
#X floatatom 221 127 5 0 0 0 - - -;
#X text 178 74 click toggle below for;
#X text 179 93 steady updates of data;
#X text 295 210 click any of these;
#X text 295 230 4 messages to create;
#X text 296 250 static value;
#X text 263 125 clock for metronome snapshot;
#X connect 0 0 1 0;
#X connect 1 0 7 0;
#X connect 2 0 1 0;
#X connect 3 0 2 0;
#X connect 4 0 5 0;
#X connect 6 0 4 0;
#X connect 7 0 8 0;
#X connect 8 0 16 0;
#X connect 9 0 6 0;
#X connect 10 0 4 0;
#X connect 11 0 4 0;
#X connect 12 0 4 0;
#X connect 13 0 4 0;
#X connect 14 0 15 0;
#X connect 16 0 4 0;
#X connect 17 0 16 0;
#X connect 18 0 17 0;
#X connect 19 0 17 1;
#X restore -3 222 pd processing;
#X obj 18 54 metro 2000;
#X text -5 277 1st ADSR on right ->;
#X text 53 110 root note->;
#X obj 18 33 tgl 15 0 empty empty empty 17 7 0 10 -4034 -1 -1 1 1;
#X connect 0 0 5 0;
#X connect 1 0 0 0;
#X connect 2 0 3 0;
#X connect 3 0 25 0;
#X connect 4 0 5 1;
#X connect 5 0 6 0;
#X connect 6 0 9 0;
#X connect 7 0 67 0;
#X connect 9 0 7 0;
#X connect 11 0 10 1;
#X connect 12 0 11 1;
#X connect 13 0 9 1;
#X connect 16 0 4 1;
#X connect 25 0 4 0;
#X connect 26 0 27 0;
#X connect 27 0 29 0;
#X connect 28 0 25 1;
#X connect 29 0 28 0;
#X connect 31 0 28 1;
#X connect 37 0 5 1;
#X connect 39 0 25 1;
#X connect 44 0 1 0;
#X connect 45 0 2 0;
#X connect 48 0 49 0;
#X connect 54 0 26 0;
#X connect 58 0 46 0;
#X connect 58 0 50 0;
#X connect 58 0 52 0;
#X connect 59 0 58 0;
#X connect 59 0 68 0;
#X connect 61 0 29 1;
#X connect 67 0 11 0;
#X connect 67 0 10 0;
#X connect 68 0 47 0;
#X connect 68 0 51 0;
#X connect 68 0 53 0;
#X connect 69 0 70 0;
#X connect 73 0 8 0;
#X connect 76 0 73 0;
#X restore 9 9 pd wires;
#X obj 132 333 vsl 15 128 0 16 0 0 op1c op1c empty 0 -9 0 10 -262144
-1 -1 0 1;
#X obj 156 333 vsl 15 128 0 2 0 0 op1f empty empty 0 -9 0 10 -262144
-1 -1 0 1;
#X obj 148 327 vradio 8 1 1 17 opbox3inv opbox1 empty 0 -8 0 10 -262144
-1 -1 15;
#X obj 201 333 vsl 15 128 0 4000 0 0 env1a env1a empty 0 -9 0 10 -262144
-1 -1 0 1;
#X obj 225 333 vsl 15 128 0 4000 0 0 env1d env1d empty 0 -9 0 10 -262144
-1 -1 8900 1;
#X obj 250 333 vsl 15 128 0 127 0 0 env1s env1s empty 0 -9 0 10 -262144
-1 -1 0 1;
#X obj 274 333 vsl 15 128 0 4000 0 0 env1r env1r empty 0 -9 0 10 -262144
-1 -1 0 1;
#X obj 344 363 knob 20 20 0.01 1 1 0 level1 empty empty 0 -8 0 8 -262144
-260097 -1 0 1;
#X obj 346 441 tgl 15 0 fixed1tog fixed1tog empty 17 7 0 10 -262144
-1 -1 1 1;
#X obj 346 421 bng 15 250 50 0 fixed1 empty empty 17 7 0 10 -262144
-1 -1;
#X text 341 395 Env;
#N canvas 112 129 578 298 ideas 0;
#X text 11 7 Global envelope;
#X text 11 47 Random on trigger and amount;
#X text 11 67 Envelope scaling;
#X text 11 27 Trigger matrix - attach to global \, lfo \, random \,
2nd sequence;
#X restore 9 33 pd ideas;
#X obj 415 355 knob 20 20 0.01 1 1 0 fbamnt1 empty empty 0 -8 0 8 -262144
-1 -1 0 1;
#X obj 415 398 knob 20 20 0 10 0 0 fbint1 empty empty 0 -8 0 8 -262144
-1 -1 0 1;
#X obj 415 441 knob 20 20 -13 13 0 0 fbdetune1 empty empty 0 -8 0 8
-262144 -1 -1 0 1;
#X text 335 336 Level;
#X text 396 332 Feedback;
#X text 405 376 Index;
#X text 401 419 Detune;
#X obj 344 203 knob 20 20 0.01 1 1 0 level2 empty empty 0 -8 0 8 -262144
-260097 -1 0 1;
#X obj 346 281 tgl 15 0 fixed2tog fixed2tog empty 17 7 0 10 -262144
-1 -1 1 1;
#X obj 346 261 bng 15 250 50 0 fixed2 empty empty 17 7 0 10 -262144
-1 -1;
#X text 341 235 Env;
#X obj 415 195 knob 20 20 0.01 1 1 0 fbamnt2 empty empty 0 -8 0 8 -262144
-1 -1 0 1;
#X obj 415 238 knob 20 20 0 10 0 0 fbint2 empty empty 0 -8 0 8 -262144
-1 -1 0 1;
#X obj 415 281 knob 20 20 -13 13 0 0 fbdetune2 empty empty 0 -8 0 8
-262144 -1 -1 0 1;
#X text 335 176 Level;
#X text 396 172 Feedback;
#X text 405 216 Index;
#X text 401 259 Detune;
#X obj 344 43 knob 20 20 0.01 1 1 0 level3 empty empty 0 -8 0 8 -262144
-260097 -1 0 1;
#X obj 346 121 tgl 15 0 fixed3tog fixed3tog empty 17 7 0 10 -262144
-1 -1 1 1;
#X obj 346 101 bng 15 250 50 0 fixed3 empty empty 17 7 0 10 -262144
-1 -1;
#X text 341 75 Env;
#X obj 415 35 knob 20 20 0.01 1 1 0 fbamnt3 empty empty 0 -8 0 8 -262144
-1 -1 0 1;
#X obj 415 78 knob 20 20 0 10 0 0 fbint3 empty empty 0 -8 0 8 -262144
-1 -1 0 1;
#X obj 415 121 knob 20 20 -13 13 0 0 fbdetune3 empty empty 0 -8 0 8
-262144 -1 -1 0 1;
#X text 335 16 Level;
#X text 396 12 Feedback;
#X text 405 56 Index;
#X text 401 99 Detune;
#X obj 132 173 vsl 15 128 0 16 0 0 op2c op2c empty 0 -9 0 10 -262144
-1 -1 794 1;
#X obj 156 173 vsl 15 128 0 2 0 0 op2f op2f empty 0 -9 0 10 -262144
-1 -1 0 1;
#X obj 148 168 vradio 8 1 1 17 opbox3inv opbox2 empty 0 -8 0 10 -262144
-1 -1 15;
#X obj 201 173 vsl 15 128 0 4000 0 0 env2a env2a empty 0 -9 0 10 -262144
-1 -1 0 1;
#X obj 225 173 vsl 15 128 0 4000 0 0 env2d env2d empty 0 -9 0 10 -262144
-1 -1 0 1;
#X obj 250 173 vsl 15 128 0 127 0 0 env2s env2s empty 0 -9 0 10 -262144
-1 -1 0 1;
#X obj 274 173 vsl 15 128 0 4000 0 0 env2r env2r empty 0 -9 0 10 -262144
-1 -1 0 1;
#X obj 132 13 vsl 15 128 0 16 0 0 op3c op3c empty 0 -9 0 10 -262144
-1 -1 0 1;
#X obj 156 13 vsl 15 128 0 2 0 0 op3f op3f empty 0 -9 0 10 -262144
-1 -1 0 1;
#X obj 148 8 vradio 8 1 1 17 opbox3inv opbox3 empty 0 -8 0 10 -262144
-1 -1 15;
#X obj 201 13 vsl 15 128 0 4000 0 0 env3a env3a empty 0 -9 0 10 -262144
-1 -1 0 1;
#X obj 225 13 vsl 15 128 0 4000 0 0 env3d env3d empty 0 -9 0 10 -262144
-1 -1 0 1;
#X obj 250 13 vsl 15 128 0 127 0 0 env3s env3s empty 0 -9 0 10 -262144
-1 -1 0 1;
#X obj 274 13 vsl 15 128 0 4000 0 0 env3r env3r empty 0 -9 0 10 -262144
-1 -1 0 1;
#X text 487 332 Matrix;
#X obj 299 389 vradio 15 1 0 5 scl1 scl1 empty 0 -8 0 10 -262144 -1
-1 0;
#X obj 299 229 vradio 15 1 0 5 scl2 scl2 empty 0 -8 0 10 -262144 -1
-1 0;
#X obj 299 69 vradio 15 1 0 5 scl3 scl3 empty 0 -8 0 10 -262144 -1
-1 0;
#X obj 85 401 knob 20 20 0.01 10 1 0 LFOspd empty empty 0 -8 0 8 -262144
-1 -1 0 1;
#X obj 85 441 knob 20 20 0 1 0 0 LFOamt empty empty 0 -8 0 8 -262144
-1 -1 0 1;
#X text 82 372 LFO;
