#N canvas 2 25 493 404 10;
#X obj 847 -113 tabwrite;
#X msg 868 -85 40;
#X obj 844 -57 coll;
#C restore;
#N canvas 824 145 450 300 presets 0;
#X obj 4 4 bng 15 250 50 0 empty empty empty 17 7 0 10 -262144 -1 -1
;
#X msg 98 29 3;
#X msg 98 54 \; mn\$1 60 \; hp1\$1 1000 \; algo\$1 4 \;;
#X msg 14 54 \; mn\$1 18 \; hp\$1 600 \; algo\$1 2 \;;
#X msg 14 28 2;
#X connect 0 0 4 0;
#X connect 0 0 1 0;
#X connect 1 0 2 0;
#X connect 4 0 3 0;
#X restore 4 -106 pd presets;
#X obj 127 -50 pm_op 1;
#X obj 187 -50 pm_op 2;
#N canvas 43 23 493 575 processing 0;
#X obj 85 137 sendOSC;
#X msg 19 188 connect localhost 8000;
#X floatatom 85 160 5 0 0 0 - - -, f 5;
#X obj 19 160 loadbang;
#X floatatom 65 40 5 0 0 0 - - -, f 5;
#X msg 52 107 ];
#X msg 196 106 [;
#X obj 65 65 t b f b;
#X obj 309 136 sendOSC;
#X msg 243 187 connect localhost 8000;
#X floatatom 309 159 5 0 0 0 - - -, f 5;
#X obj 243 159 loadbang;
#X floatatom 289 39 5 0 0 0 - - -, f 5;
#X msg 276 106 ];
#X msg 416 105 [;
#X obj 289 64 t b f b;
#X obj 533 136 sendOSC;
#X msg 467 187 connect localhost 8000;
#X floatatom 533 159 5 0 0 0 - - -, f 5;
#X obj 467 159 loadbang;
#X floatatom 513 39 5 0 0 0 - - -, f 5;
#X msg 500 106 ];
#X msg 640 105 [;
#X obj 513 64 t b f b;
#X msg 532 105 send /env3 \$1;
#X msg 308 105 send /env2 \$1;
#X msg 84 106 send /env1 \$1;
#X obj 65 10 r xx;
#X obj 289 9 r yy;
#X obj 513 9 r zz;
#X connect 0 0 2 0;
#X connect 1 0 0 0;
#X connect 3 0 1 0;
#X connect 4 0 7 0;
#X connect 5 0 0 0;
#X connect 6 0 0 0;
#X connect 7 0 5 0;
#X connect 7 1 26 0;
#X connect 7 2 6 0;
#X connect 8 0 10 0;
#X connect 9 0 8 0;
#X connect 11 0 9 0;
#X connect 12 0 15 0;
#X connect 13 0 8 0;
#X connect 14 0 8 0;
#X connect 15 0 13 0;
#X connect 15 1 25 0;
#X connect 15 2 14 0;
#X connect 16 0 18 0;
#X connect 17 0 16 0;
#X connect 19 0 17 0;
#X connect 20 0 23 0;
#X connect 21 0 16 0;
#X connect 22 0 16 0;
#X connect 23 0 21 0;
#X connect 23 1 24 0;
#X connect 23 2 22 0;
#X connect 24 0 16 0;
#X connect 25 0 8 0;
#X connect 26 0 0 0;
#X connect 27 0 4 0;
#X connect 28 0 12 0;
#X connect 29 0 20 0;
#X restore 4 -83 pd processing;
#X obj 7 80 s m;
#X obj 6 -25 hsl 100 15 20000 400 0 0 empty empty empty -2 -8 0 10
-262144 -1 -1 0 1;
#X floatatom 35 0 5 0 0 0 - - -, f 5;
#N canvas 715 193 450 323 boot 0;
#X obj 7 9 loadbang;
#X obj 7 32 s L;
#X connect 0 0 1 0;
#X restore 4 -60 pd boot;
#X obj 7 30 r L;
#X obj 246 -50 pm_op 3;
#X obj 97 -82 bng 15 250 50 0 empty empty empty 17 7 0 10 -262144 -1
-1;
#X obj 97 -105 r L;
#X text 313 -52 <-- open these for envelopes;
#N canvas 1 77 977 518 reverb2 0;
#X obj 25 29 inlet~;
#X obj 6 365 outlet~;
#X obj 97 366 outlet~;
#X obj 105 113 hsl 80 10 1 0 0 1 empty empty lv 2 5 0 10 -262144 -1
-1 2800 1;
#X obj 107 195 *;
#X obj 114 228 *;
#X obj 84 164 t b f f;
#X obj 98 253 -;
#X msg 82 231 1;
#X obj 117 285 * 100;
#X obj 76 321 rev2~ 100 90 3000 20;
#X obj 105 126 hsl 80 10 1 0 0 1 empty empty dp 2 5 0 10 -262144 -1
-1 4300 1;
#X obj 180 215 *;
#X obj 184 239 *;
#X obj 171 188 t f f;
#X obj 186 271 * 100;
#X obj 105 138 hsl 80 10 1 0 0 1 empty empty co 2 5 0 10 -262144 -1
-1 5200 1;
#X obj 167 294 * 6000;
#X connect 0 0 10 0;
#X connect 3 0 6 0;
#X connect 4 0 5 1;
#X connect 4 0 5 0;
#X connect 5 0 7 1;
#X connect 6 0 8 0;
#X connect 6 1 4 0;
#X connect 6 2 4 1;
#X connect 7 0 9 0;
#X connect 8 0 7 0;
#X connect 9 0 10 2;
#X connect 10 0 1 0;
#X connect 10 1 2 0;
#X connect 11 0 14 0;
#X connect 12 0 13 1;
#X connect 12 0 13 0;
#X connect 13 0 15 0;
#X connect 14 0 12 0;
#X connect 14 1 12 1;
#X connect 15 0 10 4;
#X connect 16 0 17 0;
#X connect 17 0 10 3;
#X coords 0 -1 1 1 90 50 1 100 100;
#X restore 61 148 pd reverb2;
#N canvas 274 249 553 464 resample 0;
#X obj 59 243 samphold~;
#X obj 133 212 phasor~;
#X obj 27 33 inlet~;
#X obj 2 384 outlet~;
#X obj 20 354 +~;
#X obj 58 334 *~;
#X obj -8 327 *~;
#X obj 15 268 * -1;
#X obj 13 292 + 1;
#X obj 108 129 hsl 70 8 0 1 0 1 empty empty dry/wet -2 5 0 10 -262144
-1 -1 6900 1;
#X obj 238 21 inlet;
#X obj 235 49 / 128;
#X obj 108 118 hsl 70 8 0.005 0.5 1 1 empty empty rate -2 5 0 10 -262144
-1 -1 0 1;
#X obj 191 22 inlet;
#X obj 139 179 * 44100;
#X obj 177 48 / 256;
#X connect 0 0 5 1;
#X connect 1 0 0 1;
#X connect 2 0 0 0;
#X connect 2 0 6 0;
#X connect 4 0 3 0;
#X connect 5 0 4 1;
#X connect 6 0 4 0;
#X connect 7 0 8 0;
#X connect 8 0 6 1;
#X connect 9 0 7 0;
#X connect 9 0 5 0;
#X connect 10 0 11 0;
#X connect 11 0 9 0;
#X connect 12 0 14 0;
#X connect 13 0 15 0;
#X connect 14 0 1 0;
#X connect 15 0 12 0;
#X coords 0 -1 1 1 85 40 1 100 100;
#X restore 395 260 pd resample;
#X obj 127 -26 s xx;
#X obj 187 -27 s yy;
#X obj 246 -27 s zz;
#X obj 285 113 *~;
#X obj 226 113 *~;
#X obj 166 113 *~;
#X obj 166 293 dac~;
#X floatatom 146 -79 5 0 0 0 - - -, f 5;
#X floatatom 201 -79 5 0 0 0 - - -, f 5;
#X floatatom 261 -78 5 0 0 0 - - -, f 5;
#N canvas 807 23 464 335 seq3 1;
#X obj 341 106 sel 1 2;
#X msg 342 138 64;
#X msg 379 138 59;
#X obj 340 24 counter;
#X obj 341 46 % 3;
#X msg 416 139 66;
#X obj 30 103 counter;
#X floatatom 11 157 5 0 0 0 - - -, f 5;
#X obj 11 104 bng 15 250 50 0 empty empty empty 17 7 0 10 -262144 -1
-1;
#N canvas 761 47 450 323 seq 0;
#X obj 341 106 sel 1 2;
#X msg 342 138 64;
#X msg 379 138 59;
#X obj 340 24 counter;
#X obj 341 46 % 3;
#X msg 416 139 66;
#X obj 23 147 sel 1 2;
#X obj 23 48 counter;
#X floatatom 23 122 5 0 0 0 - - -, f 5;
#X obj 23 2 r m;
#X obj 4 49 bng 15 250 50 0 empty empty empty 17 7 0 10 -262144 -1
-1;
#X msg 56 72 3;
#X obj 23 97 random 100;
#X obj 24 236 s seq 1;
#X msg 23 179 18;
#X msg 60 179 21;
#X msg 97 180 16;
#X connect 0 0 1 0;
#X connect 0 1 2 0;
#X connect 0 2 5 0;
#X connect 3 0 4 0;
#X connect 4 0 0 0;
#X connect 6 0 14 0;
#X connect 6 1 15 0;
#X connect 6 2 16 0;
#X connect 8 0 6 0;
#X connect 9 0 7 0;
#X connect 9 0 10 0;
#X connect 10 0 12 0;
#X connect 11 0 12 1;
#X connect 12 0 8 0;
#X connect 14 0 13 0;
#X connect 15 0 13 0;
#X connect 16 0 13 0;
#X restore 432 2 pd seq 1;
#X obj 10 249 s seq3;
#X obj 11 182 sel 1 2 3;
#X msg 73 131 5;
#X obj 11 56 r L;
#X obj 11 79 metro 2000;
#X floatatom 68 -4 5 0 0 0 - - -, f 5;
#X msg 119 -53 5;
#X obj 68 21 sel 1 2 3 4;
#X obj 68 -52 r m;
#X msg 11 216 109;
#X obj 11 132 random 4;
#X msg 68 50 200;
#X msg 102 50 1200;
#X msg 134 50 2000;
#X msg 175 50 4000;
#X obj 68 -29 random 10;
#X msg 85 217 120;
#X msg 48 216 116;
#X connect 0 0 1 0;
#X connect 0 1 2 0;
#X connect 0 2 5 0;
#X connect 3 0 4 0;
#X connect 4 0 0 0;
#X connect 7 0 11 0;
#X connect 8 0 20 0;
#X connect 11 0 26 0;
#X connect 11 1 19 0;
#X connect 11 2 27 0;
#X connect 12 0 20 1;
#X connect 13 0 14 0;
#X connect 14 0 8 0;
#X connect 15 0 17 0;
#X connect 16 0 25 1;
#X connect 17 0 21 0;
#X connect 17 1 22 0;
#X connect 17 2 23 0;
#X connect 17 3 24 0;
#X connect 17 4 24 0;
#X connect 18 0 25 0;
#X connect 19 0 10 0;
#X connect 20 0 7 0;
#X connect 21 0 14 1;
#X connect 22 0 14 1;
#X connect 23 0 14 1;
#X connect 24 0 14 1;
#X connect 25 0 15 0;
#X connect 26 0 10 0;
#X connect 27 0 10 0;
#X restore 425 47 pd seq3;
#N canvas 761 47 450 323 seq2 1;
#X obj 341 106 sel 1 2;
#X msg 342 138 64;
#X msg 379 138 59;
#X obj 340 24 counter;
#X obj 341 46 % 3;
#X msg 416 139 66;
#X obj 23 2 r m;
#X obj 4 49 bng 15 250 50 0 empty empty empty 17 7 0 10 -262144 -1
-1;
#N canvas 761 47 450 323 seq 0;
#X obj 341 106 sel 1 2;
#X msg 342 138 64;
#X msg 379 138 59;
#X obj 340 24 counter;
#X obj 341 46 % 3;
#X msg 416 139 66;
#X obj 23 147 sel 1 2;
#X obj 23 48 counter;
#X floatatom 23 122 5 0 0 0 - - -, f 5;
#X obj 23 2 r m;
#X obj 4 49 bng 15 250 50 0 empty empty empty 17 7 0 10 -262144 -1
-1;
#X msg 56 72 3;
#X obj 23 97 random 100;
#X obj 24 236 s seq 1;
#X msg 23 179 18;
#X msg 60 179 21;
#X msg 97 180 16;
#X connect 0 0 1 0;
#X connect 0 1 2 0;
#X connect 0 2 5 0;
#X connect 3 0 4 0;
#X connect 4 0 0 0;
#X connect 6 0 14 0;
#X connect 6 1 15 0;
#X connect 6 2 16 0;
#X connect 8 0 6 0;
#X connect 9 0 7 0;
#X connect 9 0 10 0;
#X connect 10 0 12 0;
#X connect 11 0 12 1;
#X connect 12 0 8 0;
#X connect 14 0 13 0;
#X connect 15 0 13 0;
#X connect 16 0 13 0;
#X restore 432 2 pd seq 1;
#X obj 23 285 s seq2;
#X floatatom 126 76 5 0 0 0 - - -, f 5;
#X msg 159 26 3;
#X obj 126 51 random 3;
#X obj 23 48 counter 14;
#X obj 23 109 sel 0;
#X msg 127 248 28;
#X floatatom 23 81 5 0 0 0 - - -, f 5;
#X obj 23 138 bng 15 250 50 0 empty empty empty 17 7 0 10 -262144 -1
-1;
#X floatatom 23 189 5 0 0 0 - - -, f 5;
#X msg 60 247 31;
#X msg 23 247 25;
#X msg 93 247 30;
#X obj 23 163 counter 20;
#X obj 23 215 sel 12 18 4;
#X connect 0 0 1 0;
#X connect 0 1 2 0;
#X connect 0 2 5 0;
#X connect 3 0 4 0;
#X connect 4 0 0 0;
#X connect 6 0 7 0;
#X connect 6 0 13 0;
#X connect 11 0 12 1;
#X connect 12 0 10 0;
#X connect 13 0 16 0;
#X connect 14 0 17 0;
#X connect 15 0 9 0;
#X connect 16 0 14 0;
#X connect 17 0 22 0;
#X connect 18 0 23 0;
#X connect 19 0 9 0;
#X connect 20 0 9 0;
#X connect 21 0 9 0;
#X connect 22 0 18 0;
#X connect 23 0 20 0;
#X connect 23 1 19 0;
#X connect 23 2 21 0;
#X connect 23 3 15 0;
#X restore 425 25 pd seq2;
#N canvas 619 79 477 410 seq1 0;
#X floatatom 23 182 5 0 0 0 - - -, f 5;
#X obj 23 2 r m;
#X obj 4 39 bng 15 250 50 0 empty empty empty 17 7 0 10 -262144 -1
-1;
#X msg 425 10 3;
#X obj 23 296 s seq1;
#X obj 392 35 random 3;
#X obj 171 9 counter 1 12;
#X obj 171 43 sel 1 5 7;
#X obj 222 72 bng 15 250 50 0 empty empty empty 17 7 0 10 -262144 -1
-1;
#X obj 196 72 bng 15 250 50 0 empty empty empty 17 7 0 10 -262144 -1
-1;
#X obj 171 72 bng 15 250 50 0 empty empty empty 17 7 0 10 -262144 -1
-1;
#X floatatom 244 39 5 0 0 0 - - -, f 5;
#X obj 285 49 t b b;
#X obj 360 107 urn 5;
#X obj 360 57 bng 15 250 50 0 empty empty empty 17 7 0 10 -262144 -1
-1;
#X msg 312 79 clear;
#X floatatom 360 137 5 0 0 0 - - -, f 5;
#X obj 360 168 hradio 15 1 0 5 empty empty empty 0 -6 0 8 -262144 -1
-1 0;
#X text 384 81 true random;
#X msg 97 240 30;
#X msg 60 240 28;
#X msg 23 239 27;
#X obj 65 122 bng 15 250 50 0 \$0_t empty empty 17 7 0 10 -262144 -1
-1;
#X obj 23 207 sel 1 9;
#X obj 23 155 counter 1 14;
#X obj 112 155 s t;
#X obj 23 38 counter 9;
#X floatatom 24 71 5 0 0 0 - - -, f 5;
#X obj 24 94 sel 1;
#X connect 0 0 23 0;
#X connect 1 0 2 0;
#X connect 1 0 26 0;
#X connect 3 0 5 1;
#X connect 6 0 7 0;
#X connect 6 0 11 0;
#X connect 7 0 10 0;
#X connect 7 1 9 0;
#X connect 7 3 8 0;
#X connect 12 0 13 0;
#X connect 12 1 15 0;
#X connect 13 0 16 0;
#X connect 13 1 12 0;
#X connect 14 0 13 0;
#X connect 15 0 13 0;
#X connect 16 0 17 0;
#X connect 19 0 4 0;
#X connect 20 0 4 0;
#X connect 21 0 4 0;
#X connect 22 0 25 0;
#X connect 22 0 19 0;
#X connect 23 0 21 0;
#X connect 23 1 20 0;
#X connect 24 0 0 0;
#X connect 26 0 27 0;
#X connect 27 0 28 0;
#X connect 28 0 22 0;
#X restore 425 3 pd seq1;
#X obj 127 -105 r seq1;
#X obj 187 -105 r seq2;
#X obj 246 -104 r seq3;
#X msg 317 213 400;
#X obj 7 53 metro 2000;
#X obj 300 66 r L;
#X obj 181 67 r L;
#X msg 300 88 15;
#X obj 241 67 r L;
#X msg 241 89 4;
#X msg 349 213 800;
#X msg 381 213 1100;
#X obj 331 180 sel 0 1;
#X obj 331 139 random 4;
#X floatatom 331 160 5 0 0 0 - - -, f 5;
#X obj 187 271 delay~ \$1;
#X msg 181 89 20;
#X obj 345 89 counter 4;
#X obj 331 118 bng 15 250 50 0 empty empty empty 17 7 0 10 -262144
-1 -1;
#X connect 4 0 18 0;
#X connect 4 1 23 0;
#X connect 5 0 19 0;
#X connect 5 1 22 0;
#X connect 8 0 9 0;
#X connect 9 0 35 1;
#X connect 11 0 35 0;
#X connect 12 0 20 0;
#X connect 12 1 21 0;
#X connect 13 0 5 2;
#X connect 13 0 4 1;
#X connect 13 0 12 3;
#X connect 14 0 13 0;
#X connect 16 0 24 0;
#X connect 16 0 46 0;
#X connect 21 0 16 0;
#X connect 21 0 46 0;
#X connect 22 0 16 0;
#X connect 23 0 16 0;
#X connect 26 0 48 0;
#X connect 27 0 48 0;
#X connect 31 0 25 0;
#X connect 31 0 4 0;
#X connect 32 0 26 0;
#X connect 32 0 5 0;
#X connect 33 0 27 0;
#X connect 33 0 12 0;
#X connect 34 0 46 1;
#X connect 35 0 7 0;
#X connect 36 0 38 0;
#X connect 37 0 47 0;
#X connect 38 0 21 1;
#X connect 39 0 40 0;
#X connect 40 0 22 1;
#X connect 41 0 46 1;
#X connect 42 0 46 1;
#X connect 43 0 42 0;
#X connect 43 1 41 0;
#X connect 43 2 34 0;
#X connect 44 0 45 0;
#X connect 45 0 43 0;
#X connect 46 0 24 1;
#X connect 47 0 23 1;
#X connect 48 2 49 0;
#X connect 49 0 44 0;
