#N canvas 457 42 648 676 12;
#X obj 150 462 vsl 15 128 0 16 0 0 \$0_op1c \$0_o1c empty 0 -9 0 10
-262144 -1 -1 3175 1;
#X obj 166 456 vradio 8 1 1 17 \$0_opbox3inv \$0_opbox1 empty 0 -8
0 10 -262144 -1 -1 13;
#X obj 249 462 vsl 15 128 0 4000 0 0 \$0_env1a \$0_e1a empty 0 -9 0
10 -262144 -1 -1 8890 1;
#X obj 273 462 vsl 15 128 0 4000 0 0 \$0_env1d \$0_e1d empty 0 -9 0
10 -262144 -1 -1 11224 1;
#X obj 298 462 vsl 15 128 0 127 0 0 \$0_env1s \$0_e1s empty 0 -9 0
10 -262144 -1 -1 6000 1;
#X obj 322 462 vsl 15 128 0 4000 0 0 \$0_env1r \$0_e1r empty 0 -9 0
10 -262144 -1 -1 7795 1;
#X obj 408 570 tgl 15 0 \$0_hld1 \$0_hld1 empty 17 7 0 10 -262144 -1
-1 1 1;
#X obj 408 550 bng 15 250 50 0 \$0_fixed1 empty empty 17 7 0 10 -262144
-1 -1;
#X text 403 524 Env;
#X text 397 465 Level;
#X text 484 464 Feedback;
#X text 493 506 Index;
#X text 489 551 Detune;
#X obj 408 410 tgl 15 0 \$0_hld2 \$0_hld2 empty 17 7 0 10 -262144 -1
-1 1 1;
#X obj 408 390 bng 15 250 50 0 \$0_fixed2 empty empty 17 7 0 10 -262144
-1 -1;
#X text 403 364 Env;
#X text 397 305 Level;
#X obj 408 250 tgl 15 0 \$0_hld3 \$0_hld3 empty 17 7 0 10 -262144 -1
-1 1 1;
#X obj 408 230 bng 15 250 50 0 \$0_fixed3 empty empty 17 7 0 10 -262144
-1 -1;
#X text 403 204 Env;
#X text 397 145 Level;
#X obj 150 302 vsl 15 128 0 16 0 0 \$0_op2c \$0_o2c empty 0 -9 0 10
-262144 -1 -1 3175 1;
#X obj 166 297 vradio 8 1 1 17 \$0_opbox3inv \$0_opbox2 empty 0 -8
0 10 -262144 -1 -1 13;
#X obj 249 302 vsl 15 128 0 4000 0 0 \$0_env2a \$0_e2a empty 0 -9 0
10 -262144 -1 -1 8198 1;
#X obj 273 302 vsl 15 128 0 4000 0 0 \$0_env2d \$0_e2d empty 0 -9 0
10 -262144 -1 -1 9525 1;
#X obj 298 302 vsl 15 128 0 127 0 0 \$0_env2s \$0_e2s empty 0 -9 0
10 -262144 -1 -1 5300 1;
#X obj 322 302 vsl 15 128 0 4000 0 0 \$0_env2r \$0_e2r empty 0 -9 0
10 -262144 -1 -1 2899 1;
#X obj 150 142 vsl 15 128 0 16 0 0 \$0_op3c \$0_o3c empty 0 -9 0 10
-262144 -1 -1 794 1;
#X obj 166 137 vradio 8 1 1 17 \$0_opbox3inv \$0_opbox3 empty 0 -8
0 10 -262144 -1 -1 16;
#X obj 249 142 vsl 15 128 0 4000 0 0 \$0_env3a \$0_e3a empty 0 -9 0
10 -262144 -1 -1 1000 1;
#X obj 273 142 vsl 15 128 0 4000 0 0 \$0_env3d \$0_e3d empty 0 -9 0
10 -262144 -1 -1 9525 1;
#X obj 298 142 vsl 15 128 0 127 0 0 \$0_env3s \$0_e3s empty 0 -9 0
10 -262144 -1 -1 8100 1;
#X obj 322 142 vsl 15 128 0 4000 0 0 \$0_env3r \$0_e3r empty 0 -9 0
10 -262144 -1 -1 5798 1;
#X text 694 459 Matrix;
#X obj 347 495 vradio 15 0 0 5 \$0_scl1 \$0_scl1 empty 0 -8 0 10 -262144
-1 -1 2;
#X obj 347 335 vradio 15 0 0 5 \$0_scl2 \$0_scl2 empty 0 -8 0 10 -262144
-1 -1 2;
#X obj 347 175 vradio 15 0 0 5 \$0_scl3 \$0_scl3 empty 0 -8 0 10 -262144
-1 -1 2;
#X text 97 82 LFO;
#X obj 8 109 vsl 15 128 0 127 0 0 \$0_midi_note \$0_mn empty 0 -9 0
10 -262144 -1 -1 3000 1;
#X floatatom 8 248 5 0 0 0 - - -, f 5;
#X obj 8 303 vsl 15 128 0 3000 0 0 \$0_hip \$0_hp empty 0 -9 0 10 -262144
-1 -1 8170 1;
#X floatatom 197 576 5 0 0 0 - #0_o1f -, f 5;
#X obj 408 88 tgl 15 0 \$0_hld4 \$0_hld4 empty 17 7 0 10 -262144 -1
-1 1 1;
#X obj 408 68 bng 15 250 50 0 \$0_fixed4 empty empty 17 7 0 10 -262144
-1 -1;
#X text 403 42 Env;
#X text 397 -17 Level;
#X obj 150 -20 vsl 15 128 0 16 0 0 \$0_op4c \$0_o4c empty 0 -9 0 10
-262144 -1 -1 11906 1;
#X obj 166 -25 vradio 8 1 1 17 \$0_opbox4inv \$0_opbox4 empty 0 -8
0 10 -262144 -1 -1 2;
#X obj 249 -20 vsl 15 128 0 4000 0 0 \$0_env4a \$0_e4a empty 0 -9 0
10 -262144 -1 -1 10900 1;
#X obj 273 -20 vsl 15 128 0 4000 0 0 \$0_env4d \$0_e4d empty 0 -9 0
10 -262144 -1 -1 3823 1;
#X obj 298 -20 vsl 15 128 0 127 0 0 \$0_env4s \$0_e4s empty 0 -9 0
10 -262144 -1 -1 5700 1;
#X obj 322 -20 vsl 15 128 0 4000 0 0 \$0_env4r \$0_e4r empty 0 -9 0
10 -262144 -1 -1 10998 1;
#X obj 347 13 vradio 15 0 0 5 \$0_scl4 \$0_scl4 empty 0 -8 0 10 -262144
-1 -1 3;
#X obj 52 114 vradio 15 0 0 8 \$0_algoselect \$0_algo empty 0 -8 0
10 -262144 -1 -1 3;
#N canvas 146 151 595 714 wires 0;
#X obj 165 225 phasor~;
#X floatatom 165 201 5 0 0 0 - - -, f 5;
#X floatatom 264 201 5 0 0 0 - - -, f 5;
#X obj 264 225 osc~;
#X obj 165 314 *~ 0.5;
#X floatatom 366 202 5 0 0 0 - - -, f 5;
#X obj 366 226 osc~;
#X obj 191 16 vsl 15 128 0 16 0 0 \$0_op1c \$0_op1c empty 0 -9 0 10
-262144 -1 -1 3175 1;
#X obj 215 16 vsl 15 128 0 2 0 0 empty empty empty 0 -9 0 10 -262144
-1 -1 0 1;
#X obj 261 15 vsl 15 128 0 16 0 0 \$0_op2c \$0_op2c empty 0 -9 0 10
-262144 -1 -1 3175 1;
#X obj 285 15 vsl 15 128 0 2 0 0 empty empty empty 0 -9 0 10 -262144
-1 -1 0 1;
#X obj 331 15 vsl 15 128 0 16 0 0 \$0_op3c \$0_op3c empty 0 -9 0 10
-262144 -1 -1 794 1;
#X obj 355 15 vsl 15 128 0 2 0 0 empty empty empty 0 -9 0 10 -262144
-1 -1 0 1;
#X obj 9 101 snapshot~;
#X floatatom 9 128 5 0 0 0 - - -, f 5;
#X obj 19 52 loadbang;
#X obj 347 10 vradio 8 1 1 17 \$0_opbox3inv \$0_opbox3 empty 0 -8 0
10 -262144 -1 -1 16;
#X obj 277 10 vradio 8 1 1 17 \$0_opbox3inv \$0_opbox2 empty 0 -8 0
10 -262144 -1 -1 13;
#X obj 207 10 vradio 8 1 1 17 \$0_opbox3inv \$0_opbox1 empty 0 -8 0
10 -262144 -1 -1 13;
#X obj 165 342 clip~ -0.5 0.5;
#X obj 165 448 hip~;
#X floatatom 465 202 5 0 0 0 - - -, f 5;
#X obj 465 226 osc~;
#X obj 165 174 r \$0_op1;
#X obj 264 174 r \$0_op2;
#X obj 366 175 r \$0_op3;
#X obj 465 175 r \$0_op4;
#X obj 165 254 s~ \$0_algos1;
#X obj 264 254 s~ \$0_algos2;
#X obj 366 254 s~ \$0_algos3;
#X obj 465 254 s~ \$0_algos4;
#X obj 165 285 r~ \$0_signal;
#X obj 190 421 r \$0_hip;
#X obj 9 23 r~ \$0_env1;
#N canvas 346 23 806 739 algos 0;
#X obj 19 68 +~;
#X obj 19 93 cos~;
#X obj 19 150 *~;
#X obj 119 121 *~;
#X obj 119 69 +~;
#X obj 220 122 *~;
#X obj 220 69 +~;
#X obj 319 122 *~;
#X obj 319 69 +~;
#X obj 19 248 +~;
#X obj 19 273 cos~;
#X obj 19 330 *~;
#X obj 119 301 *~;
#X obj 119 249 +~;
#X obj 220 302 *~;
#X obj 220 249 +~;
#X obj 319 302 *~;
#X obj 319 249 +~;
#X obj 19 426 +~;
#X obj 19 451 cos~;
#X obj 19 508 *~;
#X obj 119 479 *~;
#X obj 119 427 +~;
#X obj 220 480 *~;
#X obj 220 427 +~;
#X obj 319 480 *~;
#X obj 319 427 +~;
#X obj 19 602 +~;
#X obj 19 627 cos~;
#X obj 19 684 *~;
#X obj 119 655 *~;
#X obj 119 603 +~;
#X obj 220 656 *~;
#X obj 220 603 +~;
#X obj 319 656 *~;
#X obj 319 603 +~;
#X obj 433 128 *~;
#X obj 523 128 *~;
#X obj 613 128 *~;
#X obj 703 128 *~;
#X floatatom 433 49 5 0 0 0 - - -, f 5;
#X obj 626 24 sel 0 1 2 3;
#X obj 433 73 == 0;
#X obj 470 73 == 1;
#X obj 507 73 == 2;
#X obj 544 73 == 3;
#X obj 19 16 r~ \$0_algos1;
#X obj 19 196 r~ \$0_algos1;
#X obj 19 374 r~ \$0_algos1;
#X obj 19 550 r~ \$0_algos1;
#X obj 119 16 r~ \$0_algos2;
#X obj 119 196 r~ \$0_algos2;
#X obj 119 374 r~ \$0_algos2;
#X obj 119 550 r~ \$0_algos2;
#X obj 220 16 r~ \$0_algos3;
#X obj 220 196 r~ \$0_algos3;
#X obj 220 374 r~ \$0_algos3;
#X obj 220 550 r~ \$0_algos3;
#X obj 319 16 r~ \$0_algos4;
#X obj 319 196 r~ \$0_algos4;
#X obj 319 374 r~ \$0_algos4;
#X obj 319 550 r~ \$0_algos4;
#X obj 37 41 r~ \$0_fb1;
#X obj 37 221 r~ \$0_fb1;
#X obj 37 399 r~ \$0_fb1;
#X obj 37 575 r~ \$0_fb1;
#X obj 137 42 r~ \$0_fb2;
#X obj 137 222 r~ \$0_fb2;
#X obj 137 400 r~ \$0_fb2;
#X obj 137 576 r~ \$0_fb2;
#X obj 238 42 r~ \$0_fb3;
#X obj 238 222 r~ \$0_fb3;
#X obj 238 400 r~ \$0_fb3;
#X obj 238 576 r~ \$0_fb3;
#X obj 337 42 r~ \$0_fb4;
#X obj 337 222 r~ \$0_fb4;
#X obj 337 400 r~ \$0_fb4;
#X obj 337 576 r~ \$0_fb4;
#X obj 37 122 r~ \$0_env1;
#X obj 37 302 r~ \$0_env1;
#X obj 37 480 r~ \$0_env1;
#X obj 37 656 r~ \$0_env1;
#X obj 137 94 r~ \$0_env2;
#X obj 137 274 r~ \$0_env2;
#X obj 137 452 r~ \$0_env2;
#X obj 137 628 r~ \$0_env2;
#X obj 238 95 r~ \$0_env3;
#X obj 238 275 r~ \$0_env3;
#X obj 238 453 r~ \$0_env3;
#X obj 238 629 r~ \$0_env3;
#X obj 337 95 r~ \$0_env4;
#X obj 337 275 r~ \$0_env4;
#X obj 337 453 r~ \$0_env4;
#X obj 337 629 r~ \$0_env4;
#X obj 53 150 s~ \$0_algor1;
#X obj 53 330 s~ \$0_algor2;
#X obj 53 508 s~ \$0_algor3;
#X obj 53 684 s~ \$0_algor4;
#X obj 433 100 r~ \$0_algor1;
#X obj 523 100 r~ \$0_algor2;
#X obj 613 100 r~ \$0_algor3;
#X obj 703 100 r~ \$0_algor4;
#X obj 433 190 s~ \$0_signal;
#X obj 433 16 r \$0_algoselect;
#X connect 0 0 1 0;
#X connect 1 0 2 0;
#X connect 2 0 94 0;
#X connect 3 0 0 1;
#X connect 4 0 3 0;
#X connect 5 0 4 1;
#X connect 6 0 5 0;
#X connect 7 0 6 1;
#X connect 8 0 7 0;
#X connect 9 0 10 0;
#X connect 10 0 11 0;
#X connect 11 0 95 0;
#X connect 12 0 9 1;
#X connect 13 0 12 0;
#X connect 14 0 13 1;
#X connect 15 0 14 0;
#X connect 16 0 13 1;
#X connect 17 0 16 0;
#X connect 18 0 19 0;
#X connect 19 0 20 0;
#X connect 20 0 96 0;
#X connect 21 0 18 1;
#X connect 22 0 21 0;
#X connect 23 0 22 1;
#X connect 24 0 23 0;
#X connect 25 0 18 1;
#X connect 26 0 25 0;
#X connect 27 0 28 0;
#X connect 28 0 29 0;
#X connect 29 0 97 0;
#X connect 30 0 27 1;
#X connect 31 0 30 0;
#X connect 32 0 27 1;
#X connect 33 0 32 0;
#X connect 34 0 33 1;
#X connect 35 0 34 0;
#X connect 36 0 102 0;
#X connect 37 0 102 0;
#X connect 38 0 102 0;
#X connect 39 0 102 0;
#X connect 40 0 42 0;
#X connect 40 0 43 0;
#X connect 40 0 44 0;
#X connect 40 0 45 0;
#X connect 42 0 36 1;
#X connect 43 0 37 1;
#X connect 44 0 38 1;
#X connect 45 0 39 1;
#X connect 46 0 0 0;
#X connect 47 0 9 0;
#X connect 48 0 18 0;
#X connect 49 0 27 0;
#X connect 50 0 4 0;
#X connect 51 0 13 0;
#X connect 52 0 22 0;
#X connect 53 0 31 0;
#X connect 54 0 6 0;
#X connect 55 0 15 0;
#X connect 56 0 24 0;
#X connect 57 0 33 0;
#X connect 58 0 8 0;
#X connect 59 0 17 0;
#X connect 60 0 26 0;
#X connect 61 0 35 0;
#X connect 62 0 0 1;
#X connect 63 0 9 1;
#X connect 64 0 18 1;
#X connect 65 0 27 1;
#X connect 66 0 4 1;
#X connect 67 0 13 1;
#X connect 68 0 22 1;
#X connect 69 0 31 1;
#X connect 70 0 6 1;
#X connect 71 0 15 1;
#X connect 72 0 24 1;
#X connect 73 0 33 1;
#X connect 74 0 8 1;
#X connect 75 0 17 1;
#X connect 76 0 26 1;
#X connect 77 0 35 1;
#X connect 78 0 2 1;
#X connect 79 0 11 1;
#X connect 80 0 20 1;
#X connect 81 0 29 1;
#X connect 82 0 3 1;
#X connect 83 0 12 1;
#X connect 84 0 21 1;
#X connect 85 0 30 1;
#X connect 86 0 5 1;
#X connect 87 0 14 1;
#X connect 88 0 23 1;
#X connect 89 0 32 1;
#X connect 90 0 7 1;
#X connect 91 0 16 1;
#X connect 92 0 25 1;
#X connect 93 0 34 1;
#X connect 98 0 36 0;
#X connect 99 0 37 0;
#X connect 100 0 38 0;
#X connect 101 0 39 0;
#X connect 103 0 40 0;
#X restore 10 192 pd algos;
#N canvas 717 23 414 537 env1 0;
#X floatatom 26 -67 5 0 0 0 - - -, f 5;
#X floatatom 69 -67 5 0 0 0 - - -, f 5;
#X floatatom 122 -67 5 0 0 0 - - -, f 5;
#X obj 26 102 vline~;
#X obj 142 21 / 127;
#X obj 263 235 +;
#X floatatom 263 261 5 0 0 0 - - -, f 5;
#X floatatom 167 -67 5 0 0 0 - - -, f 5;
#X obj 320 206 t b f;
#X obj 26 48 pack f f f f f f;
#X msg 26 75 1 \$2 \, \$4 \$3 \$2 \, 0 \$5 \$6;
#X obj 26 285 pack~ 0 50;
#X obj 26 223 *~;
#X obj 91 253 *~;
#X obj 91 149 tgl 15 0 \$0_hld1 \$0_hld1 empty 17 7 0 10 -262144 -1
-1 1 1;
#X floatatom 44 198 5 0 0 0 - - -, f 5;
#X floatatom 91 198 5 0 0 0 - - -, f 5;
#X obj 91 171 ==;
#X obj 91 128 bng 15 250 50 0 empty \$0_fixed1 empty 17 7 0 10 -262144
-1 -1;
#X obj 91 102 loadbang;
#X msg 262 80 0.5;
#X msg 262 57 1;
#X floatatom 262 106 5 0 0 0 - - -, f 5;
#X floatatom 263 -67 5 0 0 0 - - -, f 5;
#X floatatom 26 -17 5 0 0 0 - - -, f 5;
#X floatatom 69 -17 5 0 0 0 - - -, f 5;
#X floatatom 167 -17 5 0 0 0 - - -, f 5;
#X obj 26 -42 * 1;
#X obj 167 -42 * 1;
#X obj 263 287 * 1;
#X floatatom 263 312 5 0 0 0 - - -, f 5;
#X obj 262 -43 sel 0 1 2 3 4;
#X msg 262 -13 10;
#X msg 262 11 5;
#X msg 262 34 2;
#X obj 26 253 *~ 1;
#X obj 262 133 t b f;
#X obj 69 -42 * 1;
#X obj 26 -96 r \$0_env1a;
#X obj 106 -96 r \$0_env1d;
#X obj 186 -96 r \$0_env1s;
#X obj 266 -96 r \$0_env1r;
#X obj 310 -68 r \$0_scl1;
#X obj 26 21 s \$0_a1;
#X obj 84 21 s \$0_d1;
#X obj 188 21 r \$0_r1;
#X obj 26 312 s~ \$0_env1;
#X obj 263 178 r \$0_a1;
#X obj 320 178 r \$0_d1;
#X obj 263 336 s \$0_r1;
#X obj 309 133 s \$0_scale1;
#X obj 139 195 r \$0_level1;
#X obj 5 -93 bng 15 250 50 0 empty \$0_t empty 17 7 0 10 -262144 -1
-1;
#X connect 0 0 27 0;
#X connect 1 0 37 0;
#X connect 2 0 4 0;
#X connect 3 0 12 0;
#X connect 4 0 9 3;
#X connect 5 0 6 0;
#X connect 6 0 29 0;
#X connect 7 0 28 0;
#X connect 8 0 5 0;
#X connect 8 1 5 1;
#X connect 9 0 10 0;
#X connect 10 0 3 0;
#X connect 11 0 46 0;
#X connect 12 0 35 0;
#X connect 13 0 11 0;
#X connect 14 0 15 0;
#X connect 14 0 17 0;
#X connect 15 0 12 1;
#X connect 16 0 13 0;
#X connect 17 0 16 0;
#X connect 18 0 14 0;
#X connect 19 0 18 0;
#X connect 20 0 22 0;
#X connect 21 0 22 0;
#X connect 22 0 36 0;
#X connect 22 0 50 0;
#X connect 23 0 31 0;
#X connect 24 0 9 1;
#X connect 24 0 43 0;
#X connect 25 0 9 2;
#X connect 25 0 44 0;
#X connect 26 0 9 4;
#X connect 27 0 24 0;
#X connect 28 0 26 0;
#X connect 29 0 30 0;
#X connect 30 0 49 0;
#X connect 31 0 32 0;
#X connect 31 1 33 0;
#X connect 31 2 34 0;
#X connect 31 3 21 0;
#X connect 31 4 20 0;
#X connect 32 0 22 0;
#X connect 33 0 22 0;
#X connect 34 0 22 0;
#X connect 35 0 11 0;
#X connect 36 0 29 0;
#X connect 36 0 28 0;
#X connect 36 0 37 0;
#X connect 36 0 27 0;
#X connect 36 1 29 1;
#X connect 36 1 28 1;
#X connect 36 1 37 1;
#X connect 36 1 27 1;
#X connect 37 0 25 0;
#X connect 38 0 0 0;
#X connect 39 0 1 0;
#X connect 40 0 2 0;
#X connect 41 0 7 0;
#X connect 42 0 23 0;
#X connect 45 0 9 5;
#X connect 47 0 5 0;
#X connect 48 0 8 0;
#X connect 51 0 13 1;
#X connect 51 0 35 1;
#X connect 52 0 9 0;
#X restore 10 222 pd env1;
#N canvas 748 115 389 510 env2 0;
#X floatatom 28 -67 5 0 0 0 - - -, f 5;
#X floatatom 71 -67 5 0 0 0 - - -, f 5;
#X floatatom 124 -67 5 0 0 0 - - -, f 5;
#X obj 28 102 vline~;
#X obj 144 21 / 127;
#X obj 265 235 +;
#X floatatom 265 261 5 0 0 0 - - -, f 5;
#X floatatom 169 -67 5 0 0 0 - - -, f 5;
#X obj 322 206 t b f;
#X obj 28 48 pack f f f f f f;
#X msg 28 75 1 \$2 \, \$4 \$3 \$2 \, 0 \$5 \$6;
#X obj 28 285 pack~ 0 50;
#X obj 28 223 *~;
#X obj 93 253 *~;
#X obj 93 149 tgl 15 0 \$0_hld2 \$0_hld2 empty 17 7 0 10 -262144 -1
-1 1 1;
#X floatatom 46 198 5 0 0 0 - - -, f 5;
#X floatatom 93 198 5 0 0 0 - - -, f 5;
#X obj 93 171 ==;
#X obj 93 128 bng 15 250 50 0 empty \$0_fixed2 empty 17 7 0 10 -262144
-1 -1;
#X obj 93 102 loadbang;
#X msg 264 80 0.5;
#X msg 264 57 1;
#X floatatom 264 106 5 0 0 0 - - -, f 5;
#X floatatom 265 -67 5 0 0 0 - - -, f 5;
#X floatatom 28 -17 5 0 0 0 - - -, f 5;
#X floatatom 71 -17 5 0 0 0 - - -, f 5;
#X floatatom 169 -17 5 0 0 0 - - -, f 5;
#X obj 28 -42 * 1;
#X obj 169 -42 * 1;
#X obj 265 287 * 1;
#X floatatom 265 312 5 0 0 0 - - -, f 5;
#X obj 264 -43 sel 0 1 2 3 4;
#X msg 264 -13 10;
#X msg 264 11 5;
#X msg 264 34 2;
#X obj 28 253 *~ 1;
#X obj 264 133 t b f;
#X obj 71 -42 * 1;
#X obj 28 -96 r \$0_env2a;
#X obj 108 -96 r \$0_env2d;
#X obj 188 -96 r \$0_env2s;
#X obj 268 -96 r \$0_env2r;
#X obj 312 -68 r \$0_scl2;
#X obj 28 21 s \$0_a2;
#X obj 86 21 s \$0_d2;
#X obj 190 21 r \$0_r2;
#X obj 141 195 r \$0_level2;
#X obj 28 312 s~ \$0_env2;
#X obj 265 178 r \$0_a2;
#X obj 322 178 r \$0_d2;
#X obj 265 336 s \$0_r2;
#X obj 309 132 s \$0_scale2;
#X obj 6 -94 bng 15 250 50 0 empty \$0_t empty 17 7 0 10 -262144 -1
-1;
#X connect 0 0 27 0;
#X connect 1 0 37 0;
#X connect 2 0 4 0;
#X connect 3 0 12 0;
#X connect 4 0 9 3;
#X connect 5 0 6 0;
#X connect 6 0 29 0;
#X connect 7 0 28 0;
#X connect 8 0 5 0;
#X connect 8 1 5 1;
#X connect 9 0 10 0;
#X connect 10 0 3 0;
#X connect 11 0 47 0;
#X connect 12 0 35 0;
#X connect 13 0 11 0;
#X connect 14 0 15 0;
#X connect 14 0 17 0;
#X connect 15 0 12 1;
#X connect 16 0 13 0;
#X connect 17 0 16 0;
#X connect 18 0 14 0;
#X connect 19 0 18 0;
#X connect 20 0 22 0;
#X connect 21 0 22 0;
#X connect 22 0 36 0;
#X connect 22 0 51 0;
#X connect 23 0 31 0;
#X connect 24 0 9 1;
#X connect 24 0 43 0;
#X connect 25 0 9 2;
#X connect 25 0 44 0;
#X connect 26 0 9 4;
#X connect 27 0 24 0;
#X connect 28 0 26 0;
#X connect 29 0 30 0;
#X connect 30 0 50 0;
#X connect 31 0 32 0;
#X connect 31 1 33 0;
#X connect 31 2 34 0;
#X connect 31 3 21 0;
#X connect 31 4 20 0;
#X connect 32 0 22 0;
#X connect 33 0 22 0;
#X connect 34 0 22 0;
#X connect 35 0 11 0;
#X connect 36 0 29 0;
#X connect 36 0 28 0;
#X connect 36 0 37 0;
#X connect 36 0 27 0;
#X connect 36 1 29 1;
#X connect 36 1 28 1;
#X connect 36 1 37 1;
#X connect 36 1 27 1;
#X connect 37 0 25 0;
#X connect 38 0 0 0;
#X connect 39 0 1 0;
#X connect 40 0 2 0;
#X connect 41 0 7 0;
#X connect 42 0 23 0;
#X connect 45 0 9 5;
#X connect 46 0 13 1;
#X connect 46 0 35 1;
#X connect 48 0 5 0;
#X connect 49 0 8 0;
#X connect 52 0 9 0;
#X restore 10 249 pd env2;
#N canvas 776 23 385 504 env3 0;
#X floatatom 28 -57 5 0 0 0 - - -, f 5;
#X floatatom 71 -57 5 0 0 0 - - -, f 5;
#X floatatom 124 -57 5 0 0 0 - - -, f 5;
#X obj 28 112 vline~;
#X obj 144 31 / 127;
#X obj 265 245 +;
#X floatatom 265 271 5 0 0 0 - - -, f 5;
#X floatatom 169 -57 5 0 0 0 - - -, f 5;
#X obj 322 216 t b f;
#X obj 28 58 pack f f f f f f;
#X msg 28 85 1 \$2 \, \$4 \$3 \$2 \, 0 \$5 \$6;
#X obj 28 295 pack~ 0 50;
#X obj 28 233 *~;
#X obj 93 263 *~;
#X obj 93 159 tgl 15 0 \$0_hld3 \$0_hld3 empty 17 7 0 10 -262144 -1
-1 1 1;
#X floatatom 46 208 5 0 0 0 - - -, f 5;
#X floatatom 93 208 5 0 0 0 - - -, f 5;
#X obj 93 181 ==;
#X obj 93 138 bng 15 250 50 0 empty \$0_fixed3 empty 17 7 0 10 -262144
-1 -1;
#X obj 93 112 loadbang;
#X msg 264 90 0.5;
#X msg 264 67 1;
#X floatatom 264 116 5 0 0 0 - - -, f 5;
#X floatatom 265 -57 5 0 0 0 - - -, f 5;
#X floatatom 28 -7 5 0 0 0 - - -, f 5;
#X floatatom 71 -7 5 0 0 0 - - -, f 5;
#X floatatom 169 -7 5 0 0 0 - - -, f 5;
#X obj 28 -32 * 1;
#X obj 169 -32 * 1;
#X obj 265 297 * 1;
#X floatatom 265 322 5 0 0 0 - - -, f 5;
#X obj 264 -33 sel 0 1 2 3 4;
#X msg 264 -3 10;
#X msg 264 21 5;
#X msg 264 44 2;
#X obj 28 263 *~ 1;
#X obj 264 143 t b f;
#X obj 71 -32 * 1;
#X obj 28 -86 r \$0_env3a;
#X obj 108 -86 r \$0_env3d;
#X obj 188 -86 r \$0_env3s;
#X obj 268 -86 r \$0_env3r;
#X obj 312 -58 r \$0_scl3;
#X obj 28 31 s \$0_a3;
#X obj 86 31 s \$0_d3;
#X obj 190 31 r \$0_r3;
#X obj 141 205 r \$0_level3;
#X obj 265 188 r \$0_a3;
#X obj 322 188 r \$0_d3;
#X obj 28 322 s~ \$0_env3;
#X obj 265 346 s \$0_r3;
#X obj 310 142 s \$0_scale3;
#X obj 5 -84 bng 15 250 50 0 empty \$0_t empty 17 7 0 10 -262144 -1
-1;
#X connect 0 0 27 0;
#X connect 1 0 37 0;
#X connect 2 0 4 0;
#X connect 3 0 12 0;
#X connect 4 0 9 3;
#X connect 5 0 6 0;
#X connect 6 0 29 0;
#X connect 7 0 28 0;
#X connect 8 0 5 0;
#X connect 8 1 5 1;
#X connect 9 0 10 0;
#X connect 10 0 3 0;
#X connect 11 0 49 0;
#X connect 12 0 35 0;
#X connect 13 0 11 0;
#X connect 14 0 15 0;
#X connect 14 0 17 0;
#X connect 15 0 12 1;
#X connect 16 0 13 0;
#X connect 17 0 16 0;
#X connect 18 0 14 0;
#X connect 19 0 18 0;
#X connect 20 0 22 0;
#X connect 21 0 22 0;
#X connect 22 0 36 0;
#X connect 22 0 51 0;
#X connect 23 0 31 0;
#X connect 24 0 9 1;
#X connect 24 0 43 0;
#X connect 25 0 9 2;
#X connect 25 0 44 0;
#X connect 26 0 9 4;
#X connect 27 0 24 0;
#X connect 28 0 26 0;
#X connect 29 0 30 0;
#X connect 30 0 50 0;
#X connect 31 0 32 0;
#X connect 31 1 33 0;
#X connect 31 2 34 0;
#X connect 31 3 21 0;
#X connect 31 4 20 0;
#X connect 32 0 22 0;
#X connect 33 0 22 0;
#X connect 34 0 22 0;
#X connect 35 0 11 0;
#X connect 36 0 29 0;
#X connect 36 0 28 0;
#X connect 36 0 37 0;
#X connect 36 0 27 0;
#X connect 36 1 29 1;
#X connect 36 1 28 1;
#X connect 36 1 37 1;
#X connect 36 1 27 1;
#X connect 37 0 25 0;
#X connect 38 0 0 0;
#X connect 39 0 1 0;
#X connect 40 0 2 0;
#X connect 41 0 7 0;
#X connect 42 0 23 0;
#X connect 45 0 9 5;
#X connect 46 0 13 1;
#X connect 46 0 35 1;
#X connect 47 0 5 0;
#X connect 48 0 8 0;
#X connect 52 0 9 0;
#X restore 9 276 pd env3;
#N canvas 593 23 389 501 env4 0;
#X floatatom 28 -57 5 0 0 0 - - -, f 5;
#X floatatom 71 -57 5 0 0 0 - - -, f 5;
#X floatatom 124 -57 5 0 0 0 - - -, f 5;
#X obj 28 112 vline~;
#X obj 144 31 / 127;
#X obj 265 245 +;
#X floatatom 265 271 5 0 0 0 - - -, f 5;
#X floatatom 169 -57 5 0 0 0 - - -, f 5;
#X obj 322 216 t b f;
#X obj 28 58 pack f f f f f f;
#X msg 28 85 1 \$2 \, \$4 \$3 \$2 \, 0 \$5 \$6;
#X obj 28 295 pack~ 0 50;
#X obj 28 233 *~;
#X obj 93 263 *~;
#X obj 93 159 tgl 15 0 \$0_hld4 \$0_hld4 empty 17 7 0 10 -262144 -1
-1 1 1;
#X floatatom 46 208 5 0 0 0 - - -, f 5;
#X floatatom 93 208 5 0 0 0 - - -, f 5;
#X obj 93 181 ==;
#X obj 93 138 bng 15 250 50 0 empty \$0_fixed4 empty 17 7 0 10 -262144
-1 -1;
#X obj 93 112 loadbang;
#X msg 264 90 0.5;
#X msg 264 67 1;
#X floatatom 264 116 5 0 0 0 - - -, f 5;
#X floatatom 265 -57 5 0 0 0 - - -, f 5;
#X floatatom 28 -7 5 0 0 0 - - -, f 5;
#X floatatom 71 -7 5 0 0 0 - - -, f 5;
#X floatatom 169 -7 5 0 0 0 - - -, f 5;
#X obj 28 -32 * 1;
#X obj 169 -32 * 1;
#X obj 265 297 * 1;
#X floatatom 265 322 5 0 0 0 - - -, f 5;
#X obj 264 -33 sel 0 1 2 3 4;
#X msg 264 -3 10;
#X msg 264 21 5;
#X msg 264 44 2;
#X obj 28 263 *~ 1;
#X obj 264 143 t b f;
#X obj 71 -32 * 1;
#X obj 28 -86 r \$0_env4a;
#X obj 108 -86 r \$0_env4d;
#X obj 188 -86 r \$0_env4s;
#X obj 268 -86 r \$0_env4r;
#X obj 312 -58 r \$0_scl4;
#X obj 28 31 s \$0_a4;
#X obj 86 31 s \$0_d4;
#X obj 190 31 r \$0_r4;
#X obj 265 188 r \$0_a4;
#X obj 322 188 r \$0_d4;
#X obj 141 205 r \$0_level4;
#X obj 28 322 s~ \$0_env4;
#X obj 265 346 s \$0_r4;
#X obj 312 143 s \$0_scale4;
#X obj 6 -84 bng 15 250 50 0 empty \$0_t empty 17 7 0 10 -262144 -1
-1;
#X connect 0 0 27 0;
#X connect 1 0 37 0;
#X connect 2 0 4 0;
#X connect 3 0 12 0;
#X connect 4 0 9 3;
#X connect 5 0 6 0;
#X connect 6 0 29 0;
#X connect 7 0 28 0;
#X connect 8 0 5 0;
#X connect 8 1 5 1;
#X connect 9 0 10 0;
#X connect 10 0 3 0;
#X connect 11 0 49 0;
#X connect 12 0 35 0;
#X connect 13 0 11 0;
#X connect 14 0 15 0;
#X connect 14 0 17 0;
#X connect 15 0 12 1;
#X connect 16 0 13 0;
#X connect 17 0 16 0;
#X connect 18 0 14 0;
#X connect 19 0 18 0;
#X connect 20 0 22 0;
#X connect 21 0 22 0;
#X connect 22 0 36 0;
#X connect 22 0 51 0;
#X connect 23 0 31 0;
#X connect 24 0 9 1;
#X connect 24 0 43 0;
#X connect 25 0 9 2;
#X connect 25 0 44 0;
#X connect 26 0 9 4;
#X connect 27 0 24 0;
#X connect 28 0 26 0;
#X connect 29 0 30 0;
#X connect 30 0 50 0;
#X connect 31 0 32 0;
#X connect 31 1 33 0;
#X connect 31 2 34 0;
#X connect 31 3 21 0;
#X connect 31 4 20 0;
#X connect 32 0 22 0;
#X connect 33 0 22 0;
#X connect 34 0 22 0;
#X connect 35 0 11 0;
#X connect 36 0 29 0;
#X connect 36 0 28 0;
#X connect 36 0 37 0;
#X connect 36 0 27 0;
#X connect 36 1 29 1;
#X connect 36 1 28 1;
#X connect 36 1 37 1;
#X connect 36 1 27 1;
#X connect 37 0 25 0;
#X connect 38 0 0 0;
#X connect 39 0 1 0;
#X connect 40 0 2 0;
#X connect 41 0 7 0;
#X connect 42 0 23 0;
#X connect 45 0 9 5;
#X connect 46 0 5 0;
#X connect 47 0 8 0;
#X connect 48 0 13 1;
#X connect 48 0 35 1;
#X connect 52 0 9 0;
#X restore 9 302 pd env4;
#N canvas 650 23 348 248 fb1 0;
#X obj 44 124 fexpr~ cos($x1*6.283185+$f2*$y1);
#X obj 44 99 osc~;
#X floatatom 44 1 5 0 0 0 - - -, f 5;
#X obj 16 14 vsl 15 128 0 127 0 0 empty empty empty 0 -9 0 10 -262144
-1 -1 0 1;
#X floatatom 265 99 5 0 0 0 - - -, f 5;
#X obj 44 154 *~;
#X floatatom 122 184 5 0 0 0 - - -, f 5;
#X obj 265 73 int;
#X floatatom 44 75 5 0 0 0 - - -, f 5;
#X obj 44 25 t b f;
#X obj 44 50 +;
#X floatatom 102 50 5 0 0 0 - - -, f 5;
#X obj 102 24 int;
#X obj 44 -24 r \$0_op1;
#X obj 102 -2 r \$0_fbdetune1;
#X obj 265 46 r \$0_fbint1;
#X obj 122 153 r \$0_fbamnt1;
#X obj 44 184 s~ \$0_fb1;
#X connect 0 0 5 0;
#X connect 1 0 0 0;
#X connect 2 0 9 0;
#X connect 4 0 0 1;
#X connect 5 0 17 0;
#X connect 6 0 5 1;
#X connect 7 0 4 0;
#X connect 8 0 1 0;
#X connect 9 0 10 0;
#X connect 9 0 11 0;
#X connect 9 1 10 1;
#X connect 10 0 8 0;
#X connect 11 0 10 0;
#X connect 12 0 11 0;
#X connect 13 0 2 0;
#X connect 14 0 12 0;
#X connect 15 0 7 0;
#X connect 16 0 6 0;
#X restore 9 334 pd fb1;
#N canvas 642 25 382 254 fb2 0;
#X obj 44 134 fexpr~ cos($x1*6.283185+$f2*$y1);
#X obj 44 109 osc~;
#X floatatom 44 11 5 0 0 0 - - -, f 5;
#X obj 16 24 vsl 15 128 0 127 0 0 empty empty empty 0 -9 0 10 -262144
-1 -1 0 1;
#X floatatom 265 109 5 0 0 0 - - -, f 5;
#X obj 44 164 *~;
#X floatatom 122 194 5 0 0 0 - - -, f 5;
#X obj 265 83 int;
#X floatatom 44 85 5 0 0 0 - - -, f 5;
#X obj 44 35 t b f;
#X obj 44 60 +;
#X floatatom 102 60 5 0 0 0 - - -, f 5;
#X obj 102 34 int;
#X obj 44 -14 r \$0_op2;
#X obj 102 8 r \$0_fbdetune2;
#X obj 265 56 r \$0_fbint2;
#X obj 122 163 r \$0_fbamnt2;
#X obj 44 194 s~ \$0_fb2;
#X connect 0 0 5 0;
#X connect 1 0 0 0;
#X connect 2 0 9 0;
#X connect 4 0 0 1;
#X connect 5 0 17 0;
#X connect 6 0 5 1;
#X connect 7 0 4 0;
#X connect 8 0 1 0;
#X connect 9 0 10 0;
#X connect 9 0 11 0;
#X connect 9 1 10 1;
#X connect 10 0 8 0;
#X connect 11 0 10 0;
#X connect 12 0 11 0;
#X connect 13 0 2 0;
#X connect 14 0 12 0;
#X connect 15 0 7 0;
#X connect 16 0 6 0;
#X restore 9 359 pd fb2;
#N canvas 661 98 361 252 fb3 0;
#X obj 44 144 fexpr~ cos($x1*6.283185+$f2*$y1);
#X obj 44 119 osc~;
#X floatatom 44 21 5 0 0 0 - - -, f 5;
#X obj 16 34 vsl 15 128 0 127 0 0 empty empty empty 0 -9 0 10 -262144
-1 -1 0 1;
#X floatatom 265 119 5 0 0 0 - - -, f 5;
#X obj 44 174 *~;
#X floatatom 122 204 5 0 0 0 - - -, f 5;
#X obj 265 93 int;
#X floatatom 44 95 5 0 0 0 - - -, f 5;
#X obj 44 45 t b f;
#X obj 44 70 +;
#X floatatom 102 70 5 0 0 0 - - -, f 5;
#X obj 102 44 int;
#X obj 44 -4 r \$0_op3;
#X obj 102 18 r \$0_fbdetune3;
#X obj 265 66 r \$0_fbint3;
#X obj 122 173 r \$0_fbamnt3;
#X obj 44 204 s~ \$0_fb3;
#X connect 0 0 5 0;
#X connect 1 0 0 0;
#X connect 2 0 9 0;
#X connect 4 0 0 1;
#X connect 5 0 17 0;
#X connect 6 0 5 1;
#X connect 7 0 4 0;
#X connect 8 0 1 0;
#X connect 9 0 10 0;
#X connect 9 0 11 0;
#X connect 9 1 10 1;
#X connect 10 0 8 0;
#X connect 11 0 10 0;
#X connect 12 0 11 0;
#X connect 13 0 2 0;
#X connect 14 0 12 0;
#X connect 15 0 7 0;
#X connect 16 0 6 0;
#X restore 9 384 pd fb3;
#N canvas 699 136 361 252 fb4 0;
#X obj 44 144 fexpr~ cos($x1*6.283185+$f2*$y1);
#X obj 44 119 osc~;
#X floatatom 44 21 5 0 0 0 - - -, f 5;
#X obj 16 34 vsl 15 128 0 127 0 0 empty empty empty 0 -9 0 10 -262144
-1 -1 0 1;
#X floatatom 265 119 5 0 0 0 - - -, f 5;
#X obj 44 174 *~;
#X floatatom 122 204 5 0 0 0 - - -, f 5;
#X obj 265 93 int;
#X floatatom 44 95 5 0 0 0 - - -, f 5;
#X obj 44 45 t b f;
#X obj 44 70 +;
#X floatatom 102 70 5 0 0 0 - - -, f 5;
#X obj 102 44 int;
#X obj 44 -4 r \$0_op4;
#X obj 102 18 r \$0_fbdetune4;
#X obj 265 66 r \$0_fbint4;
#X obj 122 173 r \$0_fbamnt4;
#X obj 44 204 s~ \$0_fb4;
#X connect 0 0 5 0;
#X connect 1 0 0 0;
#X connect 2 0 9 0;
#X connect 4 0 0 1;
#X connect 5 0 17 0;
#X connect 6 0 5 1;
#X connect 7 0 4 0;
#X connect 8 0 1 0;
#X connect 9 0 10 0;
#X connect 9 0 11 0;
#X connect 9 1 10 1;
#X connect 10 0 8 0;
#X connect 11 0 10 0;
#X connect 12 0 11 0;
#X connect 13 0 2 0;
#X connect 14 0 12 0;
#X connect 15 0 7 0;
#X connect 16 0 6 0;
#X restore 9 409 pd fb4;
#N canvas 493 23 172 228 midi 0;
#X obj 20 65 mtof;
#X floatatom 20 90 5 0 0 0 - - -, f 5;
#X floatatom 20 43 5 0 0 0 - - -, f 5;
#X obj 20 20 r \$0_midi_note;
#X obj 20 114 s \$0_note;
#X obj 64 43 r \$0_mn;
#X connect 0 0 1 0;
#X connect 1 0 4 0;
#X connect 2 0 0 0;
#X connect 3 0 2 0;
#X connect 5 0 2 0;
#X restore 8 440 pd midi note;
#N canvas 766 238 668 436 op1 0;
#X floatatom 73 100 5 0 0 0 - - -, f 5;
#X floatatom 73 178 5 0 0 0 - - -, f 5;
#X obj 73 155 *;
#X obj 73 122 t b f;
#X obj 143 74 sel 0 1 2 3 4 5 6 7 8 9 10 11 12 13 14 15;
#X msg 143 98 0.5;
#X msg 173 98 1;
#X msg 203 98 2;
#X msg 233 98 3;
#X msg 263 98 4;
#X msg 293 98 5;
#X msg 323 98 6;
#X msg 353 98 7;
#X msg 383 98 8;
#X msg 413 98 9;
#X msg 473 98 11;
#X msg 503 98 12;
#X msg 533 98 13;
#X msg 563 98 14;
#X msg 593 98 15;
#X msg 623 98 16;
#X floatatom 143 51 5 0 0 0 - - -, f 5;
#X obj 143 27 int;
#X floatatom 143 123 5 0 0 0 - - -, f 5;
#X msg 443 98 10;
#X floatatom 73 249 5 0 0 0 - - -, f 5;
#X obj 37 77 vsl 15 128 0 2 0 0 op1f empty empty 0 -9 0 10 -262144
-1 -1 0 1;
#X obj 73 201 t b f;
#X obj 73 225 +;
#X obj 13 24 loadbang;
#X msg 13 49 1;
#X obj 13 77 vsl 15 128 0 16 0 0 op1c op1c empty 0 -9 0 10 -262144
-1 -1 794 1;
#N canvas 580 23 1090 699 lfo1 0;
#X obj 64 698 *;
#X obj 20 -89 loadbang;
#X msg 111 -38 bang;
#X obj 64 723 outlet;
#X obj 107 115 hsl 128 10 0.01 10 1 1 empty LFOspd frq 0 5 0 10 -262144
-1 -1 5347 1;
#X obj 107 139 hsl 128 10 0 1 0 1 empty \$0_LFOamt am 0 5 0 10 -262144
-1 -1 127 1;
#X obj 92 -4 metro 5;
#X obj 2 37 float;
#X obj 9 115 + 1;
#X obj 59 83 / 200;
#X obj 44 51 wrap;
#X obj 9 536 cos;
#X obj 8 502 * 6.28319;
#X obj 120 -85 inlet;
#X text 124 -106 sync;
#X obj 61 672 * 64;
#X msg 147 -37 0;
#X obj 218 230 -;
#X obj 210 182 t b f;
#X msg 211 208 1;
#X obj 143 215 / 2;
#X obj 142 241 + 0.5;
#X msg 235 336 1;
#X obj 237 312 t b f;
#X text 64 315 m;
#X obj 249 362 -;
#X obj 262 386 /;
#X msg 298 288 1;
#X obj 300 264 t b f;
#X obj 318 316 -;
#X text 131 269 x1;
#X obj 220 273 *;
#X text 249 275 y1;
#X text 269 414 m2;
#X text 151 373 b2;
#X text 217 342 ak;
#X text 340 301 gk;
#X obj 197 158 clip 0 0.99;
#X text 41 195 9 klasse geometrie...;
#X obj 8 167 t f f;
#X obj 17 275 clip 0 0.5;
#X obj 128 298 clip 0.5 1;
#X obj 33 322 *;
#X obj 125 371 -;
#X obj 165 419 *;
#X obj 107 445 +;
#X obj 107 127 hsl 128 10 0 1 0 1 empty empty geo 0 5 0 10 -262144
-1 -1 0 1;
#X obj 225 102 bng 12 250 50 0 empty empty empty 17 7 0 10 -262144
-1 -1;
#X text 242 102 start;
#X obj 114 -62 t b b;
#X obj 185 102 hradio 12 1 1 3 empty empty s_s_p 2 5 0 10 -262144 -1
-128992 0;
#X obj 113 500 * 2;
#X obj 113 523 - 1;
#X obj 163 501 >= 0.5;
#X obj 164 533 * 2;
#X obj 164 556 - 1;
#X obj 56 564 *;
#X obj 57 535 == 0;
#X obj 100 571 *;
#X obj 119 549 == 1;
#X obj 171 601 *;
#X obj 190 579 == 2;
#X obj 89 470 t f f f;
#X obj 106 618 +;
#X obj 80 647 +;
#X connect 0 0 3 0;
#X connect 1 0 49 0;
#X connect 2 0 6 0;
#X connect 4 0 9 0;
#X connect 5 0 0 1;
#X connect 6 0 7 0;
#X connect 7 0 8 0;
#X connect 8 0 10 0;
#X connect 8 0 39 0;
#X connect 9 0 8 1;
#X connect 10 0 7 1;
#X connect 11 0 56 0;
#X connect 12 0 11 0;
#X connect 13 0 49 0;
#X connect 15 0 0 0;
#X connect 16 0 7 1;
#X connect 17 0 31 1;
#X connect 17 0 42 1;
#X connect 18 0 19 0;
#X connect 18 1 17 1;
#X connect 19 0 17 0;
#X connect 20 0 21 0;
#X connect 21 0 28 0;
#X connect 21 0 31 0;
#X connect 21 0 40 2;
#X connect 21 0 41 1;
#X connect 21 0 43 1;
#X connect 22 0 25 0;
#X connect 23 0 22 0;
#X connect 23 1 25 1;
#X connect 25 0 26 0;
#X connect 26 0 44 1;
#X connect 27 0 29 0;
#X connect 28 0 27 0;
#X connect 28 1 29 1;
#X connect 29 0 26 1;
#X connect 31 0 23 0;
#X connect 37 0 18 0;
#X connect 37 0 20 0;
#X connect 39 0 40 0;
#X connect 39 1 41 0;
#X connect 40 0 42 0;
#X connect 41 0 43 0;
#X connect 42 0 45 0;
#X connect 43 0 44 0;
#X connect 44 0 45 1;
#X connect 45 0 62 0;
#X connect 46 0 37 0;
#X connect 47 0 2 0;
#X connect 49 0 2 0;
#X connect 49 1 16 0;
#X connect 50 0 57 0;
#X connect 50 0 59 0;
#X connect 50 0 61 0;
#X connect 51 0 52 0;
#X connect 52 0 58 0;
#X connect 53 0 54 0;
#X connect 54 0 55 0;
#X connect 55 0 60 0;
#X connect 56 0 64 0;
#X connect 57 0 56 1;
#X connect 58 0 63 0;
#X connect 59 0 58 1;
#X connect 60 0 63 1;
#X connect 61 0 60 1;
#X connect 62 0 12 0;
#X connect 62 1 51 0;
#X connect 62 2 53 0;
#X connect 63 0 64 1;
#X connect 64 0 15 0;
#X coords 0 -1 1 1 140 50 1 100 100;
#X restore 171 346 pd lfo1;
#X obj 171 319 r m;
#X floatatom 105 299 5 0 0 0 - - -, f 5;
#X obj 74 299 +;
#X floatatom 74 325 5 0 0 0 - - -, f 5;
#X obj 73 274 t b f;
#X obj 394 194 int;
#X obj 394 221 / 100;
#X floatatom 394 248 5 0 0 0 - - -, f 5;
#X floatatom 118 178 5 0 0 0 - - -, f 5;
#X floatatom 208 178 5 0 0 0 - - -, f 5;
#X obj 118 154 / 100;
#X obj 118 226 *;
#X floatatom 118 249 5 0 0 0 - - -, f 5;
#X obj 163 178 t b f;
#X obj 143 4 r \$0_op1c;
#X obj 73 76 r \$0_note;
#X obj 208 153 r \$0_1f;
#X obj 74 350 s \$0_op1;
#X obj 394 167 r \$0_op1fmini;
#X connect 0 0 3 0;
#X connect 1 0 27 0;
#X connect 1 0 43 0;
#X connect 2 0 1 0;
#X connect 3 0 2 0;
#X connect 3 1 2 1;
#X connect 4 0 5 0;
#X connect 4 1 6 0;
#X connect 4 2 7 0;
#X connect 4 3 8 0;
#X connect 4 4 9 0;
#X connect 4 5 10 0;
#X connect 4 6 11 0;
#X connect 4 7 12 0;
#X connect 4 8 13 0;
#X connect 4 9 14 0;
#X connect 4 10 24 0;
#X connect 4 11 15 0;
#X connect 4 12 16 0;
#X connect 4 13 17 0;
#X connect 4 14 18 0;
#X connect 4 15 19 0;
#X connect 4 16 20 0;
#X connect 5 0 23 0;
#X connect 6 0 23 0;
#X connect 7 0 23 0;
#X connect 8 0 23 0;
#X connect 9 0 23 0;
#X connect 10 0 23 0;
#X connect 11 0 23 0;
#X connect 12 0 23 0;
#X connect 13 0 23 0;
#X connect 14 0 23 0;
#X connect 15 0 23 0;
#X connect 16 0 23 0;
#X connect 17 0 23 0;
#X connect 18 0 23 0;
#X connect 19 0 23 0;
#X connect 20 0 23 0;
#X connect 21 0 4 0;
#X connect 22 0 21 0;
#X connect 23 0 2 0;
#X connect 24 0 23 0;
#X connect 25 0 37 0;
#X connect 27 0 28 0;
#X connect 27 1 28 1;
#X connect 28 0 25 0;
#X connect 29 0 30 0;
#X connect 30 0 31 0;
#X connect 30 0 21 0;
#X connect 32 0 34 0;
#X connect 33 0 32 0;
#X connect 34 0 35 0;
#X connect 35 0 36 0;
#X connect 36 0 50 0;
#X connect 37 0 35 0;
#X connect 37 1 35 1;
#X connect 38 0 39 0;
#X connect 39 0 40 0;
#X connect 41 0 44 0;
#X connect 42 0 46 0;
#X connect 43 0 41 0;
#X connect 44 0 45 0;
#X connect 45 0 28 0;
#X connect 46 0 44 0;
#X connect 46 1 44 1;
#X connect 47 0 22 0;
#X connect 48 0 0 0;
#X connect 49 0 42 0;
#X connect 51 0 38 0;
#X restore 8 463 pd op1;
#N canvas 597 23 646 331 op2 0;
#X floatatom 65 108 5 0 0 0 - - -, f 5;
#X floatatom 65 183 5 0 0 0 - - -, f 5;
#X obj 65 160 *;
#X obj 13 84 vsl 15 128 0 16 0 0 op2c course1 empty 0 -9 0 10 -262144
-1 -1 794 1;
#X obj 65 130 t b f;
#X obj 135 82 sel 0 1 2 3 4 5 6 7 8 9 10 11 12 13 14 15;
#X msg 135 106 0.5;
#X msg 165 106 1;
#X msg 195 106 2;
#X msg 225 106 3;
#X msg 255 106 4;
#X msg 285 106 5;
#X msg 315 106 6;
#X msg 345 106 7;
#X msg 375 106 8;
#X msg 405 106 9;
#X msg 465 106 11;
#X msg 495 106 12;
#X msg 525 106 13;
#X msg 555 106 14;
#X msg 585 106 15;
#X msg 615 106 16;
#X floatatom 135 59 5 0 0 0 - - -, f 5;
#X obj 135 35 int;
#X floatatom 135 131 5 0 0 0 - - -, f 5;
#X msg 435 106 10;
#X floatatom 65 254 5 0 0 0 - - -, f 5;
#X obj 37 84 vsl 15 128 0 2 0 0 op2f op2f empty 0 -9 0 10 -262144 -1
-1 0 1;
#X obj 65 206 t b f;
#X obj 65 230 +;
#X obj 13 30 loadbang;
#X msg 13 55 1;
#X floatatom 115 183 5 0 0 0 - - -, f 5;
#X floatatom 205 183 5 0 0 0 - - -, f 5;
#X obj 115 159 / 100;
#X obj 115 231 *;
#X floatatom 115 254 5 0 0 0 - - -, f 5;
#X obj 160 183 t b f;
#X obj 135 11 r \$0_op2c;
#X obj 65 84 r \$0_note;
#X obj 205 158 r \$0_2f;
#X obj 65 277 s \$0_op2;
#X connect 0 0 4 0;
#X connect 1 0 28 0;
#X connect 1 0 34 0;
#X connect 2 0 1 0;
#X connect 4 0 2 0;
#X connect 4 1 2 1;
#X connect 5 0 6 0;
#X connect 5 1 7 0;
#X connect 5 2 8 0;
#X connect 5 3 9 0;
#X connect 5 4 10 0;
#X connect 5 5 11 0;
#X connect 5 6 12 0;
#X connect 5 7 13 0;
#X connect 5 8 14 0;
#X connect 5 9 15 0;
#X connect 5 10 25 0;
#X connect 5 11 16 0;
#X connect 5 12 17 0;
#X connect 5 13 18 0;
#X connect 5 14 19 0;
#X connect 5 15 20 0;
#X connect 5 16 21 0;
#X connect 6 0 24 0;
#X connect 7 0 24 0;
#X connect 8 0 24 0;
#X connect 9 0 24 0;
#X connect 10 0 24 0;
#X connect 11 0 24 0;
#X connect 12 0 24 0;
#X connect 13 0 24 0;
#X connect 14 0 24 0;
#X connect 15 0 24 0;
#X connect 16 0 24 0;
#X connect 17 0 24 0;
#X connect 18 0 24 0;
#X connect 19 0 24 0;
#X connect 20 0 24 0;
#X connect 21 0 24 0;
#X connect 22 0 5 0;
#X connect 23 0 22 0;
#X connect 24 0 2 0;
#X connect 25 0 24 0;
#X connect 26 0 41 0;
#X connect 28 0 29 0;
#X connect 28 1 29 1;
#X connect 29 0 26 0;
#X connect 30 0 31 0;
#X connect 31 0 3 0;
#X connect 32 0 35 0;
#X connect 33 0 37 0;
#X connect 34 0 32 0;
#X connect 35 0 36 0;
#X connect 36 0 29 0;
#X connect 37 0 35 0;
#X connect 37 1 35 1;
#X connect 38 0 23 0;
#X connect 39 0 0 0;
#X connect 40 0 33 0;
#X restore 8 485 pd op2;
#N canvas 594 354 669 302 op3 0;
#X floatatom 64 108 5 0 0 0 - - -, f 5;
#X floatatom 64 183 5 0 0 0 - - -, f 5;
#X obj 64 160 *;
#X obj 13 86 vsl 15 128 0 16 0 0 empty op3c empty 0 -9 0 10 -262144
-1 -1 794 1;
#X obj 64 130 t b f;
#X obj 134 82 sel 0 1 2 3 4 5 6 7 8 9 10 11 12 13 14 15;
#X msg 134 106 0.5;
#X msg 164 106 1;
#X msg 194 106 2;
#X msg 224 106 3;
#X msg 254 106 4;
#X msg 284 106 5;
#X msg 314 106 6;
#X msg 344 106 7;
#X msg 374 106 8;
#X msg 404 106 9;
#X msg 464 106 11;
#X msg 494 106 12;
#X msg 524 106 13;
#X msg 554 106 14;
#X msg 584 106 15;
#X msg 614 106 16;
#X floatatom 134 59 5 0 0 0 - - -, f 5;
#X obj 134 35 int;
#X floatatom 134 131 5 0 0 0 - - -, f 5;
#X msg 434 106 10;
#X floatatom 64 254 5 0 0 0 - - -, f 5;
#X obj 37 86 vsl 15 128 0 2 0 0 op3f op3f empty 0 -9 0 10 -262144 -1
-1 0 1;
#X obj 64 206 t b f;
#X obj 64 230 +;
#X obj 13 32 loadbang;
#X msg 13 57 1;
#X floatatom 114 183 5 0 0 0 - - -, f 5;
#X floatatom 204 183 5 0 0 0 - - -, f 5;
#X obj 114 159 / 100;
#X obj 114 231 *;
#X floatatom 114 254 5 0 0 0 - - -, f 5;
#X obj 159 183 t b f;
#X obj 134 11 r \$0_op3c;
#X obj 64 84 r \$0_note;
#X obj 204 158 r \$0_3f;
#X obj 64 277 s \$0_op3;
#X connect 0 0 4 0;
#X connect 1 0 28 0;
#X connect 1 0 34 0;
#X connect 2 0 1 0;
#X connect 4 0 2 0;
#X connect 4 1 2 1;
#X connect 5 0 6 0;
#X connect 5 1 7 0;
#X connect 5 2 8 0;
#X connect 5 3 9 0;
#X connect 5 4 10 0;
#X connect 5 5 11 0;
#X connect 5 6 12 0;
#X connect 5 7 13 0;
#X connect 5 8 14 0;
#X connect 5 9 15 0;
#X connect 5 10 25 0;
#X connect 5 11 16 0;
#X connect 5 12 17 0;
#X connect 5 13 18 0;
#X connect 5 14 19 0;
#X connect 5 15 20 0;
#X connect 5 16 21 0;
#X connect 6 0 24 0;
#X connect 7 0 24 0;
#X connect 8 0 24 0;
#X connect 9 0 24 0;
#X connect 10 0 24 0;
#X connect 11 0 24 0;
#X connect 12 0 24 0;
#X connect 13 0 24 0;
#X connect 14 0 24 0;
#X connect 15 0 24 0;
#X connect 16 0 24 0;
#X connect 17 0 24 0;
#X connect 18 0 24 0;
#X connect 19 0 24 0;
#X connect 20 0 24 0;
#X connect 21 0 24 0;
#X connect 22 0 5 0;
#X connect 23 0 22 0;
#X connect 24 0 2 0;
#X connect 25 0 24 0;
#X connect 26 0 41 0;
#X connect 28 0 29 0;
#X connect 28 1 29 1;
#X connect 29 0 26 0;
#X connect 30 0 31 0;
#X connect 31 0 3 0;
#X connect 31 0 22 0;
#X connect 32 0 35 0;
#X connect 33 0 37 0;
#X connect 34 0 32 0;
#X connect 35 0 36 0;
#X connect 36 0 29 0;
#X connect 37 0 35 0;
#X connect 37 1 35 1;
#X connect 38 0 23 0;
#X connect 39 0 0 0;
#X connect 40 0 33 0;
#X restore 8 507 pd op3;
#N canvas 594 354 662 325 op4 0;
#X floatatom 64 108 5 0 0 0 - - -, f 5;
#X floatatom 64 183 5 0 0 0 - - -, f 5;
#X obj 64 160 *;
#X obj 13 86 vsl 15 128 0 16 0 0 empty op3c empty 0 -9 0 10 -262144
-1 -1 794 1;
#X obj 64 130 t b f;
#X obj 134 82 sel 0 1 2 3 4 5 6 7 8 9 10 11 12 13 14 15;
#X msg 134 106 0.5;
#X msg 164 106 1;
#X msg 194 106 2;
#X msg 224 106 3;
#X msg 254 106 4;
#X msg 284 106 5;
#X msg 314 106 6;
#X msg 344 106 7;
#X msg 374 106 8;
#X msg 404 106 9;
#X msg 464 106 11;
#X msg 494 106 12;
#X msg 524 106 13;
#X msg 554 106 14;
#X msg 584 106 15;
#X msg 614 106 16;
#X floatatom 134 59 5 0 0 0 - - -, f 5;
#X obj 134 35 int;
#X floatatom 134 131 5 0 0 0 - - -, f 5;
#X msg 434 106 10;
#X floatatom 64 254 5 0 0 0 - - -, f 5;
#X obj 37 86 vsl 15 128 0 2 0 0 op3f op3f empty 0 -9 0 10 -262144 -1
-1 0 1;
#X obj 64 206 t b f;
#X obj 64 230 +;
#X obj 13 32 loadbang;
#X msg 13 57 1;
#X floatatom 114 183 5 0 0 0 - - -, f 5;
#X floatatom 204 183 5 0 0 0 - - -, f 5;
#X obj 114 159 / 100;
#X obj 114 231 *;
#X floatatom 114 254 5 0 0 0 - - -, f 5;
#X obj 159 183 t b f;
#X obj 134 11 r \$0_op4c;
#X obj 64 84 r \$0_note;
#X obj 204 158 r \$0_4f;
#X obj 64 277 s \$0_op4;
#X connect 0 0 4 0;
#X connect 1 0 28 0;
#X connect 1 0 34 0;
#X connect 2 0 1 0;
#X connect 4 0 2 0;
#X connect 4 1 2 1;
#X connect 5 0 6 0;
#X connect 5 1 7 0;
#X connect 5 2 8 0;
#X connect 5 3 9 0;
#X connect 5 4 10 0;
#X connect 5 5 11 0;
#X connect 5 6 12 0;
#X connect 5 7 13 0;
#X connect 5 8 14 0;
#X connect 5 9 15 0;
#X connect 5 10 25 0;
#X connect 5 11 16 0;
#X connect 5 12 17 0;
#X connect 5 13 18 0;
#X connect 5 14 19 0;
#X connect 5 15 20 0;
#X connect 5 16 21 0;
#X connect 6 0 24 0;
#X connect 7 0 24 0;
#X connect 8 0 24 0;
#X connect 9 0 24 0;
#X connect 10 0 24 0;
#X connect 11 0 24 0;
#X connect 12 0 24 0;
#X connect 13 0 24 0;
#X connect 14 0 24 0;
#X connect 15 0 24 0;
#X connect 16 0 24 0;
#X connect 17 0 24 0;
#X connect 18 0 24 0;
#X connect 19 0 24 0;
#X connect 20 0 24 0;
#X connect 21 0 24 0;
#X connect 22 0 5 0;
#X connect 23 0 22 0;
#X connect 24 0 2 0;
#X connect 25 0 24 0;
#X connect 26 0 41 0;
#X connect 28 0 29 0;
#X connect 28 1 29 1;
#X connect 29 0 26 0;
#X connect 30 0 31 0;
#X connect 31 0 3 0;
#X connect 31 0 22 0;
#X connect 32 0 35 0;
#X connect 33 0 37 0;
#X connect 34 0 32 0;
#X connect 35 0 36 0;
#X connect 36 0 29 0;
#X connect 37 0 35 0;
#X connect 37 1 35 1;
#X connect 38 0 23 0;
#X connect 39 0 0 0;
#X connect 40 0 33 0;
#X restore 8 529 pd op4;
#N canvas 761 274 386 187 opbox 0;
#X obj 194 66 -;
#X floatatom 194 118 5 0 0 0 - - -, f 5;
#X obj 194 92 * -1;
#X obj 194 40 17 \$1;
#X obj 104 66 -;
#X floatatom 104 118 5 0 0 0 - - -, f 5;
#X obj 104 92 * -1;
#X obj 104 40 17 \$1;
#X obj 14 66 -;
#X floatatom 14 118 5 0 0 0 - - -, f 5;
#X obj 14 92 * -1;
#X obj 14 40 17 \$1;
#X obj 284 66 -;
#X floatatom 284 118 5 0 0 0 - - -, f 5;
#X obj 284 92 * -1;
#X obj 284 40 17 \$1;
#X obj 14 13 r \$0_op1c;
#X obj 14 144 s \$0_opbox1;
#X obj 104 13 r \$0_op2c;
#X obj 104 144 s \$0_opbox2;
#X obj 194 13 r \$0_op3c;
#X obj 194 144 s \$0_opbox3;
#X obj 284 13 r \$0_op4c;
#X obj 284 144 s \$0_opbox4;
#X connect 0 0 2 0;
#X connect 1 0 21 0;
#X connect 2 0 1 0;
#X connect 3 0 0 0;
#X connect 4 0 6 0;
#X connect 5 0 19 0;
#X connect 6 0 5 0;
#X connect 7 0 4 0;
#X connect 8 0 10 0;
#X connect 9 0 17 0;
#X connect 10 0 9 0;
#X connect 11 0 8 0;
#X connect 12 0 14 0;
#X connect 13 0 23 0;
#X connect 14 0 13 0;
#X connect 15 0 12 0;
#X connect 16 0 11 0;
#X connect 18 0 7 0;
#X connect 20 0 3 0;
#X connect 22 0 15 0;
#X restore 8 564 pd opbox;
#X obj 19 74 metro 40;
#X obj 9 154 outlet;
#X obj 165 583 outlet~;
#X obj 165 396 hip~;
#X obj 190 369 r \$0_hip;
#X obj 165 499 hip~;
#X obj 190 472 r \$0_hip;
#X obj 165 552 lop~;
#X obj 190 524 r \$0_lop;
#X connect 0 0 27 0;
#X connect 1 0 0 0;
#X connect 2 0 3 0;
#X connect 3 0 28 0;
#X connect 4 0 19 0;
#X connect 5 0 6 0;
#X connect 6 0 29 0;
#X connect 13 0 14 0;
#X connect 14 0 50 0;
#X connect 15 0 49 0;
#X connect 19 0 52 0;
#X connect 20 0 54 0;
#X connect 21 0 22 0;
#X connect 22 0 30 0;
#X connect 23 0 1 0;
#X connect 24 0 2 0;
#X connect 25 0 5 0;
#X connect 26 0 21 0;
#X connect 31 0 4 0;
#X connect 32 0 20 1;
#X connect 33 0 13 0;
#X connect 49 0 13 0;
#X connect 52 0 20 0;
#X connect 53 0 52 1;
#X connect 54 0 56 0;
#X connect 55 0 54 1;
#X connect 56 0 51 0;
#X connect 57 0 56 1;
#X restore 17 16 pd wires;
#N canvas 647 27 832 751 presets 0;
#X obj 7 32 bng 15 250 50 0 empty empty empty 17 7 0 10 -262144 -1
-1;
#X obj 7 52 pack \$0;
#X obj 121 52 pack \$0;
#X obj 121 32 bng 15 250 50 0 empty empty empty 17 7 0 10 -262144 -1
-1;
#X obj 7 7 inlet;
#X obj 121 7 inlet;
#X obj 232 52 pack \$0;
#X obj 232 32 bng 15 250 50 0 empty empty empty 17 7 0 10 -262144 -1
-1;
#X obj 232 7 inlet;
#X msg 702 78 \; \$1_mn 12 \; \$1_hp 600 \; \$1_algo 0 \; \$1_LFOs
4 \; \$1_LFOa 0 \; \$1_e1a 1000 \; \$1_e1d 1000 \; \$1_e1s 0.7 \; \$1_e1r
2000 \;;
#X msg 596 78 \; \$1_mn 120 \; \$1_hp 3000 \; \$1_lp 43 \; \$1_algo
3 \; \$1_LFOs 4 \; \$1_LFOa 0 \; \$1_o1c 3 \; \$1_o1f 0 \; \$1_e1a
126 \; \$1_e1d 200 \; \$1_e1s 20 \; \$1_e1r 2000 \; \$1_scl1 3 \; \$1_hld1
1 \; \$1_lvl1 1 \; \$1_fb1 0 \; \$1_fi1 0 \; \$1_fd1 0 \; \$1_o2c 3
\; \$1_o2f 0 \; \$1_e2a 0 \; \$1_e2d 2930 \; \$1_e2s 0 \; \$1_e2r 0
\; \$1_scl2 4 \; \$1_hld2 1 \; \$1_lvl2 0.54 \; \$1_fb2 0 \; \$1_fi2
0 \; \$1_fd2 0 \; \$1_o3c 14 \; \$1_o3f 0 \; \$1_e3a 0 \; \$1_e3d 3000
\; \$1_e3s 0 \; \$1_e3r 0 \; \$1_scl3 3 \; \$1_hld3 1 \; \$1_lvl3 0
\; \$1_fb3 0 \; \$1_fi3 0 \; \$1_fd3 0 \; \$1_o4c 1 \; \$1_o4f 0 \;
\$1_e4a 0 \; \$1_e4d 3000 \; \$1_e4s 0 \; \$1_e4r 0 \; \$1_scl4 3 \;
\$1_hld4 1 \; \$1_lvl4 0 \; \$1_fb4 0 \; \$1_fi4 0 \; \$1_fd4 0 \;
;
#X msg 121 77 \; \$1_mn 28 \; \$1_hp 1200 \; \$1_lp 850 \; \$1_algo
3 \; \$1_LFOs 4 \; \$1_LFOa 0 \; \$1_rand 0 \; \$1_randatt 0 \; \$1_o1c
4 \; \$1_o1f 0 \; \$1_e1a 3600 \; \$1_e1d 3000 \; \$1_e1s 70 \; \$1_e1r
2770 \; \$1_scl1 2 \; \$1_hld1 1 \; \$1_lvl1 1 \; \$1_fb1 0 \; \$1_fi1
0 \; \$1_fd1 0 \; \$1_o2c 2 \; \$1_o2f 38 \; \$1_e2a 0 \; \$1_e2d 3000
\; \$1_e2s 0 \; \$1_e2r 0 \; \$1_scl2 3 \; \$1_hld2 0 \; \$1_lvl2 0.084
\; \$1_fb2 0.016 \; \$1_fi2 0 \; \$1_fd2 0 \; \$1_o3c 1 \; \$1_o3f
0 \; \$1_e3a 0 \; \$1_e3d 3000 \; \$1_e3s 0 \; \$1_e3r 0 \; \$1_scl3
3 \; \$1_hld3 1 \; \$1_lvl3 0 \; \$1_fb3 0 \; \$1_fi3 0 \; \$1_fd3
0 \; \$1_o4c 1 \; \$1_o4f 0 \; \$1_e4a 0 \; \$1_e4d 3000 \; \$1_e4s
0 \; \$1_e4r 0 \; \$1_scl4 3 \; \$1_hld4 1 \; \$1_lvl4 0 \; \$1_fb4
0 \; \$1_fi4 0 \; \$1_fd4 0 \;;
#X msg 232 77 \; \$1_mn 120 \; \$1_hp 1866 \; \$1_lp 28 \; \$1_algo
3 \; \$1_LFOs 4 \; \$1_LFOa 0 \; \$1_rand 1 \; \$1_randatt 0 \; \$1_o1c
6 \; \$1_o1f 0 \; \$1_e1a 126 \; \$1_e1d 200 \; \$1_e1s 20 \; \$1_e1r
2660 \; \$1_scl1 3 \; \$1_hld1 1 \; \$1_lvl1 1 \; \$1_fb1 0 \; \$1_fi1
0 \; \$1_fd1 0 \; \$1_o2c 3 \; \$1_o2f 0 \; \$1_e2a 0 \; \$1_e2d 568
\; \$1_e2s 43 \; \$1_e2r 2300 \; \$1_scl2 4 \; \$1_hld2 1 \; \$1_lvl2
0 \; \$1_fb2 0 \; \$1_fi2 0 \; \$1_fd2 0 \; \$1_o3c 14 \; \$1_o3f 0
\; \$1_e3a 0 \; \$1_e3d 3000 \; \$1_e3s 0 \; \$1_e3r 0 \; \$1_scl3
3 \; \$1_hld3 1 \; \$1_lvl3 0 \; \$1_fb3 0 \; \$1_fi3 0 \; \$1_fd3
0 \; \$1_o4c 1 \; \$1_o4f 0 \; \$1_e4a 0 \; \$1_e4d 3000 \; \$1_e4s
0 \; \$1_e4r 0 \; \$1_scl4 3 \; \$1_hld4 1 \; \$1_lvl4 0 \; \$1_fb4
0 \; \$1_fi4 0 \; \$1_fd4 0 \;;
#X msg 7 78 \; \$1_mn 30 \; \$1_hp 1930 \; \$1_lp 1000 \; \$1_algo
3 \; \$1_LFOs 4 \; \$1_LFOa 0.01 \; \$1_rand 0 \; \$1_randatt 1 \;
\$1_o1c 1 \; \$1_o1f 0 \; \$1_e1a 2800 \; \$1_e1d 3535 \; \$1_e1s 60
\; \$1_e1r 2400 \; \$1_scl1 2 \; \$1_hld1 1 \; \$1_lvl1 1 \; \$1_fb1
0 \; \$1_fi1 0 \; \$1_fd1 0 \; \$1_o2c 4 \; \$1_o2f 2.755 \; \$1_e2a
2582 \; \$1_e2d 3000 \; \$1_e2s 53 \; \$1_e2r 913 \; \$1_scl2 2 \;
\$1_hld2 1 \; \$1_lvl2 0.075 \; \$1_fb2 0 \; \$1_fi2 0 \; \$1_fd2 0
\; \$1_o3c 1 \; \$1_o3f 1.181 \; \$1_e3a 315 \; \$1_e3d 3000 \; \$1_e3s
81 \; \$1_e3r 1826 \; \$1_scl3 2 \; \$1_hld3 1 \; \$1_lvl3 0.13 \;
\$1_fb3 0 \; \$1_fi3 0 \; \$1_fd3 0 \; \$1_o4c 15 \; \$1_o4f 0 \; \$1_e4a
3433 \; \$1_e4d 1204 \; \$1_e4s 57 \; \$1_e4r 3464 \; \$1_scl4 3 \;
\$1_hld4 1 \; \$1_lvl4 0.025 \; \$1_fb4 0.105 \; \$1_fi4 0.748 \; \$1_fd4
-2.25 \;;
#X connect 0 0 1 0;
#X connect 1 0 13 0;
#X connect 2 0 11 0;
#X connect 3 0 2 0;
#X connect 4 0 0 0;
#X connect 5 0 3 0;
#X connect 6 0 12 0;
#X connect 7 0 6 0;
#X connect 8 0 7 0;
#X restore 17 -10 pd presets;
#X obj 54 -36 inlet;
#X obj 69 -36 inlet;
#X obj 497 573 hsl 128 15 -13 13 0 0 \$0_fbdetune1 \$0_fd1 empty -2
-8 0 10 -262144 -1 -1 6350 1;
#X obj 497 528 hsl 128 15 0 10 0 0 \$0_fbint1 \$0_fi1 empty -2 -8 0
10 -262144 -1 -1 0 1;
#X obj 497 486 hsl 128 15 0.01 1 1 0 \$0_fbamnt1 \$0_fb1 empty -2 -8
0 10 -262144 -1 -1 0 1;
#X obj 175 462 vsl 15 128 0 50 0 0 \$0_o1f \$0_o1f empty 0 -9 0 10
-262144 -1 -1 0 1;
#X obj 175 302 vsl 15 128 0 50 0 0 \$0_o2f \$0_o2f empty 0 -9 0 10
-262144 -1 -1 700 1;
#X obj 175 142 vsl 15 128 0 50 0 0 \$0_o3f \$0_o3f empty 0 -9 0 10
-262144 -1 -1 300 1;
#X obj 175 -20 vsl 15 128 0 50 0 0 \$0_o4f \$0_o4f empty 0 -9 0 10
-262144 -1 -1 0 1;
#X text 485 304 Feedback;
#X text 494 346 Index;
#X text 490 390 Detune;
#X obj 498 413 hsl 128 15 -13 13 0 0 \$0_fbdetune2 \$0_fd2 empty -2
-8 0 10 -262144 -1 -1 6350 1;
#X obj 498 368 hsl 128 15 0 10 0 0 \$0_fbint2 \$0_fi2 empty -2 -8 0
10 -262144 -1 -1 0 1;
#X obj 498 326 hsl 128 15 0.01 1 1 0 \$0_fbamnt2 \$0_fb2 empty -2 -8
0 10 -262144 -1 -1 0 1;
#X text 485 144 Feedback;
#X text 494 186 Index;
#X text 490 231 Detune;
#X obj 498 253 hsl 128 15 -13 13 0 0 \$0_fbdetune3 \$0_fd3 empty -2
-8 0 10 -262144 -1 -1 6350 1;
#X obj 498 208 hsl 128 15 0 10 0 0 \$0_fbint3 \$0_fi3 empty -2 -8 0
10 -262144 -1 -1 0 1;
#X obj 498 166 hsl 128 15 0.01 1 1 0 \$0_fbamnt3 \$0_fb3 empty -2 -8
0 10 -262144 -1 -1 0 1;
#X text 486 -16 Feedback;
#X text 495 26 Index;
#X text 491 71 Detune;
#X obj 499 93 hsl 128 15 -13 13 0 0 \$0_fbdetune4 \$0_fd4 empty -2
-8 0 10 -262144 -1 -1 5251 1;
#X obj 499 48 hsl 128 15 0 10 0 0 \$0_fbint4 \$0_fi4 empty -2 -8 0
10 -262144 -1 -1 950 1;
#X obj 499 6 hsl 128 15 0.01 1 1 0 \$0_fbamnt4 \$0_fb4 empty -2 -8
0 10 -262144 -1 -1 6485 1;
#X obj 99 109 vsl 15 128 0.01 10 1 0 \$0_LFOspd \$0_LFOs empty 0 -9
0 10 -262144 -1 -1 11015 1;
#X obj 122 109 vsl 15 128 0 1 0 0 \$0_LFOamt \$0_LFOa empty 0 -9 0
10 -262144 -1 -1 127 1;
#X obj 17 41 outlet;
#X obj 84 -36 inlet;
#X floatatom 347 576 3 0 0 0 - #0_scale1 -, f 3;
#X floatatom 347 416 3 0 0 0 - #0_scale2 -, f 3;
#X floatatom 346 256 3 0 0 0 - #0_scale3 -, f 3;
#X floatatom 346 94 3 0 0 0 - #0_scale4 -, f 3;
#X floatatom 197 416 5 0 0 0 - #0_o2f -, f 5;
#X floatatom 197 256 5 0 0 0 - #0_o3f -, f 5;
#X floatatom 197 94 5 0 0 0 - #0_o4f -, f 5;
#X floatatom 550 553 5 0 0 0 - #0_fbdetune1 -, f 5;
#X floatatom 550 507 5 0 0 0 - #0_fbint1 -, f 5;
#X floatatom 550 465 5 0 0 0 - #0_fbamnt1 -, f 5;
#X floatatom 550 392 5 0 0 0 - #0_fbdetune2 -, f 5;
#X floatatom 550 347 5 0 0 0 - #0_fbint2 -, f 5;
#X floatatom 550 305 5 0 0 0 - #0_fbamnt2 -, f 5;
#X floatatom 550 233 5 0 0 0 - #0_fbdetune3 -, f 5;
#X floatatom 550 187 5 0 0 0 - #0_fbint3 -, f 5;
#X floatatom 550 145 5 0 0 0 - #0_fbamnt3 -, f 5;
#X floatatom 550 73 5 0 0 0 - #0_fbdetune4 -, f 5;
#X floatatom 550 27 5 0 0 0 - #0_fbint4 -, f 5;
#X floatatom 550 -15 5 0 0 0 - #0_fbamnt4 -, f 5;
#X obj 445 -20 vsl 15 128 0.01 1 1 0 \$0_level4 \$0_lvl4 empty 0 -9
0 10 -262144 -1 -1 2527 1;
#X obj 445 142 vsl 15 128 0.01 1 1 0 \$0_level3 \$0_lvl3 empty 0 -9
0 10 -262144 -1 -1 7074 1;
#X obj 445 302 vsl 15 128 0.01 1 1 0 \$0_level2 \$0_lvl2 empty 0 -9
0 10 -262144 -1 -1 5557 1;
#X obj 445 462 vsl 15 128 0.01 1 1 0 \$0_level1 \$0_lvl1 empty 0 -9
0 10 -262144 -1 -1 12700 1;
#X obj 70 41 outlet~;
#X obj 8 -36 inlet;
#X obj 8 272 bng 15 250 50 0 \$0_t empty empty 17 7 0 10 -262144 -1
-1;
#X floatatom 205 462 5 0 0 0 - #0_env1a -, f 5;
#X floatatom 205 484 5 0 0 0 - #0_env1d -, f 5;
#X floatatom 205 506 5 0 0 0 - #0_env1s -, f 5;
#X floatatom 205 528 5 0 0 0 - #0_env1r -, f 5;
#X floatatom 205 302 5 0 0 0 - #0_env2a -, f 5;
#X floatatom 205 324 5 0 0 0 - #0_env2d -, f 5;
#X floatatom 205 346 5 0 0 0 - #0_env2s -, f 5;
#X floatatom 205 368 5 0 0 0 - #0_env2r -, f 5;
#X floatatom 205 142 5 0 0 0 - #0_env3a -, f 5;
#X floatatom 205 164 5 0 0 0 - #0_env3d -, f 5;
#X floatatom 205 186 5 0 0 0 - #0_env3s -, f 5;
#X floatatom 205 208 5 0 0 0 - #0_env3r -, f 5;
#X floatatom 205 -20 5 0 0 0 - #0_env4a -, f 5;
#X floatatom 205 2 5 0 0 0 - #0_env4d -, f 5;
#X floatatom 205 24 5 0 0 0 - #0_env4s -, f 5;
#X floatatom 205 46 5 0 0 0 - #0_env4r -, f 5;
#X floatatom 8 442 5 0 0 0 - - -, f 5;
#X floatatom 197 72 3 0 0 0 - #0_op4c -, f 3;
#X floatatom 197 234 3 0 0 0 - #0_op3c -, f 3;
#X floatatom 197 394 3 0 0 0 - #0_op2c -, f 3;
#X floatatom 197 554 3 0 0 0 - #0_op1c -, f 3;
#X floatatom 400 488 5 0 0 0 - #0_level1 -, f 5;
#X floatatom 400 328 5 0 0 0 - #0_level2 -, f 5;
#X floatatom 400 168 5 0 0 0 - #0_level3 -, f 5;
#X floatatom 400 6 5 0 0 0 - #0_level4 -, f 5;
#X floatatom 52 248 5 0 0 0 - - -, f 5;
#X obj 52 303 vsl 15 128 0 1000 0 0 \$0_lop \$0_lp empty 0 -9 0 10
-262144 -1 -1 12700 1;
#X floatatom 52 442 5 0 0 0 - - -, f 5;
#N canvas 697 108 450 323 random 0;
#X obj 7 14 r \$0_t;
#X obj 7 46 random 12;
#X floatatom 7 75 5 0 0 0 - - -, f 5;
#X obj 7 133 *;
#X obj 25 108 tgl 15 0 empty \$0_rand empty 17 7 0 10 -262144 -1 -1
0 1;
#X obj 7 164 sel 0 1 2 3 4 5 6 7 8;
#X msg 7 197 4;
#X msg 40 197 5;
#X msg 72 197 6;
#X msg 104 197 7;
#X msg 138 197 8;
#X msg 173 197 9;
#X msg 210 197 12;
#X msg 246 197 14;
#X msg 286 197 3;
#X obj 7 230 s \$0_o1c;
#X connect 0 0 1 0;
#X connect 1 0 2 0;
#X connect 2 0 3 0;
#X connect 3 0 5 0;
#X connect 4 0 3 1;
#X connect 5 0 6 0;
#X connect 5 1 7 0;
#X connect 5 2 8 0;
#X connect 5 3 9 0;
#X connect 5 4 10 0;
#X connect 5 5 11 0;
#X connect 5 6 12 0;
#X connect 5 7 13 0;
#X connect 5 9 14 0;
#X connect 6 0 15 0;
#X connect 7 0 15 0;
#X connect 8 0 15 0;
#X connect 9 0 15 0;
#X connect 10 0 15 0;
#X connect 11 0 15 0;
#X connect 12 0 15 0;
#X connect 13 0 15 0;
#X connect 14 0 15 0;
#X restore 14 531 pd random;
#N canvas 596 79 450 346 randatt 0;
#X obj 11 -78 r \$0_t;
#X obj 11 -46 random 12;
#X floatatom 11 -17 5 0 0 0 - - -, f 5;
#X obj 11 41 *;
#X obj 29 16 tgl 15 0 empty \$0_randatt empty 17 7 0 10 -262144 -1
-1 1 1;
#X obj 11 138 s \$0_e1a;
#X msg 76 105 1700;
#X msg 154 105 2800;
#X msg 44 105 200;
#X msg 11 105 10;
#X obj 11 72 sel 0 1 2 3;
#X msg 117 104 50;
#X connect 0 0 1 0;
#X connect 1 0 2 0;
#X connect 2 0 3 0;
#X connect 3 0 10 0;
#X connect 4 0 3 1;
#X connect 6 0 5 0;
#X connect 7 0 5 0;
#X connect 8 0 5 0;
#X connect 9 0 5 0;
#X connect 10 0 9 0;
#X connect 10 1 8 0;
#X connect 10 2 6 0;
#X connect 10 3 11 0;
#X connect 10 4 7 0;
#X connect 11 0 5 0;
#X restore 14 556 pd randatt;
#X connect 38 0 39 0;
#X connect 39 0 112 0;
#X connect 40 0 129 0;
#X connect 53 0 138 0;
#X connect 54 0 85 0;
#X connect 54 1 110 0;
#X connect 56 0 55 0;
#X connect 57 0 55 1;
#X connect 86 0 55 2;
#X connect 111 0 38 0;
#X connect 139 0 140 0;
